<?xml version="1.0" encoding="utf-8"?>
<!-- Generator: Adobe Illustrator 16.0.0, SVG Export Plug-In . SVG Version: 6.00 Build 0)  -->
<!DOCTYPE svg PUBLIC "-//W3C//DTD SVG 1.0//EN" "http://www.w3.org/TR/2001/REC-SVG-20010904/DTD/svg10.dtd">
<svg version="1.0" id="Layer_1" xmlns="http://www.w3.org/2000/svg" xmlns:xlink="http://www.w3.org/1999/xlink" x="0px" y="0px"
	 width="475.652px" height="193.505px" viewBox="0 0 475.652 193.505" enable-background="new 0 0 475.652 193.505"
	 xml:space="preserve">
<g>
	<polygon fill-rule="evenodd" clip-rule="evenodd" fill="#A5A5A5" points="0.501,41.498 65.001,41.498 65.001,55.32 0.501,55.32 
		0.501,41.498 	"/>
	<polygon fill-rule="evenodd" clip-rule="evenodd" fill="#A5A5A5" points="65.001,41.498 475.151,41.498 475.151,55.32 
		65.001,55.32 65.001,41.498 	"/>
	<polygon fill-rule="evenodd" clip-rule="evenodd" fill="#EDEDED" points="0.501,55.32 65.001,55.32 65.001,69.142 0.501,69.142 
		0.501,55.32 	"/>
	<polygon fill-rule="evenodd" clip-rule="evenodd" fill="#EDEDED" points="65.001,55.32 475.151,55.32 475.151,69.142 
		65.001,69.142 65.001,55.32 	"/>
	<polygon fill-rule="evenodd" clip-rule="evenodd" fill="#EDEDED" points="0.501,82.963 65.001,82.963 65.001,96.785 0.501,96.785 
		0.501,82.963 	"/>
	<polygon fill-rule="evenodd" clip-rule="evenodd" fill="#EDEDED" points="65.001,82.963 475.151,82.963 475.151,96.785 
		65.001,96.785 65.001,82.963 	"/>
	<polygon fill-rule="evenodd" clip-rule="evenodd" fill="#EDEDED" points="0.501,110.607 65.001,110.607 65.001,124.428 
		0.501,124.428 0.501,110.607 	"/>
	<polygon fill-rule="evenodd" clip-rule="evenodd" fill="#EDEDED" points="65.001,110.607 475.151,110.607 475.151,124.428 
		65.001,124.428 65.001,110.607 	"/>
	<polygon fill-rule="evenodd" clip-rule="evenodd" fill="#EDEDED" points="0.501,138.25 65.001,138.25 65.001,152.072 
		0.501,152.072 0.501,138.25 	"/>
	<polygon fill-rule="evenodd" clip-rule="evenodd" fill="#EDEDED" points="65.001,138.25 475.151,138.25 475.151,152.072 
		65.001,152.072 65.001,138.25 	"/>
	
		<line fill="none" stroke="#C9C9C9" stroke-width="1.0016" stroke-linejoin="round" stroke-miterlimit="10" x1="65.001" y1="54.819" x2="65.001" y2="152.574"/>
	
		<line fill="none" stroke="#A5A5A5" stroke-width="1.0016" stroke-linejoin="round" stroke-miterlimit="10" x1="0.001" y1="55.32" x2="475.651" y2="55.32"/>
	
		<line fill="none" stroke="#C9C9C9" stroke-width="1.0016" stroke-linejoin="round" stroke-miterlimit="10" x1="0.001" y1="69.142" x2="475.651" y2="69.142"/>
	
		<line fill="none" stroke="#C9C9C9" stroke-width="1.0016" stroke-linejoin="round" stroke-miterlimit="10" x1="0.001" y1="82.963" x2="475.651" y2="82.963"/>
	
		<line fill="none" stroke="#C9C9C9" stroke-width="1.0016" stroke-linejoin="round" stroke-miterlimit="10" x1="0.001" y1="96.785" x2="475.651" y2="96.785"/>
	
		<line fill="none" stroke="#C9C9C9" stroke-width="1.0016" stroke-linejoin="round" stroke-miterlimit="10" x1="0.001" y1="110.607" x2="475.651" y2="110.607"/>
	
		<line fill="none" stroke="#C9C9C9" stroke-width="1.0016" stroke-linejoin="round" stroke-miterlimit="10" x1="0.001" y1="124.428" x2="475.651" y2="124.428"/>
	
		<line fill="none" stroke="#C9C9C9" stroke-width="1.0016" stroke-linejoin="round" stroke-miterlimit="10" x1="0.001" y1="138.25" x2="475.651" y2="138.25"/>
	
		<line fill="none" stroke="#A5A5A5" stroke-width="1.0016" stroke-linejoin="round" stroke-miterlimit="10" x1="0.501" y1="40.997" x2="0.501" y2="55.32"/>
	
		<line fill="none" stroke="#C9C9C9" stroke-width="1.0016" stroke-linejoin="round" stroke-miterlimit="10" x1="0.501" y1="55.32" x2="0.501" y2="152.574"/>
	
		<line fill="none" stroke="#A5A5A5" stroke-width="1.0016" stroke-linejoin="round" stroke-miterlimit="10" x1="475.151" y1="40.997" x2="475.151" y2="55.32"/>
	
		<line fill="none" stroke="#C9C9C9" stroke-width="1.0016" stroke-linejoin="round" stroke-miterlimit="10" x1="475.151" y1="55.32" x2="475.151" y2="152.574"/>
	
		<line fill="none" stroke="#A5A5A5" stroke-width="1.0016" stroke-linejoin="round" stroke-miterlimit="10" x1="0.001" y1="41.498" x2="475.651" y2="41.498"/>
	
		<line fill="none" stroke="#C9C9C9" stroke-width="1.0016" stroke-linejoin="round" stroke-miterlimit="10" x1="0.001" y1="152.072" x2="475.651" y2="152.072"/>
	<g>
		<defs>
			<rect id="SVGID_1_" x="0.556" width="64.44" height="96.752"/>
		</defs>
		<clipPath id="SVGID_2_">
			<use xlink:href="#SVGID_1_"  overflow="visible"/>
		</clipPath>
		<g clip-path="url(#SVGID_2_)">
			<text transform="matrix(0.9984 0 0 1 5.9009 51.8335)"><tspan x="0" y="0" fill="#FFFFFF" font-family="'Calibri-Bold'" font-size="9.9757">Mn</tspan><tspan x="14.172" y="0" fill="#FFFFFF" font-family="'Calibri-Bold'" font-size="9.9757">e</tspan><tspan x="19.214" y="0" fill="#FFFFFF" font-family="'Calibri-Bold'" font-size="9.9757">m</tspan><tspan x="27.378" y="0" fill="#FFFFFF" font-family="'Calibri-Bold'" font-size="9.9757">o</tspan><tspan x="32.782" y="0" fill="#FFFFFF" font-family="'Calibri-Bold'" font-size="9.9757">n</tspan><tspan x="38.185" y="0" fill="#FFFFFF" font-family="'Calibri-Bold'" font-size="9.9757">i</tspan><tspan x="40.595" y="0" fill="#FFFFFF" font-family="'Calibri-Bold'" font-size="9.9757">c</tspan></text>
		</g>
	</g>
	<g>
		<defs>
			<rect id="SVGID_3_" x="64.996" width="410.16" height="96.752"/>
		</defs>
		<clipPath id="SVGID_4_">
			<use xlink:href="#SVGID_3_"  overflow="visible"/>
		</clipPath>
		<g clip-path="url(#SVGID_4_)">
			<text transform="matrix(0.9984 0 0 1 70.4087 51.8335)"><tspan x="0" y="0" fill="#FFFFFF" font-family="'Calibri-Bold'" font-size="9.9757">F</tspan><tspan x="4.569" y="0" fill="#FFFFFF" font-family="'Calibri-Bold'" font-size="9.9757">u</tspan><tspan x="9.972" y="0" fill="#FFFFFF" font-family="'Calibri-Bold'" font-size="9.9757">ll</tspan><tspan x="14.792" y="0" fill="#FFFFFF" font-family="'Calibri-Bold'" font-size="9.9757"> </tspan><tspan x="17.307" y="0" fill="#FFFFFF" font-family="'Calibri-Bold'" font-size="9.9757">F</tspan><tspan x="21.875" y="0" fill="#FFFFFF" font-family="'Calibri-Bold'" font-size="9.9757">o</tspan><tspan x="27.278" y="0" fill="#FFFFFF" font-family="'Calibri-Bold'" font-size="9.9757">r</tspan><tspan x="30.874" y="0" fill="#FFFFFF" font-family="'Calibri-Bold'" font-size="9.9757">m</tspan></text>
		</g>
	</g>
	<g>
		<defs>
			<rect id="SVGID_5_" x="0.556" y="13.822" width="64.44" height="96.752"/>
		</defs>
		<clipPath id="SVGID_6_">
			<use xlink:href="#SVGID_5_"  overflow="visible"/>
		</clipPath>
		<g clip-path="url(#SVGID_6_)">
			<text transform="matrix(0.9984 0 0 1 5.9009 65.6616)"><tspan x="0" y="0" font-family="'Calibri-Bold'" font-size="9.9757">D</tspan><tspan x="6.258" y="0" font-family="'Calibri-Bold'" font-size="9.9757">C</tspan></text>
		</g>
	</g>
	<g>
		<defs>
			<rect id="SVGID_7_" x="64.996" y="13.822" width="410.16" height="96.752"/>
		</defs>
		<clipPath id="SVGID_8_">
			<use xlink:href="#SVGID_7_"  overflow="visible"/>
		</clipPath>
		<g clip-path="url(#SVGID_8_)">
			<text transform="matrix(0.9984 0 0 1 70.4087 65.6616)"><tspan x="0" y="0" font-family="'Calibri'" font-size="9.9757">Dir</tspan><tspan x="11.904" y="0" font-family="'Calibri'" font-size="9.9757">e</tspan><tspan x="16.838" y="0" font-family="'Calibri'" font-size="9.9757">c</tspan><tspan x="21.046" y="0" font-family="'Calibri'" font-size="9.9757">t</tspan><tspan x="24.408" y="0" font-family="'Calibri'" font-size="9.9757"> </tspan><tspan x="26.803" y="0" font-family="'Calibri'" font-size="9.9757">C</tspan><tspan x="32.092" y="0" font-family="'Calibri'" font-size="9.9757">u</tspan><tspan x="37.373" y="0" font-family="'Calibri'" font-size="9.9757">rr</tspan><tspan x="44.328" y="0" font-family="'Calibri'" font-size="9.9757">e</tspan><tspan x="49.262" y="0" font-family="'Calibri'" font-size="9.9757">n</tspan><tspan x="54.543" y="0" font-family="'Calibri'" font-size="9.9757">t</tspan></text>
		</g>
	</g>
	<g>
		<defs>
			<rect id="SVGID_9_" x="0.556" y="27.644" width="64.44" height="96.752"/>
		</defs>
		<clipPath id="SVGID_10_">
			<use xlink:href="#SVGID_9_"  overflow="visible"/>
		</clipPath>
		<g clip-path="url(#SVGID_10_)">
			<text transform="matrix(0.9984 0 0 1 5.9009 79.4741)"><tspan x="0" y="0" font-family="'Calibri-Bold'" font-size="9.9757">G</tspan><tspan x="6.366" y="0" font-family="'Calibri-Bold'" font-size="9.9757">B</tspan></text>
		</g>
	</g>
	<g>
		<defs>
			<rect id="SVGID_11_" x="64.996" y="27.644" width="410.16" height="96.752"/>
		</defs>
		<clipPath id="SVGID_12_">
			<use xlink:href="#SVGID_11_"  overflow="visible"/>
		</clipPath>
		<g clip-path="url(#SVGID_12_)">
			<text transform="matrix(0.9984 0 0 1 70.4087 79.4741)"><tspan x="0" y="0" font-family="'Calibri'" font-size="9.9757">G</tspan><tspan x="6.253" y="0" font-family="'Calibri'" font-size="9.9757">ig</tspan><tspan x="13.238" y="0" font-family="'Calibri'" font-size="9.9757">a</tspan><tspan x="18.037" y="0" font-family="'Calibri'" font-size="9.9757">b</tspan><tspan x="23.317" y="0" font-family="'Calibri'" font-size="9.9757">y</tspan><tspan x="27.883" y="0" font-family="'Calibri'" font-size="9.9757">t</tspan><tspan x="31.244" y="0" font-family="'Calibri'" font-size="9.9757">e</tspan><tspan x="36.178" y="0" font-family="'Calibri'" font-size="9.9757">s</tspan></text>
		</g>
	</g>
	<g>
		<defs>
			<rect id="SVGID_13_" x="0.556" y="41.465" width="64.44" height="96.752"/>
		</defs>
		<clipPath id="SVGID_14_">
			<use xlink:href="#SVGID_13_"  overflow="visible"/>
		</clipPath>
		<g clip-path="url(#SVGID_14_)">
			<text transform="matrix(0.9984 0 0 1 5.9009 93.2944)"><tspan x="0" y="0" font-family="'Calibri-Bold'" font-size="9.9757">G</tspan><tspan x="6.366" y="0" font-family="'Calibri-Bold'" font-size="9.9757">P</tspan><tspan x="11.656" y="0" font-family="'Calibri-Bold'" font-size="9.9757">I</tspan><tspan x="14.306" y="0" font-family="'Calibri-Bold'" font-size="9.9757">O</tspan></text>
		</g>
	</g>
	<g>
		<defs>
			<rect id="SVGID_15_" x="64.996" y="41.465" width="410.16" height="96.752"/>
		</defs>
		<clipPath id="SVGID_16_">
			<use xlink:href="#SVGID_15_"  overflow="visible"/>
		</clipPath>
		<g clip-path="url(#SVGID_16_)">
			<text transform="matrix(0.9984 0 0 1 70.4087 93.2944)"><tspan x="0" y="0" font-family="'Calibri'" font-size="9.9757">G</tspan><tspan x="6.253" y="0" font-family="'Calibri'" font-size="9.9757">e</tspan><tspan x="11.187" y="0" font-family="'Calibri'" font-size="9.9757">n</tspan><tspan x="16.468" y="0" font-family="'Calibri'" font-size="9.9757">e</tspan><tspan x="21.401" y="0" font-family="'Calibri'" font-size="9.9757">r</tspan><tspan x="24.879" y="0" font-family="'Calibri'" font-size="9.9757">a</tspan><tspan x="29.678" y="0" font-family="'Calibri'" font-size="9.9757">l</tspan><tspan x="31.967" y="0" font-family="'Calibri'" font-size="9.9757"> </tspan><tspan x="34.242" y="0" font-family="'Calibri'" font-size="9.9757">P</tspan><tspan x="39.406" y="0" font-family="'Calibri'" font-size="9.9757">u</tspan><tspan x="44.686" y="0" font-family="'Calibri'" font-size="9.9757">r</tspan><tspan x="48.165" y="0" font-family="'Calibri'" font-size="9.9757">p</tspan><tspan x="53.445" y="0" font-family="'Calibri'" font-size="9.9757">o</tspan><tspan x="58.726" y="0" font-family="'Calibri'" font-size="9.9757">s</tspan><tspan x="62.578" y="0" font-family="'Calibri'" font-size="9.9757">e</tspan><tspan x="67.511" y="0" font-family="'Calibri'" font-size="9.9757"> </tspan><tspan x="69.786" y="0" font-family="'Calibri'" font-size="9.9757">I</tspan><tspan x="72.31" y="0" font-family="'Calibri'" font-size="9.9757">npu</tspan><tspan x="88.153" y="0" font-family="'Calibri'" font-size="9.9757">t</tspan><tspan x="91.514" y="0" font-family="'Calibri'" font-size="9.9757"> </tspan><tspan x="93.68" y="0" font-family="'Calibri'" font-size="9.9757">O</tspan><tspan x="100.285" y="0" font-family="'Calibri'" font-size="9.9757">u</tspan><tspan x="105.566" y="0" font-family="'Calibri'" font-size="9.9757">t</tspan><tspan x="108.927" y="0" font-family="'Calibri'" font-size="9.9757">pu</tspan><tspan x="119.489" y="0" font-family="'Calibri'" font-size="9.9757">t</tspan></text>
		</g>
	</g>
	<g>
		<defs>
			<rect id="SVGID_17_" x="0.556" y="55.287" width="64.44" height="96.751"/>
		</defs>
		<clipPath id="SVGID_18_">
			<use xlink:href="#SVGID_17_"  overflow="visible"/>
		</clipPath>
		<g clip-path="url(#SVGID_18_)">
			<text transform="matrix(0.9984 0 0 1 5.9009 107.1226)"><tspan x="0" y="0" font-family="'Calibri-Bold'" font-size="9.9757">M</tspan><tspan x="8.769" y="0" font-family="'Calibri-Bold'" font-size="9.9757">B</tspan></text>
		</g>
	</g>
	<g>
		<defs>
			<rect id="SVGID_19_" x="64.996" y="55.287" width="410.16" height="96.751"/>
		</defs>
		<clipPath id="SVGID_20_">
			<use xlink:href="#SVGID_19_"  overflow="visible"/>
		</clipPath>
		<g clip-path="url(#SVGID_20_)">
			<text transform="matrix(0.9984 0 0 1 70.4087 107.1226)"><tspan x="0" y="0" font-family="'Calibri'" font-size="9.9757">M</tspan><tspan x="8.529" y="0" font-family="'Calibri'" font-size="9.9757">e</tspan><tspan x="13.463" y="0" font-family="'Calibri'" font-size="9.9757">g</tspan><tspan x="18.158" y="0" font-family="'Calibri'" font-size="9.9757">a</tspan><tspan x="22.957" y="0" font-family="'Calibri'" font-size="9.9757">b</tspan><tspan x="28.238" y="0" font-family="'Calibri'" font-size="9.9757">y</tspan><tspan x="32.803" y="0" font-family="'Calibri'" font-size="9.9757">t</tspan><tspan x="36.164" y="0" font-family="'Calibri'" font-size="9.9757">e</tspan><tspan x="41.098" y="0" font-family="'Calibri'" font-size="9.9757">s</tspan></text>
		</g>
	</g>
	<g>
		<defs>
			<rect id="SVGID_21_" x="0.556" y="69.109" width="64.44" height="96.752"/>
		</defs>
		<clipPath id="SVGID_22_">
			<use xlink:href="#SVGID_21_"  overflow="visible"/>
		</clipPath>
		<g clip-path="url(#SVGID_22_)">
			<text transform="matrix(0.9984 0 0 1 5.9009 120.9429)"><tspan x="0" y="0" font-family="'Calibri-Bold'" font-size="9.9757">O</tspan><tspan x="6.736" y="0" font-family="'Calibri-Bold'" font-size="9.9757">S</tspan></text>
		</g>
	</g>
	<g>
		<defs>
			<rect id="SVGID_23_" x="64.996" y="69.109" width="410.16" height="96.752"/>
		</defs>
		<clipPath id="SVGID_24_">
			<use xlink:href="#SVGID_23_"  overflow="visible"/>
		</clipPath>
		<g clip-path="url(#SVGID_24_)">
			<text transform="matrix(0.9984 0 0 1 70.4087 120.9429)"><tspan x="0" y="0" font-family="'Calibri'" font-size="9.9757">O</tspan><tspan x="6.605" y="0" font-family="'Calibri'" font-size="9.9757">p</tspan><tspan x="11.886" y="0" font-family="'Calibri'" font-size="9.9757">e</tspan><tspan x="16.819" y="0" font-family="'Calibri'" font-size="9.9757">r</tspan><tspan x="20.298" y="0" font-family="'Calibri'" font-size="9.9757">a</tspan><tspan x="25.096" y="0" font-family="'Calibri'" font-size="9.9757">ti</tspan><tspan x="30.654" y="0" font-family="'Calibri'" font-size="9.9757">n</tspan><tspan x="35.934" y="0" font-family="'Calibri'" font-size="9.9757">g</tspan><tspan x="40.63" y="0" font-family="'Calibri'" font-size="9.9757"> </tspan><tspan x="42.905" y="0" font-family="'Calibri'" font-size="9.9757">S</tspan><tspan x="47.479" y="0" font-family="'Calibri'" font-size="9.9757">y</tspan><tspan x="52.044" y="0" font-family="'Calibri'" font-size="9.9757">s</tspan><tspan x="55.896" y="0" font-family="'Calibri'" font-size="9.9757">t</tspan><tspan x="59.257" y="0" font-family="'Calibri'" font-size="9.9757">e</tspan><tspan x="64.191" y="0" font-family="'Calibri'" font-size="9.9757">m</tspan></text>
		</g>
	</g>
	<g>
		<defs>
			<rect id="SVGID_25_" x="0.556" y="82.931" width="64.44" height="96.752"/>
		</defs>
		<clipPath id="SVGID_26_">
			<use xlink:href="#SVGID_25_"  overflow="visible"/>
		</clipPath>
		<g clip-path="url(#SVGID_26_)">
			<text transform="matrix(0.9984 0 0 1 5.9009 134.7632)"><tspan x="0" y="0" font-family="'Calibri-Bold'" font-size="9.9757">R</tspan><tspan x="5.646" y="0" font-family="'Calibri-Bold'" font-size="9.9757">A</tspan><tspan x="11.661" y="0" font-family="'Calibri-Bold'" font-size="9.9757">M</tspan></text>
		</g>
	</g>
	<g>
		<defs>
			<rect id="SVGID_27_" x="64.996" y="82.931" width="410.16" height="96.752"/>
		</defs>
		<clipPath id="SVGID_28_">
			<use xlink:href="#SVGID_27_"  overflow="visible"/>
		</clipPath>
		<g clip-path="url(#SVGID_28_)">
			<text transform="matrix(0.9984 0 0 1 70.4087 134.7632)"><tspan x="0" y="0" font-family="'Calibri'" font-size="9.9757">R</tspan><tspan x="5.417" y="0" font-family="'Calibri'" font-size="9.9757">a</tspan><tspan x="10.215" y="0" font-family="'Calibri'" font-size="9.9757">nd</tspan><tspan x="20.777" y="0" font-family="'Calibri'" font-size="9.9757">o</tspan><tspan x="26.058" y="0" font-family="'Calibri'" font-size="9.9757">m</tspan><tspan x="33.996" y="0" font-family="'Calibri'" font-size="9.9757"> </tspan><tspan x="36.162" y="0" font-family="'Calibri'" font-size="9.9757">A</tspan><tspan x="41.934" y="0" font-family="'Calibri'" font-size="9.9757">cc</tspan><tspan x="50.35" y="0" font-family="'Calibri'" font-size="9.9757">e</tspan><tspan x="55.284" y="0" font-family="'Calibri'" font-size="9.9757">ss</tspan><tspan x="62.987" y="0" font-family="'Calibri'" font-size="9.9757"> </tspan><tspan x="65.502" y="0" font-family="'Calibri'" font-size="9.9757">M</tspan><tspan x="74.031" y="0" font-family="'Calibri'" font-size="9.9757">em</tspan><tspan x="86.904" y="0" font-family="'Calibri'" font-size="9.9757">o</tspan><tspan x="92.184" y="0" font-family="'Calibri'" font-size="9.9757">ry</tspan></text>
		</g>
	</g>
	<g>
		<defs>
			<rect id="SVGID_29_" x="0.556" y="96.752" width="64.44" height="96.753"/>
		</defs>
		<clipPath id="SVGID_30_">
			<use xlink:href="#SVGID_29_"  overflow="visible"/>
		</clipPath>
		<g clip-path="url(#SVGID_30_)">
			<text transform="matrix(0.9984 0 0 1 5.9009 148.5913)"><tspan x="0" y="0" font-family="'Calibri-Bold'" font-size="9.9757">S</tspan><tspan x="4.695" y="0" font-family="'Calibri-Bold'" font-size="9.9757">D</tspan></text>
		</g>
	</g>
	<g>
		<defs>
			<rect id="SVGID_31_" x="64.996" y="99.156" width="410.16" height="91.104"/>
		</defs>
		<clipPath id="SVGID_32_">
			<use xlink:href="#SVGID_31_"  overflow="visible"/>
		</clipPath>
		<g clip-path="url(#SVGID_32_)">
			<text transform="matrix(0.9984 0 0 1 70.4087 148.5913)"><tspan x="0" y="0" font-family="'Calibri'" font-size="9.9757">S</tspan><tspan x="4.574" y="0" font-family="'Calibri'" font-size="9.9757">e</tspan><tspan x="9.507" y="0" font-family="'Calibri'" font-size="9.9757">c</tspan><tspan x="13.715" y="0" font-family="'Calibri'" font-size="9.9757">u</tspan><tspan x="18.996" y="0" font-family="'Calibri'" font-size="9.9757">r</tspan><tspan x="22.474" y="0" font-family="'Calibri'" font-size="9.9757">e</tspan><tspan x="27.408" y="0" font-family="'Calibri'" font-size="9.9757"> </tspan><tspan x="29.923" y="0" font-family="'Calibri'" font-size="9.9757">Digi</tspan><tspan x="45.334" y="0" font-family="'Calibri'" font-size="9.9757">ta</tspan><tspan x="53.494" y="0" font-family="'Calibri'" font-size="9.9757">l</tspan></text>
		</g>
	</g>
</g>
</svg>
