<?xml version="1.0" encoding="utf-8"?>
<!-- Generator: Adobe Illustrator 16.0.0, SVG Export Plug-In . SVG Version: 6.00 Build 0)  -->
<!DOCTYPE svg PUBLIC "-//W3C//DTD SVG 1.0//EN" "http://www.w3.org/TR/2001/REC-SVG-20010904/DTD/svg10.dtd">
<svg version="1.0" id="Layer_1" xmlns="http://www.w3.org/2000/svg" xmlns:xlink="http://www.w3.org/1999/xlink" x="0px" y="0px"
	 width="707.641px" height="216.341px" viewBox="0 0 707.641 216.341" enable-background="new 0 0 707.641 216.341"
	 xml:space="preserve">
<g>
	<g>
		<defs>
			<polygon id="SVGID_1_" points="0,216.341 707.641,216.341 707.641,0 0,0 0,216.341 			"/>
		</defs>
		<clipPath id="SVGID_2_">
			<use xlink:href="#SVGID_1_"  overflow="visible"/>
		</clipPath>
		
			<path clip-path="url(#SVGID_2_)" fill="none" stroke="#D9D9D9" stroke-width="0.7211" stroke-linejoin="round" stroke-miterlimit="10" d="
			M28.56,170.429h668.16 M28.56,150.597h668.16 M28.56,130.646h668.16 M28.56,110.694h668.16 M28.56,90.743h668.16 M28.56,70.792
			h668.16 M28.56,50.84h668.16 M28.56,31.009h668.16 M28.56,11.058h668.16"/>
	</g>
	<g>
		<defs>
			<polygon id="SVGID_3_" points="0,216.341 707.641,216.341 707.641,0 0,0 0,216.341 			"/>
		</defs>
		<clipPath id="SVGID_4_">
			<use xlink:href="#SVGID_3_"  overflow="visible"/>
		</clipPath>
		
			<line clip-path="url(#SVGID_4_)" fill="none" stroke="#D9D9D9" stroke-width="0.7211" stroke-linejoin="round" stroke-miterlimit="10" x1="28.56" y1="190.38" x2="696.72" y2="190.38"/>
	</g>
	<g>
		<defs>
			<polygon id="SVGID_5_" points="28.44,191.101 697.44,191.101 697.44,10.938 28.44,10.938 28.44,191.101 			"/>
		</defs>
		<clipPath id="SVGID_6_">
			<use xlink:href="#SVGID_5_"  overflow="visible"/>
		</clipPath>
		
			<polyline clip-path="url(#SVGID_6_)" fill="none" stroke="#5B9BD5" stroke-width="2.2836" stroke-linecap="round" stroke-linejoin="round" stroke-miterlimit="10" points="
			29.82,148.134 32.58,149.095 35.22,150.296 37.86,151.499 40.5,153.542 43.14,154.983 45.78,156.306 48.54,157.509 51.18,157.509 
			53.82,159.19 56.46,160.993 59.1,160.993 61.86,128.782 64.5,128.782 67.14,163.638 69.78,163.638 72.42,146.45 75.18,32.271 
			77.82,146.45 80.46,165.681 83.1,165.681 85.74,32.271 88.38,32.271 91.14,32.271 93.78,167.724 96.42,168.927 99.06,168.927 
			101.7,32.271 104.46,32.271 107.1,32.271 109.74,32.271 112.38,32.271 115.02,32.271 117.66,32.271 120.42,32.271 123.06,32.271 
			125.7,45.612 128.34,45.612 130.98,45.853 133.74,44.29 136.38,45.492 139.02,45.372 141.66,45.372 144.3,45.131 147.06,45.131 
			149.7,32.271 152.34,45.492 154.98,45.492 157.62,46.093 160.26,46.093 163.02,48.977 165.66,45.973 168.3,49.338 170.94,45.492 
			173.58,45.372 176.34,32.271 178.98,32.271 181.62,32.271 184.26,32.271 186.9,32.271 189.54,32.271 192.3,32.271 194.94,32.271 
			197.58,137.196 200.22,138.759 202.86,139.12 205.62,138.759 208.26,141.644 210.9,142.245 213.54,142.245 216.18,183.229 
			218.94,182.987 221.58,183.108 224.22,182.987 226.86,183.108 229.5,183.47 232.14,184.069 234.9,184.31 237.54,184.431 
			240.18,184.431 242.82,184.431 245.46,184.431 248.22,184.55 250.86,184.55 253.5,184.55 256.14,184.431 258.78,184.431 
			261.42,184.069 264.18,183.829 266.82,138.878 269.46,138.878 272.1,139.841 274.74,139.841 277.5,144.769 280.14,32.271 
			282.78,144.769 285.42,146.21 288.06,146.21 290.82,148.614 293.46,142.726 296.1,146.45 298.74,142.726 301.38,146.45 
			304.02,184.911 306.78,185.032 309.42,185.272 312.06,185.272 314.7,185.513 317.34,185.993 320.1,186.112 322.74,186.595 
			325.38,186.835 328.02,186.954 330.66,186.954 333.3,186.714 336.06,186.714 338.7,186.714 341.34,186.714 343.98,95.731 
			346.62,95.61 349.38,95.37 352.02,95.37 354.66,95.851 357.3,96.211 359.94,96.211 362.7,96.091 365.34,95.731 367.98,95.61 
			370.62,95.61 373.26,95.851 375.9,95.851 378.66,95.971 381.3,96.091 383.94,96.211 386.58,186.954 389.22,187.194 
			391.98,187.315 394.62,187.315 397.26,187.194 399.9,186.835 402.54,186.714 405.3,186.595 407.94,186.233 410.58,185.872 
			413.22,185.513 415.86,184.792 418.5,183.95 421.26,183.229 423.9,183.229 426.54,183.349 429.18,183.589 431.82,183.829 
			434.58,183.829 437.22,183.47 439.86,183.47 442.5,182.987 445.141,182.987 447.78,183.829 450.54,184.792 453.18,186.233 
			455.82,187.315 458.46,187.315 461.1,186.954 463.86,146.571 466.5,146.091 469.141,142.485 471.78,138.278 474.42,142.485 
			477.18,142.245 479.82,144.288 482.46,142.245 485.1,140.081 487.74,137.437 490.38,32.271 493.141,32.271 495.78,145.97 
			498.42,145.97 501.061,145.489 503.7,143.806 506.46,143.806 509.1,145.009 511.74,147.772 514.38,147.772 517.021,145.729 
			519.66,145.729 522.42,147.532 525.061,147.532 527.7,147.173 530.34,147.173 532.98,147.173 535.74,147.894 538.38,148.253 
			541.021,148.253 543.66,144.769 546.3,144.048 549.061,144.048 551.7,144.288 554.34,184.069 556.98,184.792 559.62,185.272 
			562.26,185.272 565.021,185.272 567.66,184.911 570.3,184.911 572.94,184.55 575.58,183.71 578.34,182.868 580.98,181.786 
			583.62,181.065 586.26,179.263 588.9,176.979 591.54,132.388 594.3,132.388 596.94,132.388 599.58,176.378 602.22,176.378 
			604.86,176.017 607.62,175.776 610.26,175.417 612.9,175.296 615.54,175.296 618.18,175.776 620.94,176.497 623.58,177.7 
			626.22,178.782 628.86,180.704 631.5,182.388 634.141,183.47 636.9,183.47 639.54,183.47 642.18,142.003 644.82,32.271 
			647.46,32.271 650.22,170.368 652.86,178.421 655.5,178.421 658.141,178.661 660.78,178.661 663.42,178.782 666.18,179.864 
			668.82,181.667 671.46,181.667 674.101,32.271 676.74,32.271 679.5,179.503 682.141,179.503 684.78,178.661 687.42,177.7 
			690.061,176.739 692.82,175.657 695.46,174.575 		"/>
	</g>
	<g>
		<defs>
			<rect id="SVGID_7_" width="707.641" height="216.341"/>
		</defs>
		<clipPath id="SVGID_8_">
			<use xlink:href="#SVGID_7_"  overflow="visible"/>
		</clipPath>
		<g clip-path="url(#SVGID_8_)">
			<text transform="matrix(0.9984 0 0 1 15.6191 192.9346)" fill="#595959" font-family="'Calibri'" font-size="9.0142">0</text>
		</g>
	</g>
	<g>
		<defs>
			<rect id="SVGID_9_" width="707.641" height="216.341"/>
		</defs>
		<clipPath id="SVGID_10_">
			<use xlink:href="#SVGID_9_"  overflow="visible"/>
		</clipPath>
		<g clip-path="url(#SVGID_10_)">
			<text transform="matrix(0.9984 0 0 1 11.0645 172.9971)" fill="#595959" font-family="'Calibri'" font-size="9.0142">50</text>
		</g>
	</g>
	<g>
		<defs>
			<rect id="SVGID_11_" width="707.641" height="216.341"/>
		</defs>
		<clipPath id="SVGID_12_">
			<use xlink:href="#SVGID_11_"  overflow="visible"/>
		</clipPath>
		<g clip-path="url(#SVGID_12_)">
			<text transform="matrix(0.9984 0 0 1 6.5098 153.0674)" fill="#595959" font-family="'Calibri'" font-size="9.0142">100</text>
		</g>
	</g>
	<g>
		<defs>
			<rect id="SVGID_13_" width="707.641" height="216.341"/>
		</defs>
		<clipPath id="SVGID_14_">
			<use xlink:href="#SVGID_13_"  overflow="visible"/>
		</clipPath>
		<g clip-path="url(#SVGID_14_)">
			<text transform="matrix(0.9984 0 0 1 6.5098 133.1377)" fill="#595959" font-family="'Calibri'" font-size="9.0142">150</text>
		</g>
	</g>
	<g>
		<defs>
			<rect id="SVGID_15_" width="707.641" height="216.341"/>
		</defs>
		<clipPath id="SVGID_16_">
			<use xlink:href="#SVGID_15_"  overflow="visible"/>
		</clipPath>
		<g clip-path="url(#SVGID_16_)">
			<text transform="matrix(0.9984 0 0 1 6.5098 113.208)" fill="#595959" font-family="'Calibri'" font-size="9.0142">200</text>
		</g>
	</g>
	<g>
		<defs>
			<rect id="SVGID_17_" width="707.641" height="216.341"/>
		</defs>
		<clipPath id="SVGID_18_">
			<use xlink:href="#SVGID_17_"  overflow="visible"/>
		</clipPath>
		<g clip-path="url(#SVGID_18_)">
			<text transform="matrix(0.9984 0 0 1 6.5098 93.2705)" fill="#595959" font-family="'Calibri'" font-size="9.0142">250</text>
		</g>
	</g>
	<g>
		<defs>
			<rect id="SVGID_19_" width="707.641" height="216.341"/>
		</defs>
		<clipPath id="SVGID_20_">
			<use xlink:href="#SVGID_19_"  overflow="visible"/>
		</clipPath>
		<g clip-path="url(#SVGID_20_)">
			<text transform="matrix(0.9984 0 0 1 6.5098 73.3408)" fill="#595959" font-family="'Calibri'" font-size="9.0142">300</text>
		</g>
	</g>
	<g>
		<defs>
			<rect id="SVGID_21_" width="707.641" height="216.341"/>
		</defs>
		<clipPath id="SVGID_22_">
			<use xlink:href="#SVGID_21_"  overflow="visible"/>
		</clipPath>
		<g clip-path="url(#SVGID_22_)">
			<text transform="matrix(0.9984 0 0 1 6.5098 53.4111)" fill="#595959" font-family="'Calibri'" font-size="9.0142">350</text>
		</g>
	</g>
	<g>
		<defs>
			<rect id="SVGID_23_" width="707.641" height="216.341"/>
		</defs>
		<clipPath id="SVGID_24_">
			<use xlink:href="#SVGID_23_"  overflow="visible"/>
		</clipPath>
		<g clip-path="url(#SVGID_24_)">
			<text transform="matrix(0.9984 0 0 1 6.5098 33.4814)" fill="#595959" font-family="'Calibri'" font-size="9.0142">400</text>
		</g>
	</g>
	<g>
		<defs>
			<rect id="SVGID_25_" width="707.641" height="216.341"/>
		</defs>
		<clipPath id="SVGID_26_">
			<use xlink:href="#SVGID_25_"  overflow="visible"/>
		</clipPath>
		<g clip-path="url(#SVGID_26_)">
			<text transform="matrix(0.9984 0 0 1 6.5098 13.5439)" fill="#595959" font-family="'Calibri'" font-size="9.0142">450</text>
		</g>
	</g>
	<g>
		<defs>
			<rect id="SVGID_27_" width="707.641" height="216.341"/>
		</defs>
		<clipPath id="SVGID_28_">
			<use xlink:href="#SVGID_27_"  overflow="visible"/>
		</clipPath>
		<g clip-path="url(#SVGID_28_)">
			
				<text transform="matrix(1.748456e-007 -1.0016 1 1.751209e-007 32.8911 200.6934)" fill="#595959" font-family="'Calibri'" font-size="9">1</text>
		</g>
	</g>
	<g>
		<defs>
			<rect id="SVGID_29_" width="707.641" height="216.341"/>
		</defs>
		<clipPath id="SVGID_30_">
			<use xlink:href="#SVGID_29_"  overflow="visible"/>
		</clipPath>
		<g clip-path="url(#SVGID_30_)">
			
				<text transform="matrix(1.748456e-007 -1.0016 1 1.751209e-007 46.2036 200.6934)" fill="#595959" font-family="'Calibri'" font-size="9">6</text>
		</g>
	</g>
	<g>
		<defs>
			<rect id="SVGID_31_" width="707.641" height="216.341"/>
		</defs>
		<clipPath id="SVGID_32_">
			<use xlink:href="#SVGID_31_"  overflow="visible"/>
		</clipPath>
		<g clip-path="url(#SVGID_32_)">
			
				<text transform="matrix(1.748456e-007 -1.0016 1 1.751209e-007 59.5083 205.2637)" fill="#595959" font-family="'Calibri'" font-size="9">11</text>
		</g>
	</g>
	<g>
		<defs>
			<rect id="SVGID_33_" width="707.641" height="216.341"/>
		</defs>
		<clipPath id="SVGID_34_">
			<use xlink:href="#SVGID_33_"  overflow="visible"/>
		</clipPath>
		<g clip-path="url(#SVGID_34_)">
			
				<text transform="matrix(1.748456e-007 -1.0016 1 1.751209e-007 72.8208 205.2637)" fill="#595959" font-family="'Calibri'" font-size="9">16</text>
		</g>
	</g>
	<g>
		<defs>
			<rect id="SVGID_35_" width="707.641" height="216.341"/>
		</defs>
		<clipPath id="SVGID_36_">
			<use xlink:href="#SVGID_35_"  overflow="visible"/>
		</clipPath>
		<g clip-path="url(#SVGID_36_)">
			
				<text transform="matrix(1.748456e-007 -1.0016 1 1.751209e-007 86.1333 205.2637)" fill="#595959" font-family="'Calibri'" font-size="9">21</text>
		</g>
	</g>
	<g>
		<defs>
			<rect id="SVGID_37_" width="707.641" height="216.341"/>
		</defs>
		<clipPath id="SVGID_38_">
			<use xlink:href="#SVGID_37_"  overflow="visible"/>
		</clipPath>
		<g clip-path="url(#SVGID_38_)">
			
				<text transform="matrix(1.748456e-007 -1.0016 1 1.751209e-007 99.4458 205.2637)" fill="#595959" font-family="'Calibri'" font-size="9">26</text>
		</g>
	</g>
	<g>
		<defs>
			<rect id="SVGID_39_" width="707.641" height="216.341"/>
		</defs>
		<clipPath id="SVGID_40_">
			<use xlink:href="#SVGID_39_"  overflow="visible"/>
		</clipPath>
		<g clip-path="url(#SVGID_40_)">
			
				<text transform="matrix(1.748456e-007 -1.0016 1 1.751209e-007 112.7583 205.2637)" fill="#595959" font-family="'Calibri'" font-size="9">31</text>
		</g>
	</g>
	<g>
		<defs>
			<rect id="SVGID_41_" width="707.641" height="216.341"/>
		</defs>
		<clipPath id="SVGID_42_">
			<use xlink:href="#SVGID_41_"  overflow="visible"/>
		</clipPath>
		<g clip-path="url(#SVGID_42_)">
			
				<text transform="matrix(1.748456e-007 -1.0016 1 1.751209e-007 126.0708 205.2637)" fill="#595959" font-family="'Calibri'" font-size="9">36</text>
		</g>
	</g>
	<g>
		<defs>
			<rect id="SVGID_43_" width="707.641" height="216.341"/>
		</defs>
		<clipPath id="SVGID_44_">
			<use xlink:href="#SVGID_43_"  overflow="visible"/>
		</clipPath>
		<g clip-path="url(#SVGID_44_)">
			
				<text transform="matrix(1.748456e-007 -1.0016 1 1.751209e-007 139.3833 205.2637)" fill="#595959" font-family="'Calibri'" font-size="9">41</text>
		</g>
	</g>
	<g>
		<defs>
			<rect id="SVGID_45_" width="707.641" height="216.341"/>
		</defs>
		<clipPath id="SVGID_46_">
			<use xlink:href="#SVGID_45_"  overflow="visible"/>
		</clipPath>
		<g clip-path="url(#SVGID_46_)">
			
				<text transform="matrix(1.748456e-007 -1.0016 1 1.751209e-007 152.688 205.2637)" fill="#595959" font-family="'Calibri'" font-size="9">46</text>
		</g>
	</g>
	<g>
		<defs>
			<rect id="SVGID_47_" width="707.641" height="216.341"/>
		</defs>
		<clipPath id="SVGID_48_">
			<use xlink:href="#SVGID_47_"  overflow="visible"/>
		</clipPath>
		<g clip-path="url(#SVGID_48_)">
			
				<text transform="matrix(1.748456e-007 -1.0016 1 1.751209e-007 166.0005 205.2637)" fill="#595959" font-family="'Calibri'" font-size="9">51</text>
		</g>
	</g>
	<g>
		<defs>
			<rect id="SVGID_49_" width="707.641" height="216.341"/>
		</defs>
		<clipPath id="SVGID_50_">
			<use xlink:href="#SVGID_49_"  overflow="visible"/>
		</clipPath>
		<g clip-path="url(#SVGID_50_)">
			
				<text transform="matrix(1.748456e-007 -1.0016 1 1.751209e-007 179.313 205.2637)" fill="#595959" font-family="'Calibri'" font-size="9">56</text>
		</g>
	</g>
	<g>
		<defs>
			<rect id="SVGID_51_" width="707.641" height="216.341"/>
		</defs>
		<clipPath id="SVGID_52_">
			<use xlink:href="#SVGID_51_"  overflow="visible"/>
		</clipPath>
		<g clip-path="url(#SVGID_52_)">
			
				<text transform="matrix(1.748456e-007 -1.0016 1 1.751209e-007 192.6255 205.2637)" fill="#595959" font-family="'Calibri'" font-size="9">61</text>
		</g>
	</g>
	<g>
		<defs>
			<rect id="SVGID_53_" width="707.641" height="216.341"/>
		</defs>
		<clipPath id="SVGID_54_">
			<use xlink:href="#SVGID_53_"  overflow="visible"/>
		</clipPath>
		<g clip-path="url(#SVGID_54_)">
			
				<text transform="matrix(1.748456e-007 -1.0016 1 1.751209e-007 205.938 205.2637)" fill="#595959" font-family="'Calibri'" font-size="9">66</text>
		</g>
	</g>
	<g>
		<defs>
			<rect id="SVGID_55_" width="707.641" height="216.341"/>
		</defs>
		<clipPath id="SVGID_56_">
			<use xlink:href="#SVGID_55_"  overflow="visible"/>
		</clipPath>
		<g clip-path="url(#SVGID_56_)">
			
				<text transform="matrix(1.748456e-007 -1.0016 1 1.751209e-007 219.2505 205.2637)" fill="#595959" font-family="'Calibri'" font-size="9">71</text>
		</g>
	</g>
	<g>
		<defs>
			<rect id="SVGID_57_" width="707.641" height="216.341"/>
		</defs>
		<clipPath id="SVGID_58_">
			<use xlink:href="#SVGID_57_"  overflow="visible"/>
		</clipPath>
		<g clip-path="url(#SVGID_58_)">
			
				<text transform="matrix(1.748456e-007 -1.0016 1 1.751209e-007 232.5552 205.2637)" fill="#595959" font-family="'Calibri'" font-size="9">76</text>
		</g>
	</g>
	<g>
		<defs>
			<rect id="SVGID_59_" width="707.641" height="216.341"/>
		</defs>
		<clipPath id="SVGID_60_">
			<use xlink:href="#SVGID_59_"  overflow="visible"/>
		</clipPath>
		<g clip-path="url(#SVGID_60_)">
			
				<text transform="matrix(1.748456e-007 -1.0016 1 1.751209e-007 245.8677 205.2637)" fill="#595959" font-family="'Calibri'" font-size="9">81</text>
		</g>
	</g>
	<g>
		<defs>
			<rect id="SVGID_61_" width="707.641" height="216.341"/>
		</defs>
		<clipPath id="SVGID_62_">
			<use xlink:href="#SVGID_61_"  overflow="visible"/>
		</clipPath>
		<g clip-path="url(#SVGID_62_)">
			
				<text transform="matrix(1.748456e-007 -1.0016 1 1.751209e-007 259.1802 205.2637)" fill="#595959" font-family="'Calibri'" font-size="9">86</text>
		</g>
	</g>
	<g>
		<defs>
			<rect id="SVGID_63_" width="707.641" height="216.341"/>
		</defs>
		<clipPath id="SVGID_64_">
			<use xlink:href="#SVGID_63_"  overflow="visible"/>
		</clipPath>
		<g clip-path="url(#SVGID_64_)">
			
				<text transform="matrix(1.748456e-007 -1.0016 1 1.751209e-007 272.4927 205.2637)" fill="#595959" font-family="'Calibri'" font-size="9">91</text>
		</g>
	</g>
	<g>
		<defs>
			<rect id="SVGID_65_" width="707.641" height="216.341"/>
		</defs>
		<clipPath id="SVGID_66_">
			<use xlink:href="#SVGID_65_"  overflow="visible"/>
		</clipPath>
		<g clip-path="url(#SVGID_66_)">
			
				<text transform="matrix(1.748456e-007 -1.0016 1 1.751209e-007 285.7974 205.2637)" fill="#595959" font-family="'Calibri'" font-size="9">96</text>
		</g>
	</g>
	<g>
		<defs>
			<rect id="SVGID_67_" width="707.641" height="216.341"/>
		</defs>
		<clipPath id="SVGID_68_">
			<use xlink:href="#SVGID_67_"  overflow="visible"/>
		</clipPath>
		<g clip-path="url(#SVGID_68_)">
			
				<text transform="matrix(1.748456e-007 -1.0016 1 1.751209e-007 299.1177 209.834)" fill="#595959" font-family="'Calibri'" font-size="9">101</text>
		</g>
	</g>
	<g>
		<defs>
			<rect id="SVGID_69_" width="707.641" height="216.341"/>
		</defs>
		<clipPath id="SVGID_70_">
			<use xlink:href="#SVGID_69_"  overflow="visible"/>
		</clipPath>
		<g clip-path="url(#SVGID_70_)">
			
				<text transform="matrix(1.748456e-007 -1.0016 1 1.751209e-007 312.4302 209.834)" fill="#595959" font-family="'Calibri'" font-size="9">106</text>
		</g>
	</g>
	<g>
		<defs>
			<rect id="SVGID_71_" width="707.641" height="216.341"/>
		</defs>
		<clipPath id="SVGID_72_">
			<use xlink:href="#SVGID_71_"  overflow="visible"/>
		</clipPath>
		<g clip-path="url(#SVGID_72_)">
			
				<text transform="matrix(1.748456e-007 -1.0016 1 1.751209e-007 325.7349 209.834)" fill="#595959" font-family="'Calibri'" font-size="9">111</text>
		</g>
	</g>
	<g>
		<defs>
			<rect id="SVGID_73_" width="707.641" height="216.341"/>
		</defs>
		<clipPath id="SVGID_74_">
			<use xlink:href="#SVGID_73_"  overflow="visible"/>
		</clipPath>
		<g clip-path="url(#SVGID_74_)">
			
				<text transform="matrix(1.748456e-007 -1.0016 1 1.751209e-007 339.0474 209.834)" fill="#595959" font-family="'Calibri'" font-size="9">116</text>
		</g>
	</g>
	<g>
		<defs>
			<rect id="SVGID_75_" width="707.641" height="216.341"/>
		</defs>
		<clipPath id="SVGID_76_">
			<use xlink:href="#SVGID_75_"  overflow="visible"/>
		</clipPath>
		<g clip-path="url(#SVGID_76_)">
			
				<text transform="matrix(1.748456e-007 -1.0016 1 1.751209e-007 352.3599 209.834)" fill="#595959" font-family="'Calibri'" font-size="9">121</text>
		</g>
	</g>
	<g>
		<defs>
			<rect id="SVGID_77_" width="707.641" height="216.341"/>
		</defs>
		<clipPath id="SVGID_78_">
			<use xlink:href="#SVGID_77_"  overflow="visible"/>
		</clipPath>
		<g clip-path="url(#SVGID_78_)">
			
				<text transform="matrix(1.748456e-007 -1.0016 1 1.751209e-007 365.6729 209.834)" fill="#595959" font-family="'Calibri'" font-size="9">126</text>
		</g>
	</g>
	<g>
		<defs>
			<rect id="SVGID_79_" width="707.641" height="216.341"/>
		</defs>
		<clipPath id="SVGID_80_">
			<use xlink:href="#SVGID_79_"  overflow="visible"/>
		</clipPath>
		<g clip-path="url(#SVGID_80_)">
			
				<text transform="matrix(1.748456e-007 -1.0016 1 1.751209e-007 378.9775 209.834)" fill="#595959" font-family="'Calibri'" font-size="9">131</text>
		</g>
	</g>
	<g>
		<defs>
			<rect id="SVGID_81_" width="707.641" height="216.341"/>
		</defs>
		<clipPath id="SVGID_82_">
			<use xlink:href="#SVGID_81_"  overflow="visible"/>
		</clipPath>
		<g clip-path="url(#SVGID_82_)">
			
				<text transform="matrix(1.748456e-007 -1.0016 1 1.751209e-007 392.2979 209.834)" fill="#595959" font-family="'Calibri'" font-size="9">136</text>
		</g>
	</g>
	<g>
		<defs>
			<rect id="SVGID_83_" width="707.641" height="216.341"/>
		</defs>
		<clipPath id="SVGID_84_">
			<use xlink:href="#SVGID_83_"  overflow="visible"/>
		</clipPath>
		<g clip-path="url(#SVGID_84_)">
			
				<text transform="matrix(1.748456e-007 -1.0016 1 1.751209e-007 405.6025 209.834)" fill="#595959" font-family="'Calibri'" font-size="9">141</text>
		</g>
	</g>
	<g>
		<defs>
			<rect id="SVGID_85_" width="707.641" height="216.341"/>
		</defs>
		<clipPath id="SVGID_86_">
			<use xlink:href="#SVGID_85_"  overflow="visible"/>
		</clipPath>
		<g clip-path="url(#SVGID_86_)">
			
				<text transform="matrix(1.748456e-007 -1.0016 1 1.751209e-007 418.915 209.834)" fill="#595959" font-family="'Calibri'" font-size="9">146</text>
		</g>
	</g>
	<g>
		<defs>
			<rect id="SVGID_87_" width="707.641" height="216.341"/>
		</defs>
		<clipPath id="SVGID_88_">
			<use xlink:href="#SVGID_87_"  overflow="visible"/>
		</clipPath>
		<g clip-path="url(#SVGID_88_)">
			
				<text transform="matrix(1.748456e-007 -1.0016 1 1.751209e-007 432.2275 209.834)" fill="#595959" font-family="'Calibri'" font-size="9">151</text>
		</g>
	</g>
	<g>
		<defs>
			<rect id="SVGID_89_" width="707.641" height="216.341"/>
		</defs>
		<clipPath id="SVGID_90_">
			<use xlink:href="#SVGID_89_"  overflow="visible"/>
		</clipPath>
		<g clip-path="url(#SVGID_90_)">
			
				<text transform="matrix(1.748456e-007 -1.0016 1 1.751209e-007 445.54 209.834)" fill="#595959" font-family="'Calibri'" font-size="9">156</text>
		</g>
	</g>
	<g>
		<defs>
			<rect id="SVGID_91_" width="707.641" height="216.341"/>
		</defs>
		<clipPath id="SVGID_92_">
			<use xlink:href="#SVGID_91_"  overflow="visible"/>
		</clipPath>
		<g clip-path="url(#SVGID_92_)">
			
				<text transform="matrix(1.748456e-007 -1.0016 1 1.751209e-007 458.8447 209.834)" fill="#595959" font-family="'Calibri'" font-size="9">161</text>
		</g>
	</g>
	<g>
		<defs>
			<rect id="SVGID_93_" width="707.641" height="216.341"/>
		</defs>
		<clipPath id="SVGID_94_">
			<use xlink:href="#SVGID_93_"  overflow="visible"/>
		</clipPath>
		<g clip-path="url(#SVGID_94_)">
			
				<text transform="matrix(1.748456e-007 -1.0016 1 1.751209e-007 472.1572 209.834)" fill="#595959" font-family="'Calibri'" font-size="9">166</text>
		</g>
	</g>
	<g>
		<defs>
			<rect id="SVGID_95_" width="707.641" height="216.341"/>
		</defs>
		<clipPath id="SVGID_96_">
			<use xlink:href="#SVGID_95_"  overflow="visible"/>
		</clipPath>
		<g clip-path="url(#SVGID_96_)">
			
				<text transform="matrix(1.748456e-007 -1.0016 1 1.751209e-007 485.4697 209.834)" fill="#595959" font-family="'Calibri'" font-size="9">171</text>
		</g>
	</g>
	<g>
		<defs>
			<rect id="SVGID_97_" width="707.641" height="216.341"/>
		</defs>
		<clipPath id="SVGID_98_">
			<use xlink:href="#SVGID_97_"  overflow="visible"/>
		</clipPath>
		<g clip-path="url(#SVGID_98_)">
			
				<text transform="matrix(1.748456e-007 -1.0016 1 1.751209e-007 498.7822 209.834)" fill="#595959" font-family="'Calibri'" font-size="9">176</text>
		</g>
	</g>
	<g>
		<defs>
			<rect id="SVGID_99_" width="707.641" height="216.341"/>
		</defs>
		<clipPath id="SVGID_100_">
			<use xlink:href="#SVGID_99_"  overflow="visible"/>
		</clipPath>
		<g clip-path="url(#SVGID_100_)">
			
				<text transform="matrix(1.748456e-007 -1.0016 1 1.751209e-007 512.0947 209.834)" fill="#595959" font-family="'Calibri'" font-size="9">181</text>
		</g>
	</g>
	<g>
		<defs>
			<rect id="SVGID_101_" width="707.641" height="216.341"/>
		</defs>
		<clipPath id="SVGID_102_">
			<use xlink:href="#SVGID_101_"  overflow="visible"/>
		</clipPath>
		<g clip-path="url(#SVGID_102_)">
			
				<text transform="matrix(1.748456e-007 -1.0016 1 1.751209e-007 525.4072 209.834)" fill="#595959" font-family="'Calibri'" font-size="9">186</text>
		</g>
	</g>
	<g>
		<defs>
			<rect id="SVGID_103_" width="707.641" height="216.341"/>
		</defs>
		<clipPath id="SVGID_104_">
			<use xlink:href="#SVGID_103_"  overflow="visible"/>
		</clipPath>
		<g clip-path="url(#SVGID_104_)">
			
				<text transform="matrix(1.748456e-007 -1.0016 1 1.751209e-007 538.7197 209.835)" fill="#595959" font-family="'Calibri'" font-size="9">191</text>
		</g>
	</g>
	<g>
		<defs>
			<rect id="SVGID_105_" width="707.641" height="216.341"/>
		</defs>
		<clipPath id="SVGID_106_">
			<use xlink:href="#SVGID_105_"  overflow="visible"/>
		</clipPath>
		<g clip-path="url(#SVGID_106_)">
			
				<text transform="matrix(1.748456e-007 -1.0016 1 1.751209e-007 552.0244 209.835)" fill="#595959" font-family="'Calibri'" font-size="9">196</text>
		</g>
	</g>
	<g>
		<defs>
			<rect id="SVGID_107_" width="707.641" height="216.341"/>
		</defs>
		<clipPath id="SVGID_108_">
			<use xlink:href="#SVGID_107_"  overflow="visible"/>
		</clipPath>
		<g clip-path="url(#SVGID_108_)">
			
				<text transform="matrix(1.748456e-007 -1.0016 1 1.751209e-007 565.3369 209.835)" fill="#595959" font-family="'Calibri'" font-size="9">201</text>
		</g>
	</g>
	<g>
		<defs>
			<rect id="SVGID_109_" width="707.641" height="216.341"/>
		</defs>
		<clipPath id="SVGID_110_">
			<use xlink:href="#SVGID_109_"  overflow="visible"/>
		</clipPath>
		<g clip-path="url(#SVGID_110_)">
			
				<text transform="matrix(1.748456e-007 -1.0016 1 1.751209e-007 578.6494 209.835)" fill="#595959" font-family="'Calibri'" font-size="9">206</text>
		</g>
	</g>
	<g>
		<defs>
			<rect id="SVGID_111_" width="707.641" height="216.341"/>
		</defs>
		<clipPath id="SVGID_112_">
			<use xlink:href="#SVGID_111_"  overflow="visible"/>
		</clipPath>
		<g clip-path="url(#SVGID_112_)">
			
				<text transform="matrix(1.748456e-007 -1.0016 1 1.751209e-007 591.9619 209.835)" fill="#595959" font-family="'Calibri'" font-size="9">211</text>
		</g>
	</g>
	<g>
		<defs>
			<rect id="SVGID_113_" width="707.641" height="216.341"/>
		</defs>
		<clipPath id="SVGID_114_">
			<use xlink:href="#SVGID_113_"  overflow="visible"/>
		</clipPath>
		<g clip-path="url(#SVGID_114_)">
			
				<text transform="matrix(1.748456e-007 -1.0016 1 1.751209e-007 605.2744 209.835)" fill="#595959" font-family="'Calibri'" font-size="9">216</text>
		</g>
	</g>
	<g>
		<defs>
			<rect id="SVGID_115_" width="707.641" height="216.341"/>
		</defs>
		<clipPath id="SVGID_116_">
			<use xlink:href="#SVGID_115_"  overflow="visible"/>
		</clipPath>
		<g clip-path="url(#SVGID_116_)">
			
				<text transform="matrix(1.748456e-007 -1.0016 1 1.751209e-007 618.5869 209.835)" fill="#595959" font-family="'Calibri'" font-size="9">221</text>
		</g>
	</g>
	<g>
		<defs>
			<rect id="SVGID_117_" width="707.641" height="216.341"/>
		</defs>
		<clipPath id="SVGID_118_">
			<use xlink:href="#SVGID_117_"  overflow="visible"/>
		</clipPath>
		<g clip-path="url(#SVGID_118_)">
			
				<text transform="matrix(1.748456e-007 -1.0016 1 1.751209e-007 631.8916 209.835)" fill="#595959" font-family="'Calibri'" font-size="9">226</text>
		</g>
	</g>
	<g>
		<defs>
			<rect id="SVGID_119_" width="707.641" height="216.341"/>
		</defs>
		<clipPath id="SVGID_120_">
			<use xlink:href="#SVGID_119_"  overflow="visible"/>
		</clipPath>
		<g clip-path="url(#SVGID_120_)">
			
				<text transform="matrix(1.748456e-007 -1.0016 1 1.751209e-007 645.2041 209.835)" fill="#595959" font-family="'Calibri'" font-size="9">231</text>
		</g>
	</g>
	<g>
		<defs>
			<rect id="SVGID_121_" width="707.641" height="216.341"/>
		</defs>
		<clipPath id="SVGID_122_">
			<use xlink:href="#SVGID_121_"  overflow="visible"/>
		</clipPath>
		<g clip-path="url(#SVGID_122_)">
			
				<text transform="matrix(1.748456e-007 -1.0016 1 1.751209e-007 658.5166 209.835)" fill="#595959" font-family="'Calibri'" font-size="9">236</text>
		</g>
	</g>
	<g>
		<defs>
			<rect id="SVGID_123_" width="707.641" height="216.341"/>
		</defs>
		<clipPath id="SVGID_124_">
			<use xlink:href="#SVGID_123_"  overflow="visible"/>
		</clipPath>
		<g clip-path="url(#SVGID_124_)">
			
				<text transform="matrix(1.748456e-007 -1.0016 1 1.751209e-007 671.8291 209.835)" fill="#595959" font-family="'Calibri'" font-size="9">241</text>
		</g>
	</g>
	<g>
		<defs>
			<rect id="SVGID_125_" width="707.641" height="216.341"/>
		</defs>
		<clipPath id="SVGID_126_">
			<use xlink:href="#SVGID_125_"  overflow="visible"/>
		</clipPath>
		<g clip-path="url(#SVGID_126_)">
			
				<text transform="matrix(1.748456e-007 -1.0016 1 1.751209e-007 685.1416 209.835)" fill="#595959" font-family="'Calibri'" font-size="9">246</text>
		</g>
	</g>
	<g>
		<defs>
			<rect id="SVGID_127_" width="707.641" height="216.341"/>
		</defs>
		<clipPath id="SVGID_128_">
			<use xlink:href="#SVGID_127_"  overflow="visible"/>
		</clipPath>
		<g clip-path="url(#SVGID_128_)">
			
				<text transform="matrix(1.748456e-007 -1.0016 1 1.751209e-007 698.4541 209.835)" fill="#595959" font-family="'Calibri'" font-size="9">251</text>
		</g>
	</g>
</g>
</svg>
