<?xml version="1.0" encoding="utf-8"?>
<!-- Generator: Adobe Illustrator 16.0.0, SVG Export Plug-In . SVG Version: 6.00 Build 0)  -->
<!DOCTYPE svg PUBLIC "-//W3C//DTD SVG 1.0//EN" "http://www.w3.org/TR/2001/REC-SVG-20010904/DTD/svg10.dtd">
<svg version="1.0" id="Layer_1" xmlns="http://www.w3.org/2000/svg" xmlns:xlink="http://www.w3.org/1999/xlink" x="0px" y="0px"
	 width="707.88px" height="216.341px" viewBox="0 0 707.88 216.341" enable-background="new 0 0 707.88 216.341"
	 xml:space="preserve">
<g>
	<g>
		<defs>
			<polygon id="SVGID_1_" points="0,216.341 707.88,216.341 707.88,0 0,0 0,216.341 			"/>
		</defs>
		<clipPath id="SVGID_2_">
			<use xlink:href="#SVGID_1_"  overflow="visible"/>
		</clipPath>
		
			<path clip-path="url(#SVGID_2_)" fill="none" stroke="#D9D9D9" stroke-width="0.7211" stroke-linejoin="round" stroke-miterlimit="10" d="
			M28.56,170.429h668.4 M28.56,150.597h668.4 M28.56,130.646h668.4 M28.56,110.694h668.4 M28.56,90.743h668.4 M28.56,70.792h668.4
			 M28.56,50.84h668.4 M28.56,31.009h668.4 M28.56,11.058h668.4"/>
	</g>
	<g>
		<defs>
			<polygon id="SVGID_3_" points="0,216.341 707.88,216.341 707.88,0 0,0 0,216.341 			"/>
		</defs>
		<clipPath id="SVGID_4_">
			<use xlink:href="#SVGID_3_"  overflow="visible"/>
		</clipPath>
		
			<line clip-path="url(#SVGID_4_)" fill="none" stroke="#D9D9D9" stroke-width="0.7211" stroke-linejoin="round" stroke-miterlimit="10" x1="28.56" y1="190.38" x2="696.96" y2="190.38"/>
	</g>
	<g>
		<defs>
			<polygon id="SVGID_5_" points="28.56,191.101 697.561,191.101 697.561,10.938 28.56,10.938 28.56,191.101 			"/>
		</defs>
		<clipPath id="SVGID_6_">
			<use xlink:href="#SVGID_5_"  overflow="visible"/>
		</clipPath>
		
			<polyline clip-path="url(#SVGID_6_)" fill="none" stroke="#5B9BD5" stroke-width="2.2836" stroke-linecap="round" stroke-linejoin="round" stroke-miterlimit="10" points="
			29.94,149.095 32.58,150.296 35.22,151.499 37.86,153.542 40.62,154.983 43.26,156.306 45.9,157.509 48.54,159.19 51.18,32.271 
			53.94,160.993 56.58,161.114 59.22,121.812 61.86,128.782 64.5,163.638 67.26,163.999 69.9,32.271 72.54,146.45 75.18,32.271 
			77.82,166.401 80.58,165.681 83.22,32.271 85.86,32.271 88.5,32.271 91.14,167.724 93.78,169.167 96.54,168.927 99.18,32.271 
			101.82,32.271 104.46,32.271 107.1,32.271 109.86,32.271 112.5,32.271 115.14,32.271 117.78,32.271 120.42,32.271 123.18,45.612 
			125.82,60.516 128.46,44.29 131.1,45.853 133.74,32.271 136.38,45.492 139.14,45.372 141.78,45.131 144.42,32.271 147.06,45.492 
			149.7,32.271 152.46,45.492 155.1,46.093 157.74,48.977 160.38,45.973 163.021,49.338 165.78,45.492 168.42,49.818 171.06,45.372 
			173.7,32.271 176.34,32.271 179.1,32.271 181.74,32.271 184.38,32.271 187.021,58.712 189.66,32.271 192.3,32.271 195.06,137.196 
			197.7,139.12 200.34,138.759 202.98,141.644 205.62,32.271 208.38,142.245 211.021,183.589 213.66,139.479 216.3,183.229 
			218.94,182.987 221.7,183.108 224.34,182.987 226.98,183.47 229.62,184.069 232.26,184.31 234.9,184.431 237.66,184.55 
			240.3,184.431 242.94,184.431 245.58,184.671 248.22,184.55 250.98,184.55 253.62,184.431 256.26,184.431 258.9,184.069 
			261.54,183.829 264.3,138.878 266.94,138.157 269.58,139.841 272.22,145.249 274.86,32.271 277.5,144.769 280.26,32.271 
			282.9,146.21 285.54,148.614 288.18,141.403 290.82,148.854 293.58,142.726 296.22,146.45 298.86,141.403 301.5,185.032 
			304.14,184.911 306.9,185.272 309.54,185.272 312.18,185.513 314.82,185.993 317.46,186.112 320.22,186.595 322.86,186.835 
			325.5,187.075 328.14,186.954 330.78,186.714 333.42,186.595 336.18,186.954 338.82,186.714 341.46,95.731 344.1,95.61 
			346.74,32.271 349.5,95.37 352.14,95.851 354.78,96.452 357.42,96.211 360.061,96.091 362.82,95.731 365.46,95.61 368.101,95.25 
			370.74,95.851 373.38,95.971 376.021,95.731 378.78,96.091 381.42,96.211 384.061,187.194 386.7,186.954 389.34,187.556 
			392.101,187.315 394.74,187.194 397.38,186.835 400.021,186.714 402.66,186.595 405.42,186.233 408.061,185.872 410.7,185.513 
			413.34,184.792 415.98,183.95 418.74,183.229 421.38,183.108 424.021,183.349 426.66,183.589 429.3,184.069 431.94,183.829 
			434.7,183.47 437.34,183.47 439.98,146.571 442.62,182.987 445.261,183.829 448.021,184.792 450.66,186.233 453.3,187.315 
			455.94,187.675 458.58,186.954 461.34,146.091 463.98,146.571 466.62,134.192 469.261,142.485 471.9,138.278 474.54,146.331 
			477.3,142.245 479.94,144.288 482.58,140.081 485.22,137.437 487.86,32.271 490.62,32.271 493.261,145.97 495.9,146.69 
			498.54,145.489 501.181,143.806 503.94,32.271 506.58,145.009 509.22,148.614 511.86,147.772 514.5,145.729 517.141,143.806 
			519.9,148.134 522.54,147.532 525.181,145.61 527.82,147.173 530.46,147.894 533.22,145.128 535.86,148.253 538.5,148.733 
			541.141,144.769 543.78,143.446 546.54,144.048 549.181,144.288 551.82,184.069 554.46,184.792 557.101,185.272 559.86,185.513 
			562.5,185.272 565.141,184.911 567.78,184.911 570.42,184.55 573.061,183.71 575.82,182.868 578.46,181.786 581.101,181.065 
			583.74,179.263 586.38,32.271 589.141,176.979 591.78,132.388 594.42,131.067 597.061,176.378 599.7,176.378 602.46,176.017 
			605.101,175.776 607.74,175.417 610.38,175.056 613.021,175.296 615.66,175.776 618.42,176.497 621.061,177.7 623.7,178.782 
			626.34,180.704 628.98,182.388 631.74,183.47 634.38,183.47 637.021,142.003 639.66,184.069 642.3,32.271 645.061,32.271 
			647.7,180.825 650.34,170.368 652.98,178.421 655.62,178.661 658.38,178.661 661.021,178.782 663.66,179.864 666.3,181.667 
			668.94,182.868 671.58,32.271 674.34,32.271 676.98,180.104 679.62,179.503 682.261,178.661 684.9,177.7 687.66,176.739 
			690.3,175.657 692.94,174.575 695.58,173.253 		"/>
	</g>
	<g>
		<defs>
			<rect id="SVGID_7_" width="707.88" height="216.341"/>
		</defs>
		<clipPath id="SVGID_8_">
			<use xlink:href="#SVGID_7_"  overflow="visible"/>
		</clipPath>
		<g clip-path="url(#SVGID_8_)">
			<text transform="matrix(0.9984 0 0 1 15.6924 192.9346)" fill="#595959" font-family="'Calibri'" font-size="9.0142">0</text>
		</g>
	</g>
	<g>
		<defs>
			<rect id="SVGID_9_" width="707.88" height="216.341"/>
		</defs>
		<clipPath id="SVGID_10_">
			<use xlink:href="#SVGID_9_"  overflow="visible"/>
		</clipPath>
		<g clip-path="url(#SVGID_10_)">
			<text transform="matrix(0.9984 0 0 1 11.1299 172.9971)" fill="#595959" font-family="'Calibri'" font-size="9.0142">50</text>
		</g>
	</g>
	<g>
		<defs>
			<rect id="SVGID_11_" width="707.88" height="216.341"/>
		</defs>
		<clipPath id="SVGID_12_">
			<use xlink:href="#SVGID_11_"  overflow="visible"/>
		</clipPath>
		<g clip-path="url(#SVGID_12_)">
			<text transform="matrix(0.9984 0 0 1 6.5752 153.0674)" fill="#595959" font-family="'Calibri'" font-size="9.0142">100</text>
		</g>
	</g>
	<g>
		<defs>
			<rect id="SVGID_13_" width="707.88" height="216.341"/>
		</defs>
		<clipPath id="SVGID_14_">
			<use xlink:href="#SVGID_13_"  overflow="visible"/>
		</clipPath>
		<g clip-path="url(#SVGID_14_)">
			<text transform="matrix(0.9984 0 0 1 6.5752 133.1377)" fill="#595959" font-family="'Calibri'" font-size="9.0142">150</text>
		</g>
	</g>
	<g>
		<defs>
			<rect id="SVGID_15_" width="707.88" height="216.341"/>
		</defs>
		<clipPath id="SVGID_16_">
			<use xlink:href="#SVGID_15_"  overflow="visible"/>
		</clipPath>
		<g clip-path="url(#SVGID_16_)">
			<text transform="matrix(0.9984 0 0 1 6.5752 113.208)" fill="#595959" font-family="'Calibri'" font-size="9.0142">200</text>
		</g>
	</g>
	<g>
		<defs>
			<rect id="SVGID_17_" width="707.88" height="216.341"/>
		</defs>
		<clipPath id="SVGID_18_">
			<use xlink:href="#SVGID_17_"  overflow="visible"/>
		</clipPath>
		<g clip-path="url(#SVGID_18_)">
			<text transform="matrix(0.9984 0 0 1 6.5752 93.2705)" fill="#595959" font-family="'Calibri'" font-size="9.0142">250</text>
		</g>
	</g>
	<g>
		<defs>
			<rect id="SVGID_19_" width="707.88" height="216.341"/>
		</defs>
		<clipPath id="SVGID_20_">
			<use xlink:href="#SVGID_19_"  overflow="visible"/>
		</clipPath>
		<g clip-path="url(#SVGID_20_)">
			<text transform="matrix(0.9984 0 0 1 6.5752 73.3408)" fill="#595959" font-family="'Calibri'" font-size="9.0142">300</text>
		</g>
	</g>
	<g>
		<defs>
			<rect id="SVGID_21_" width="707.88" height="216.341"/>
		</defs>
		<clipPath id="SVGID_22_">
			<use xlink:href="#SVGID_21_"  overflow="visible"/>
		</clipPath>
		<g clip-path="url(#SVGID_22_)">
			<text transform="matrix(0.9984 0 0 1 6.5752 53.4111)" fill="#595959" font-family="'Calibri'" font-size="9.0142">350</text>
		</g>
	</g>
	<g>
		<defs>
			<rect id="SVGID_23_" width="707.88" height="216.341"/>
		</defs>
		<clipPath id="SVGID_24_">
			<use xlink:href="#SVGID_23_"  overflow="visible"/>
		</clipPath>
		<g clip-path="url(#SVGID_24_)">
			<text transform="matrix(0.9984 0 0 1 6.5752 33.4814)" fill="#595959" font-family="'Calibri'" font-size="9.0142">400</text>
		</g>
	</g>
	<g>
		<defs>
			<rect id="SVGID_25_" width="707.88" height="216.341"/>
		</defs>
		<clipPath id="SVGID_26_">
			<use xlink:href="#SVGID_25_"  overflow="visible"/>
		</clipPath>
		<g clip-path="url(#SVGID_26_)">
			<text transform="matrix(0.9984 0 0 1 6.5752 13.5439)" fill="#595959" font-family="'Calibri'" font-size="9.0142">450</text>
		</g>
	</g>
	<g>
		<defs>
			<rect id="SVGID_27_" width="707.88" height="216.341"/>
		</defs>
		<clipPath id="SVGID_28_">
			<use xlink:href="#SVGID_27_"  overflow="visible"/>
		</clipPath>
		<g clip-path="url(#SVGID_28_)">
			
				<text transform="matrix(1.748456e-007 -1.0016 1 1.751209e-007 32.9565 200.6934)" fill="#595959" font-family="'Calibri'" font-size="9">1</text>
		</g>
	</g>
	<g>
		<defs>
			<rect id="SVGID_29_" width="707.88" height="216.341"/>
		</defs>
		<clipPath id="SVGID_30_">
			<use xlink:href="#SVGID_29_"  overflow="visible"/>
		</clipPath>
		<g clip-path="url(#SVGID_30_)">
			
				<text transform="matrix(1.748456e-007 -1.0016 1 1.751209e-007 46.269 200.6934)" fill="#595959" font-family="'Calibri'" font-size="9">6</text>
		</g>
	</g>
	<g>
		<defs>
			<rect id="SVGID_31_" width="707.88" height="216.341"/>
		</defs>
		<clipPath id="SVGID_32_">
			<use xlink:href="#SVGID_31_"  overflow="visible"/>
		</clipPath>
		<g clip-path="url(#SVGID_32_)">
			
				<text transform="matrix(1.748456e-007 -1.0016 1 1.751209e-007 59.5815 205.2637)" fill="#595959" font-family="'Calibri'" font-size="9">11</text>
		</g>
	</g>
	<g>
		<defs>
			<rect id="SVGID_33_" width="707.88" height="216.341"/>
		</defs>
		<clipPath id="SVGID_34_">
			<use xlink:href="#SVGID_33_"  overflow="visible"/>
		</clipPath>
		<g clip-path="url(#SVGID_34_)">
			
				<text transform="matrix(1.748456e-007 -1.0016 1 1.751209e-007 72.9019 205.2637)" fill="#595959" font-family="'Calibri'" font-size="9">16</text>
		</g>
	</g>
	<g>
		<defs>
			<rect id="SVGID_35_" width="707.88" height="216.341"/>
		</defs>
		<clipPath id="SVGID_36_">
			<use xlink:href="#SVGID_35_"  overflow="visible"/>
		</clipPath>
		<g clip-path="url(#SVGID_36_)">
			
				<text transform="matrix(1.748456e-007 -1.0016 1 1.751209e-007 86.2065 205.2637)" fill="#595959" font-family="'Calibri'" font-size="9">21</text>
		</g>
	</g>
	<g>
		<defs>
			<rect id="SVGID_37_" width="707.88" height="216.341"/>
		</defs>
		<clipPath id="SVGID_38_">
			<use xlink:href="#SVGID_37_"  overflow="visible"/>
		</clipPath>
		<g clip-path="url(#SVGID_38_)">
			
				<text transform="matrix(1.748456e-007 -1.0016 1 1.751209e-007 99.5269 205.2637)" fill="#595959" font-family="'Calibri'" font-size="9">26</text>
		</g>
	</g>
	<g>
		<defs>
			<rect id="SVGID_39_" width="707.88" height="216.341"/>
		</defs>
		<clipPath id="SVGID_40_">
			<use xlink:href="#SVGID_39_"  overflow="visible"/>
		</clipPath>
		<g clip-path="url(#SVGID_40_)">
			
				<text transform="matrix(1.748456e-007 -1.0016 1 1.751209e-007 112.8315 205.2637)" fill="#595959" font-family="'Calibri'" font-size="9">31</text>
		</g>
	</g>
	<g>
		<defs>
			<rect id="SVGID_41_" width="707.88" height="216.341"/>
		</defs>
		<clipPath id="SVGID_42_">
			<use xlink:href="#SVGID_41_"  overflow="visible"/>
		</clipPath>
		<g clip-path="url(#SVGID_42_)">
			
				<text transform="matrix(1.748456e-007 -1.0016 1 1.751209e-007 126.1519 205.2637)" fill="#595959" font-family="'Calibri'" font-size="9">36</text>
		</g>
	</g>
	<g>
		<defs>
			<rect id="SVGID_43_" width="707.88" height="216.341"/>
		</defs>
		<clipPath id="SVGID_44_">
			<use xlink:href="#SVGID_43_"  overflow="visible"/>
		</clipPath>
		<g clip-path="url(#SVGID_44_)">
			
				<text transform="matrix(1.748456e-007 -1.0016 1 1.751209e-007 139.4644 205.2637)" fill="#595959" font-family="'Calibri'" font-size="9">41</text>
		</g>
	</g>
	<g>
		<defs>
			<rect id="SVGID_45_" width="707.88" height="216.341"/>
		</defs>
		<clipPath id="SVGID_46_">
			<use xlink:href="#SVGID_45_"  overflow="visible"/>
		</clipPath>
		<g clip-path="url(#SVGID_46_)">
			
				<text transform="matrix(1.748456e-007 -1.0016 1 1.751209e-007 152.7769 205.2637)" fill="#595959" font-family="'Calibri'" font-size="9">46</text>
		</g>
	</g>
	<g>
		<defs>
			<rect id="SVGID_47_" width="707.88" height="216.341"/>
		</defs>
		<clipPath id="SVGID_48_">
			<use xlink:href="#SVGID_47_"  overflow="visible"/>
		</clipPath>
		<g clip-path="url(#SVGID_48_)">
			
				<text transform="matrix(1.748456e-007 -1.0016 1 1.751209e-007 166.0894 205.2637)" fill="#595959" font-family="'Calibri'" font-size="9">51</text>
		</g>
	</g>
	<g>
		<defs>
			<rect id="SVGID_49_" width="707.88" height="216.341"/>
		</defs>
		<clipPath id="SVGID_50_">
			<use xlink:href="#SVGID_49_"  overflow="visible"/>
		</clipPath>
		<g clip-path="url(#SVGID_50_)">
			
				<text transform="matrix(1.748456e-007 -1.0016 1 1.751209e-007 179.4019 205.2637)" fill="#595959" font-family="'Calibri'" font-size="9">56</text>
		</g>
	</g>
	<g>
		<defs>
			<rect id="SVGID_51_" width="707.88" height="216.341"/>
		</defs>
		<clipPath id="SVGID_52_">
			<use xlink:href="#SVGID_51_"  overflow="visible"/>
		</clipPath>
		<g clip-path="url(#SVGID_52_)">
			
				<text transform="matrix(1.748456e-007 -1.0016 1 1.751209e-007 192.7144 205.2637)" fill="#595959" font-family="'Calibri'" font-size="9">61</text>
		</g>
	</g>
	<g>
		<defs>
			<rect id="SVGID_53_" width="707.88" height="216.341"/>
		</defs>
		<clipPath id="SVGID_54_">
			<use xlink:href="#SVGID_53_"  overflow="visible"/>
		</clipPath>
		<g clip-path="url(#SVGID_54_)">
			
				<text transform="matrix(1.748456e-007 -1.0016 1 1.751209e-007 206.0269 205.2637)" fill="#595959" font-family="'Calibri'" font-size="9">66</text>
		</g>
	</g>
	<g>
		<defs>
			<rect id="SVGID_55_" width="707.88" height="216.341"/>
		</defs>
		<clipPath id="SVGID_56_">
			<use xlink:href="#SVGID_55_"  overflow="visible"/>
		</clipPath>
		<g clip-path="url(#SVGID_56_)">
			
				<text transform="matrix(1.748456e-007 -1.0016 1 1.751209e-007 219.3472 205.2637)" fill="#595959" font-family="'Calibri'" font-size="9">71</text>
		</g>
	</g>
	<g>
		<defs>
			<rect id="SVGID_57_" width="707.88" height="216.341"/>
		</defs>
		<clipPath id="SVGID_58_">
			<use xlink:href="#SVGID_57_"  overflow="visible"/>
		</clipPath>
		<g clip-path="url(#SVGID_58_)">
			
				<text transform="matrix(1.748456e-007 -1.0016 1 1.751209e-007 232.6597 205.2637)" fill="#595959" font-family="'Calibri'" font-size="9">76</text>
		</g>
	</g>
	<g>
		<defs>
			<rect id="SVGID_59_" width="707.88" height="216.341"/>
		</defs>
		<clipPath id="SVGID_60_">
			<use xlink:href="#SVGID_59_"  overflow="visible"/>
		</clipPath>
		<g clip-path="url(#SVGID_60_)">
			
				<text transform="matrix(1.748456e-007 -1.0016 1 1.751209e-007 245.9722 205.2637)" fill="#595959" font-family="'Calibri'" font-size="9">81</text>
		</g>
	</g>
	<g>
		<defs>
			<rect id="SVGID_61_" width="707.88" height="216.341"/>
		</defs>
		<clipPath id="SVGID_62_">
			<use xlink:href="#SVGID_61_"  overflow="visible"/>
		</clipPath>
		<g clip-path="url(#SVGID_62_)">
			
				<text transform="matrix(1.748456e-007 -1.0016 1 1.751209e-007 259.2847 205.2637)" fill="#595959" font-family="'Calibri'" font-size="9">86</text>
		</g>
	</g>
	<g>
		<defs>
			<rect id="SVGID_63_" width="707.88" height="216.341"/>
		</defs>
		<clipPath id="SVGID_64_">
			<use xlink:href="#SVGID_63_"  overflow="visible"/>
		</clipPath>
		<g clip-path="url(#SVGID_64_)">
			
				<text transform="matrix(1.748456e-007 -1.0016 1 1.751209e-007 272.5972 205.2637)" fill="#595959" font-family="'Calibri'" font-size="9">91</text>
		</g>
	</g>
	<g>
		<defs>
			<rect id="SVGID_65_" width="707.88" height="216.341"/>
		</defs>
		<clipPath id="SVGID_66_">
			<use xlink:href="#SVGID_65_"  overflow="visible"/>
		</clipPath>
		<g clip-path="url(#SVGID_66_)">
			
				<text transform="matrix(1.748456e-007 -1.0016 1 1.751209e-007 285.9097 205.2637)" fill="#595959" font-family="'Calibri'" font-size="9">96</text>
		</g>
	</g>
	<g>
		<defs>
			<rect id="SVGID_67_" width="707.88" height="216.341"/>
		</defs>
		<clipPath id="SVGID_68_">
			<use xlink:href="#SVGID_67_"  overflow="visible"/>
		</clipPath>
		<g clip-path="url(#SVGID_68_)">
			
				<text transform="matrix(1.748456e-007 -1.0016 1 1.751209e-007 299.2222 209.834)" fill="#595959" font-family="'Calibri'" font-size="9">101</text>
		</g>
	</g>
	<g>
		<defs>
			<rect id="SVGID_69_" width="707.88" height="216.341"/>
		</defs>
		<clipPath id="SVGID_70_">
			<use xlink:href="#SVGID_69_"  overflow="visible"/>
		</clipPath>
		<g clip-path="url(#SVGID_70_)">
			
				<text transform="matrix(1.748456e-007 -1.0016 1 1.751209e-007 312.5347 209.834)" fill="#595959" font-family="'Calibri'" font-size="9">106</text>
		</g>
	</g>
	<g>
		<defs>
			<rect id="SVGID_71_" width="707.88" height="216.341"/>
		</defs>
		<clipPath id="SVGID_72_">
			<use xlink:href="#SVGID_71_"  overflow="visible"/>
		</clipPath>
		<g clip-path="url(#SVGID_72_)">
			
				<text transform="matrix(1.748456e-007 -1.0016 1 1.751209e-007 325.855 209.834)" fill="#595959" font-family="'Calibri'" font-size="9">111</text>
		</g>
	</g>
	<g>
		<defs>
			<rect id="SVGID_73_" width="707.88" height="216.341"/>
		</defs>
		<clipPath id="SVGID_74_">
			<use xlink:href="#SVGID_73_"  overflow="visible"/>
		</clipPath>
		<g clip-path="url(#SVGID_74_)">
			
				<text transform="matrix(1.748456e-007 -1.0016 1 1.751209e-007 339.1597 209.834)" fill="#595959" font-family="'Calibri'" font-size="9">116</text>
		</g>
	</g>
	<g>
		<defs>
			<rect id="SVGID_75_" width="707.88" height="216.341"/>
		</defs>
		<clipPath id="SVGID_76_">
			<use xlink:href="#SVGID_75_"  overflow="visible"/>
		</clipPath>
		<g clip-path="url(#SVGID_76_)">
			
				<text transform="matrix(1.748456e-007 -1.0016 1 1.751209e-007 352.48 209.834)" fill="#595959" font-family="'Calibri'" font-size="9">121</text>
		</g>
	</g>
	<g>
		<defs>
			<rect id="SVGID_77_" width="707.88" height="216.341"/>
		</defs>
		<clipPath id="SVGID_78_">
			<use xlink:href="#SVGID_77_"  overflow="visible"/>
		</clipPath>
		<g clip-path="url(#SVGID_78_)">
			
				<text transform="matrix(1.748456e-007 -1.0016 1 1.751209e-007 365.793 209.834)" fill="#595959" font-family="'Calibri'" font-size="9">126</text>
		</g>
	</g>
	<g>
		<defs>
			<rect id="SVGID_79_" width="707.88" height="216.341"/>
		</defs>
		<clipPath id="SVGID_80_">
			<use xlink:href="#SVGID_79_"  overflow="visible"/>
		</clipPath>
		<g clip-path="url(#SVGID_80_)">
			
				<text transform="matrix(1.748456e-007 -1.0016 1 1.751209e-007 379.1055 209.834)" fill="#595959" font-family="'Calibri'" font-size="9">131</text>
		</g>
	</g>
	<g>
		<defs>
			<rect id="SVGID_81_" width="707.88" height="216.341"/>
		</defs>
		<clipPath id="SVGID_82_">
			<use xlink:href="#SVGID_81_"  overflow="visible"/>
		</clipPath>
		<g clip-path="url(#SVGID_82_)">
			
				<text transform="matrix(1.748456e-007 -1.0016 1 1.751209e-007 392.418 209.834)" fill="#595959" font-family="'Calibri'" font-size="9">136</text>
		</g>
	</g>
	<g>
		<defs>
			<rect id="SVGID_83_" width="707.88" height="216.341"/>
		</defs>
		<clipPath id="SVGID_84_">
			<use xlink:href="#SVGID_83_"  overflow="visible"/>
		</clipPath>
		<g clip-path="url(#SVGID_84_)">
			
				<text transform="matrix(1.748456e-007 -1.0016 1 1.751209e-007 405.7305 209.834)" fill="#595959" font-family="'Calibri'" font-size="9">141</text>
		</g>
	</g>
	<g>
		<defs>
			<rect id="SVGID_85_" width="707.88" height="216.341"/>
		</defs>
		<clipPath id="SVGID_86_">
			<use xlink:href="#SVGID_85_"  overflow="visible"/>
		</clipPath>
		<g clip-path="url(#SVGID_86_)">
			
				<text transform="matrix(1.748456e-007 -1.0016 1 1.751209e-007 419.043 209.834)" fill="#595959" font-family="'Calibri'" font-size="9">146</text>
		</g>
	</g>
	<g>
		<defs>
			<rect id="SVGID_87_" width="707.88" height="216.341"/>
		</defs>
		<clipPath id="SVGID_88_">
			<use xlink:href="#SVGID_87_"  overflow="visible"/>
		</clipPath>
		<g clip-path="url(#SVGID_88_)">
			
				<text transform="matrix(1.748456e-007 -1.0016 1 1.751209e-007 432.3555 209.834)" fill="#595959" font-family="'Calibri'" font-size="9">151</text>
		</g>
	</g>
	<g>
		<defs>
			<rect id="SVGID_89_" width="707.88" height="216.341"/>
		</defs>
		<clipPath id="SVGID_90_">
			<use xlink:href="#SVGID_89_"  overflow="visible"/>
		</clipPath>
		<g clip-path="url(#SVGID_90_)">
			
				<text transform="matrix(1.748456e-007 -1.0016 1 1.751209e-007 445.6758 209.834)" fill="#595959" font-family="'Calibri'" font-size="9">156</text>
		</g>
	</g>
	<g>
		<defs>
			<rect id="SVGID_91_" width="707.88" height="216.341"/>
		</defs>
		<clipPath id="SVGID_92_">
			<use xlink:href="#SVGID_91_"  overflow="visible"/>
		</clipPath>
		<g clip-path="url(#SVGID_92_)">
			
				<text transform="matrix(1.748456e-007 -1.0016 1 1.751209e-007 458.9805 209.834)" fill="#595959" font-family="'Calibri'" font-size="9">161</text>
		</g>
	</g>
	<g>
		<defs>
			<rect id="SVGID_93_" width="707.88" height="216.341"/>
		</defs>
		<clipPath id="SVGID_94_">
			<use xlink:href="#SVGID_93_"  overflow="visible"/>
		</clipPath>
		<g clip-path="url(#SVGID_94_)">
			
				<text transform="matrix(1.748456e-007 -1.0016 1 1.751209e-007 472.3008 209.834)" fill="#595959" font-family="'Calibri'" font-size="9">166</text>
		</g>
	</g>
	<g>
		<defs>
			<rect id="SVGID_95_" width="707.88" height="216.341"/>
		</defs>
		<clipPath id="SVGID_96_">
			<use xlink:href="#SVGID_95_"  overflow="visible"/>
		</clipPath>
		<g clip-path="url(#SVGID_96_)">
			
				<text transform="matrix(1.748456e-007 -1.0016 1 1.751209e-007 485.6055 209.834)" fill="#595959" font-family="'Calibri'" font-size="9">171</text>
		</g>
	</g>
	<g>
		<defs>
			<rect id="SVGID_97_" width="707.88" height="216.341"/>
		</defs>
		<clipPath id="SVGID_98_">
			<use xlink:href="#SVGID_97_"  overflow="visible"/>
		</clipPath>
		<g clip-path="url(#SVGID_98_)">
			
				<text transform="matrix(1.748456e-007 -1.0016 1 1.751209e-007 498.9258 209.834)" fill="#595959" font-family="'Calibri'" font-size="9">176</text>
		</g>
	</g>
	<g>
		<defs>
			<rect id="SVGID_99_" width="707.88" height="216.341"/>
		</defs>
		<clipPath id="SVGID_100_">
			<use xlink:href="#SVGID_99_"  overflow="visible"/>
		</clipPath>
		<g clip-path="url(#SVGID_100_)">
			
				<text transform="matrix(1.748456e-007 -1.0016 1 1.751209e-007 512.2383 209.834)" fill="#595959" font-family="'Calibri'" font-size="9">181</text>
		</g>
	</g>
	<g>
		<defs>
			<rect id="SVGID_101_" width="707.88" height="216.341"/>
		</defs>
		<clipPath id="SVGID_102_">
			<use xlink:href="#SVGID_101_"  overflow="visible"/>
		</clipPath>
		<g clip-path="url(#SVGID_102_)">
			
				<text transform="matrix(1.748456e-007 -1.0016 1 1.751209e-007 525.5508 209.834)" fill="#595959" font-family="'Calibri'" font-size="9">186</text>
		</g>
	</g>
	<g>
		<defs>
			<rect id="SVGID_103_" width="707.88" height="216.341"/>
		</defs>
		<clipPath id="SVGID_104_">
			<use xlink:href="#SVGID_103_"  overflow="visible"/>
		</clipPath>
		<g clip-path="url(#SVGID_104_)">
			
				<text transform="matrix(1.748456e-007 -1.0016 1 1.751209e-007 538.8633 209.835)" fill="#595959" font-family="'Calibri'" font-size="9">191</text>
		</g>
	</g>
	<g>
		<defs>
			<rect id="SVGID_105_" width="707.88" height="216.341"/>
		</defs>
		<clipPath id="SVGID_106_">
			<use xlink:href="#SVGID_105_"  overflow="visible"/>
		</clipPath>
		<g clip-path="url(#SVGID_106_)">
			
				<text transform="matrix(1.748456e-007 -1.0016 1 1.751209e-007 552.1758 209.835)" fill="#595959" font-family="'Calibri'" font-size="9">196</text>
		</g>
	</g>
	<g>
		<defs>
			<rect id="SVGID_107_" width="707.88" height="216.341"/>
		</defs>
		<clipPath id="SVGID_108_">
			<use xlink:href="#SVGID_107_"  overflow="visible"/>
		</clipPath>
		<g clip-path="url(#SVGID_108_)">
			
				<text transform="matrix(1.748456e-007 -1.0016 1 1.751209e-007 565.4883 209.835)" fill="#595959" font-family="'Calibri'" font-size="9">201</text>
		</g>
	</g>
	<g>
		<defs>
			<rect id="SVGID_109_" width="707.88" height="216.341"/>
		</defs>
		<clipPath id="SVGID_110_">
			<use xlink:href="#SVGID_109_"  overflow="visible"/>
		</clipPath>
		<g clip-path="url(#SVGID_110_)">
			
				<text transform="matrix(1.748456e-007 -1.0016 1 1.751209e-007 578.8008 209.835)" fill="#595959" font-family="'Calibri'" font-size="9">206</text>
		</g>
	</g>
	<g>
		<defs>
			<rect id="SVGID_111_" width="707.88" height="216.341"/>
		</defs>
		<clipPath id="SVGID_112_">
			<use xlink:href="#SVGID_111_"  overflow="visible"/>
		</clipPath>
		<g clip-path="url(#SVGID_112_)">
			
				<text transform="matrix(1.748456e-007 -1.0016 1 1.751209e-007 592.1211 209.835)" fill="#595959" font-family="'Calibri'" font-size="9">211</text>
		</g>
	</g>
	<g>
		<defs>
			<rect id="SVGID_113_" width="707.88" height="216.341"/>
		</defs>
		<clipPath id="SVGID_114_">
			<use xlink:href="#SVGID_113_"  overflow="visible"/>
		</clipPath>
		<g clip-path="url(#SVGID_114_)">
			
				<text transform="matrix(1.748456e-007 -1.0016 1 1.751209e-007 605.4258 209.835)" fill="#595959" font-family="'Calibri'" font-size="9">216</text>
		</g>
	</g>
	<g>
		<defs>
			<rect id="SVGID_115_" width="707.88" height="216.341"/>
		</defs>
		<clipPath id="SVGID_116_">
			<use xlink:href="#SVGID_115_"  overflow="visible"/>
		</clipPath>
		<g clip-path="url(#SVGID_116_)">
			
				<text transform="matrix(1.748456e-007 -1.0016 1 1.751209e-007 618.7461 209.835)" fill="#595959" font-family="'Calibri'" font-size="9">221</text>
		</g>
	</g>
	<g>
		<defs>
			<rect id="SVGID_117_" width="707.88" height="216.341"/>
		</defs>
		<clipPath id="SVGID_118_">
			<use xlink:href="#SVGID_117_"  overflow="visible"/>
		</clipPath>
		<g clip-path="url(#SVGID_118_)">
			
				<text transform="matrix(1.748456e-007 -1.0016 1 1.751209e-007 632.0586 209.835)" fill="#595959" font-family="'Calibri'" font-size="9">226</text>
		</g>
	</g>
	<g>
		<defs>
			<rect id="SVGID_119_" width="707.88" height="216.341"/>
		</defs>
		<clipPath id="SVGID_120_">
			<use xlink:href="#SVGID_119_"  overflow="visible"/>
		</clipPath>
		<g clip-path="url(#SVGID_120_)">
			
				<text transform="matrix(1.748456e-007 -1.0016 1 1.751209e-007 645.3711 209.835)" fill="#595959" font-family="'Calibri'" font-size="9">231</text>
		</g>
	</g>
	<g>
		<defs>
			<rect id="SVGID_121_" width="707.88" height="216.341"/>
		</defs>
		<clipPath id="SVGID_122_">
			<use xlink:href="#SVGID_121_"  overflow="visible"/>
		</clipPath>
		<g clip-path="url(#SVGID_122_)">
			
				<text transform="matrix(1.748456e-007 -1.0016 1 1.751209e-007 658.6836 209.835)" fill="#595959" font-family="'Calibri'" font-size="9">236</text>
		</g>
	</g>
	<g>
		<defs>
			<rect id="SVGID_123_" width="707.88" height="216.341"/>
		</defs>
		<clipPath id="SVGID_124_">
			<use xlink:href="#SVGID_123_"  overflow="visible"/>
		</clipPath>
		<g clip-path="url(#SVGID_124_)">
			
				<text transform="matrix(1.748456e-007 -1.0016 1 1.751209e-007 671.9961 209.835)" fill="#595959" font-family="'Calibri'" font-size="9">241</text>
		</g>
	</g>
	<g>
		<defs>
			<rect id="SVGID_125_" width="707.88" height="216.341"/>
		</defs>
		<clipPath id="SVGID_126_">
			<use xlink:href="#SVGID_125_"  overflow="visible"/>
		</clipPath>
		<g clip-path="url(#SVGID_126_)">
			
				<text transform="matrix(1.748456e-007 -1.0016 1 1.751209e-007 685.3086 209.835)" fill="#595959" font-family="'Calibri'" font-size="9">246</text>
		</g>
	</g>
	<g>
		<defs>
			<rect id="SVGID_127_" width="707.88" height="216.341"/>
		</defs>
		<clipPath id="SVGID_128_">
			<use xlink:href="#SVGID_127_"  overflow="visible"/>
		</clipPath>
		<g clip-path="url(#SVGID_128_)">
			
				<text transform="matrix(1.748456e-007 -1.0016 1 1.751209e-007 698.6211 209.835)" fill="#595959" font-family="'Calibri'" font-size="9">251</text>
		</g>
	</g>
</g>
</svg>
