<?xml version="1.0" encoding="utf-8"?>
<!-- Generator: Adobe Illustrator 16.0.0, SVG Export Plug-In . SVG Version: 6.00 Build 0)  -->
<!DOCTYPE svg PUBLIC "-//W3C//DTD SVG 1.0//EN" "http://www.w3.org/TR/2001/REC-SVG-20010904/DTD/svg10.dtd">
<svg version="1.0" id="Layer_1" xmlns="http://www.w3.org/2000/svg" xmlns:xlink="http://www.w3.org/1999/xlink" x="0px" y="0px"
	 width="707.4px" height="216.341px" viewBox="0 0 707.4 216.341" enable-background="new 0 0 707.4 216.341" xml:space="preserve">
<g>
	<g>
		<defs>
			<polygon id="SVGID_1_" points="0,216.341 707.4,216.341 707.4,0 0,0 0,216.341 			"/>
		</defs>
		<clipPath id="SVGID_2_">
			<use xlink:href="#SVGID_1_"  overflow="visible"/>
		</clipPath>
		
			<path clip-path="url(#SVGID_2_)" fill="none" stroke="#D9D9D9" stroke-width="0.7211" stroke-linejoin="round" stroke-miterlimit="10" d="
			M28.56,150.116h667.919 M28.56,132.688h667.919 M28.56,115.382h667.919 M28.56,97.954h667.919 M28.56,80.527h667.919 M28.56,63.22
			h667.919 M28.56,45.792h667.919 M28.56,28.365h667.919 M28.56,11.058h667.919"/>
	</g>
	<g>
		<defs>
			<polygon id="SVGID_3_" points="0,216.341 707.4,216.341 707.4,0 0,0 0,216.341 			"/>
		</defs>
		<clipPath id="SVGID_4_">
			<use xlink:href="#SVGID_3_"  overflow="visible"/>
		</clipPath>
		
			<line clip-path="url(#SVGID_4_)" fill="none" stroke="#D9D9D9" stroke-width="0.7211" stroke-linejoin="round" stroke-miterlimit="10" x1="28.56" y1="167.544" x2="696.479" y2="167.544"/>
	</g>
	<g>
		<defs>
			<polygon id="SVGID_5_" points="28.56,168.146 697.08,168.146 697.08,10.938 28.56,10.938 28.56,168.146 			"/>
		</defs>
		<clipPath id="SVGID_6_">
			<use xlink:href="#SVGID_5_"  overflow="visible"/>
		</clipPath>
		
			<polyline clip-path="url(#SVGID_6_)" fill="none" stroke="#70AD47" stroke-width="2.2836" stroke-linecap="round" stroke-linejoin="round" stroke-miterlimit="10" points="
			29.94,131.548 32.58,132.509 35.22,133.591 37.86,135.394 40.62,136.595 43.26,137.798 45.9,138.759 48.54,140.321 51.18,29.627 
			53.94,141.884 56.58,141.884 59.22,107.629 61.86,113.64 64.5,144.167 67.14,144.407 69.9,29.627 72.54,129.144 75.18,29.627 
			77.82,146.571 80.46,145.851 83.1,29.627 85.86,29.627 88.5,29.627 91.14,147.653 93.78,148.976 96.42,148.735 99.06,29.627 
			101.82,29.627 104.46,29.627 107.1,29.627 109.74,29.627 112.38,29.627 115.02,29.627 117.78,29.627 120.42,29.627 123.06,41.165 
			125.7,54.146 128.34,40.083 131.1,41.405 133.74,29.627 136.38,41.165 139.02,41.045 141.66,40.805 144.3,29.627 147.06,41.165 
			149.7,29.627 152.34,41.165 154.98,41.526 157.62,44.17 160.26,41.526 163.02,44.41 165.66,41.045 168.3,44.891 170.94,40.925 
			173.58,29.627 176.22,29.627 178.98,29.627 181.62,29.627 184.26,29.627 186.9,52.583 189.54,29.627 192.18,29.627 
			194.94,121.091 197.58,122.774 200.22,122.534 202.86,124.937 205.5,29.627 208.26,125.417 210.9,161.595 213.54,123.134 
			216.18,161.233 218.82,160.993 221.46,161.114 224.22,160.993 226.86,161.474 229.5,161.956 232.14,162.196 234.78,162.315 
			237.42,162.315 240.18,162.315 242.82,162.315 245.46,162.437 248.1,162.437 250.74,162.437 253.38,162.315 256.14,162.315 
			258.78,161.956 261.42,161.716 264.06,122.534 266.7,121.933 269.34,123.374 272.1,128.062 274.74,29.627 277.38,127.702 
			280.02,29.627 282.66,128.903 285.42,131.067 288.06,124.696 290.7,131.187 293.34,125.899 295.98,129.144 298.62,124.817 
			301.38,162.796 304.02,162.677 306.66,163.036 309.3,163.036 311.94,163.278 314.58,163.638 317.34,163.759 319.98,164.118 
			322.62,164.358 325.26,164.599 327.9,164.479 330.54,164.358 333.3,164.118 335.94,164.479 338.58,164.358 341.22,84.914 
			343.86,84.793 346.62,29.627 349.26,84.673 351.9,85.034 354.54,85.635 357.18,85.274 359.82,85.274 362.58,84.914 365.22,84.793 
			367.86,84.433 370.5,84.914 373.14,85.154 375.78,84.914 378.54,85.154 381.18,85.395 383.82,164.72 386.46,164.479 
			389.1,165.081 391.74,164.839 394.5,164.72 397.14,164.358 399.78,164.358 402.42,164.118 405.06,163.878 407.7,163.519 
			410.46,163.278 413.1,162.556 415.74,161.835 418.38,161.233 421.021,161.233 423.78,161.354 426.42,161.474 429.06,161.956 
			431.7,161.835 434.34,161.474 436.979,161.354 439.74,129.265 442.38,161.114 445.021,161.716 447.66,162.677 450.3,163.878 
			452.94,164.839 455.7,165.2 458.34,164.479 460.979,128.903 463.62,129.265 466.26,118.446 468.9,125.657 471.66,122.052 
			474.3,129.024 476.94,125.538 479.58,127.341 482.22,123.614 484.86,121.212 487.62,29.627 490.26,29.627 492.9,128.782 
			495.54,129.384 498.18,128.302 500.94,126.86 503.58,29.627 506.22,127.821 508.86,131.067 511.5,130.345 514.14,128.542 
			516.9,126.86 519.54,130.587 522.18,130.104 524.82,128.423 527.46,129.745 530.1,130.466 532.86,128.062 535.5,130.827 
			538.14,131.187 540.78,127.702 543.42,126.499 546.06,127.101 548.82,127.22 551.46,161.956 554.1,162.556 556.74,163.036 
			559.38,163.157 562.021,163.036 564.78,162.677 567.42,162.677 570.06,162.437 572.7,161.595 575.34,160.874 578.1,159.911 
			580.74,159.431 583.38,157.749 586.021,29.627 588.66,155.825 591.3,116.884 594.06,115.683 596.7,155.345 599.34,155.226 
			601.979,154.983 604.62,154.743 607.26,154.384 610.021,154.144 612.66,154.263 615.3,154.743 617.94,155.466 620.58,156.427 
			623.22,157.388 625.98,158.95 628.62,160.513 631.26,161.474 633.9,161.354 636.54,125.298 639.18,161.956 641.94,29.627 
			644.58,29.627 647.22,159.19 649.86,150.056 652.5,157.028 655.26,157.269 657.9,157.147 660.54,157.388 663.18,158.349 
			665.82,159.911 668.46,160.874 671.22,29.627 673.86,29.627 676.5,158.47 679.14,157.989 681.78,157.269 684.42,156.427 
			687.18,155.585 689.82,154.624 692.46,153.782 695.1,152.46 		"/>
	</g>
	<g>
		<defs>
			<polygon id="SVGID_7_" points="28.56,168.146 697.08,168.146 697.08,10.938 28.56,10.938 28.56,168.146 			"/>
		</defs>
		<clipPath id="SVGID_8_">
			<use xlink:href="#SVGID_7_"  overflow="visible"/>
		</clipPath>
		
			<polyline clip-path="url(#SVGID_8_)" fill="none" stroke="#7C7C7C" stroke-width="2.2836" stroke-linecap="round" stroke-linejoin="round" stroke-miterlimit="10" points="
			29.94,130.587 32.58,131.548 35.22,132.509 37.86,133.591 40.62,135.394 43.26,136.595 45.9,137.798 48.54,138.759 51.18,138.759 
			53.94,140.321 56.58,141.884 59.22,141.884 61.86,113.64 64.5,113.64 67.14,144.167 69.9,144.167 72.54,129.144 75.18,29.627 
			77.82,129.144 80.46,145.851 83.1,145.851 85.86,29.627 88.5,29.627 91.14,29.627 93.78,147.653 96.42,148.735 99.06,148.735 
			101.82,29.627 104.46,29.627 107.1,29.627 109.74,29.627 112.38,29.627 115.02,29.627 117.78,29.627 120.42,29.627 123.06,29.627 
			125.7,41.165 128.34,41.165 131.1,41.405 133.74,40.083 136.38,41.165 139.02,41.045 141.66,41.045 144.3,40.805 147.06,40.805 
			149.7,29.627 152.34,41.165 154.98,41.165 157.62,41.526 160.26,41.526 163.02,44.17 165.66,41.526 168.3,44.41 170.94,41.045 
			173.58,40.925 176.22,29.627 178.98,29.627 181.62,29.627 184.26,29.627 186.9,29.627 189.54,29.627 192.18,29.627 194.94,29.627 
			197.58,121.091 200.22,122.534 202.86,122.774 205.5,122.534 208.26,124.937 210.9,125.417 213.54,125.417 216.18,161.233 
			218.82,160.993 221.46,161.114 224.22,160.993 226.86,161.114 229.5,161.474 232.14,161.956 234.78,162.196 237.42,162.315 
			240.18,162.315 242.82,162.315 245.46,162.315 248.1,162.437 250.74,162.437 253.38,162.437 256.14,162.315 258.78,162.315 
			261.42,161.956 264.06,161.716 266.7,122.534 269.34,122.534 272.1,123.374 274.74,123.374 277.38,127.702 280.02,29.627 
			282.66,127.702 285.42,128.903 288.06,128.903 290.7,131.067 293.34,125.899 295.98,129.144 298.62,125.899 301.38,129.144 
			304.02,162.677 306.66,162.796 309.3,163.036 311.94,163.036 314.58,163.278 317.34,163.638 319.98,163.759 322.62,164.118 
			325.26,164.358 327.9,164.479 330.54,164.479 333.3,164.358 335.94,164.358 338.58,164.358 341.22,164.358 343.86,84.914 
			346.62,84.793 349.26,84.673 351.9,84.673 354.54,85.034 357.18,85.274 359.82,85.274 362.58,85.274 365.22,84.914 367.86,84.793 
			370.5,84.793 373.14,84.914 375.78,84.914 378.54,85.154 381.18,85.154 383.82,85.395 386.46,164.479 389.1,164.72 
			391.74,164.839 394.5,164.839 397.14,164.72 399.78,164.358 402.42,164.358 405.06,164.118 407.7,163.878 410.46,163.519 
			413.1,163.278 415.74,162.556 418.38,161.835 421.021,161.233 423.78,161.233 426.42,161.354 429.06,161.474 431.7,161.835 
			434.34,161.835 436.979,161.474 439.74,161.354 442.38,161.114 445.021,161.114 447.66,161.716 450.3,162.677 452.94,163.878 
			455.7,164.839 458.34,164.839 460.979,164.479 463.62,129.265 466.26,128.903 468.9,125.657 471.66,122.052 474.3,125.657 
			476.94,125.538 479.58,127.341 482.22,125.538 484.86,123.614 487.62,121.212 490.26,29.627 492.9,29.627 495.54,128.782 
			498.18,128.782 500.94,128.302 503.58,126.86 506.22,126.86 508.86,127.821 511.5,130.345 514.14,130.345 516.9,128.542 
			519.54,128.542 522.18,130.104 524.82,130.104 527.46,129.745 530.1,129.745 532.86,129.745 535.5,130.466 538.14,130.827 
			540.78,130.827 543.42,127.702 546.06,127.101 548.82,127.101 551.46,127.22 554.1,161.956 556.74,162.556 559.38,163.036 
			562.021,163.036 564.78,163.036 567.42,162.677 570.06,162.677 572.7,162.437 575.34,161.595 578.1,160.874 580.74,159.911 
			583.38,159.431 586.021,157.749 588.66,155.825 591.3,116.884 594.06,116.884 596.7,116.884 599.34,155.226 601.979,155.226 
			604.62,154.983 607.26,154.743 610.021,154.384 612.66,154.263 615.3,154.263 617.94,154.743 620.58,155.466 623.22,156.427 
			625.98,157.388 628.62,158.95 631.26,160.513 633.9,161.354 636.54,161.354 639.18,161.354 641.94,125.298 644.58,29.627 
			647.22,29.627 649.86,150.056 652.5,157.028 655.26,157.028 657.9,157.147 660.54,157.269 663.18,157.388 665.82,158.349 
			668.46,159.911 671.22,159.911 673.86,29.627 676.5,29.627 679.14,157.989 681.78,157.989 684.42,157.269 687.18,156.427 
			689.82,155.585 692.46,154.624 695.1,153.782 		"/>
	</g>
	<g>
		<defs>
			<rect id="SVGID_9_" width="707.4" height="216.341"/>
		</defs>
		<clipPath id="SVGID_10_">
			<use xlink:href="#SVGID_9_"  overflow="visible"/>
		</clipPath>
		<g clip-path="url(#SVGID_10_)">
			<text transform="matrix(0.9984 0 0 1 15.6943 170.0283)" fill="#595959" font-family="'Calibri'" font-size="9.0142">0</text>
		</g>
	</g>
	<g>
		<defs>
			<rect id="SVGID_11_" width="707.4" height="216.341"/>
		</defs>
		<clipPath id="SVGID_12_">
			<use xlink:href="#SVGID_11_"  overflow="visible"/>
		</clipPath>
		<g clip-path="url(#SVGID_12_)">
			<text transform="matrix(0.9984 0 0 1 11.1396 152.6377)" fill="#595959" font-family="'Calibri'" font-size="9.0142">50</text>
		</g>
	</g>
	<g>
		<defs>
			<rect id="SVGID_13_" width="707.4" height="216.341"/>
		</defs>
		<clipPath id="SVGID_14_">
			<use xlink:href="#SVGID_13_"  overflow="visible"/>
		</clipPath>
		<g clip-path="url(#SVGID_14_)">
			<text transform="matrix(0.9984 0 0 1 6.5771 135.2471)" fill="#595959" font-family="'Calibri'" font-size="9.0142">100</text>
		</g>
	</g>
	<g>
		<defs>
			<rect id="SVGID_15_" width="707.4" height="216.341"/>
		</defs>
		<clipPath id="SVGID_16_">
			<use xlink:href="#SVGID_15_"  overflow="visible"/>
		</clipPath>
		<g clip-path="url(#SVGID_16_)">
			<text transform="matrix(0.9984 0 0 1 6.5771 117.8643)" fill="#595959" font-family="'Calibri'" font-size="9.0142">150</text>
		</g>
	</g>
	<g>
		<defs>
			<rect id="SVGID_17_" width="707.4" height="216.341"/>
		</defs>
		<clipPath id="SVGID_18_">
			<use xlink:href="#SVGID_17_"  overflow="visible"/>
		</clipPath>
		<g clip-path="url(#SVGID_18_)">
			<text transform="matrix(0.9984 0 0 1 6.5771 100.4814)" fill="#595959" font-family="'Calibri'" font-size="9.0142">200</text>
		</g>
	</g>
	<g>
		<defs>
			<rect id="SVGID_19_" width="707.4" height="216.341"/>
		</defs>
		<clipPath id="SVGID_20_">
			<use xlink:href="#SVGID_19_"  overflow="visible"/>
		</clipPath>
		<g clip-path="url(#SVGID_20_)">
			<text transform="matrix(0.9984 0 0 1 6.5771 83.0908)" fill="#595959" font-family="'Calibri'" font-size="9.0142">250</text>
		</g>
	</g>
	<g>
		<defs>
			<rect id="SVGID_21_" width="707.4" height="216.341"/>
		</defs>
		<clipPath id="SVGID_22_">
			<use xlink:href="#SVGID_21_"  overflow="visible"/>
		</clipPath>
		<g clip-path="url(#SVGID_22_)">
			<text transform="matrix(0.9984 0 0 1 6.5771 65.708)" fill="#595959" font-family="'Calibri'" font-size="9.0142">300</text>
		</g>
	</g>
	<g>
		<defs>
			<rect id="SVGID_23_" width="707.4" height="216.341"/>
		</defs>
		<clipPath id="SVGID_24_">
			<use xlink:href="#SVGID_23_"  overflow="visible"/>
		</clipPath>
		<g clip-path="url(#SVGID_24_)">
			<text transform="matrix(0.9984 0 0 1 6.5771 48.3252)" fill="#595959" font-family="'Calibri'" font-size="9.0142">350</text>
		</g>
	</g>
	<g>
		<defs>
			<rect id="SVGID_25_" width="707.4" height="216.341"/>
		</defs>
		<clipPath id="SVGID_26_">
			<use xlink:href="#SVGID_25_"  overflow="visible"/>
		</clipPath>
		<g clip-path="url(#SVGID_26_)">
			<text transform="matrix(0.9984 0 0 1 6.5771 30.9268)" fill="#595959" font-family="'Calibri'" font-size="9.0142">400</text>
		</g>
	</g>
	<g>
		<defs>
			<rect id="SVGID_27_" width="707.4" height="216.341"/>
		</defs>
		<clipPath id="SVGID_28_">
			<use xlink:href="#SVGID_27_"  overflow="visible"/>
		</clipPath>
		<g clip-path="url(#SVGID_28_)">
			<text transform="matrix(0.9984 0 0 1 6.5771 13.5439)" fill="#595959" font-family="'Calibri'" font-size="9.0142">450</text>
		</g>
	</g>
	<g>
		<defs>
			<rect id="SVGID_29_" width="707.4" height="216.341"/>
		</defs>
		<clipPath id="SVGID_30_">
			<use xlink:href="#SVGID_29_"  overflow="visible"/>
		</clipPath>
		<g clip-path="url(#SVGID_30_)">
			
				<text transform="matrix(1.748456e-007 -1.0016 1 1.751209e-007 32.9585 177.7793)" fill="#595959" font-family="'Calibri'" font-size="9">1</text>
		</g>
	</g>
	<g>
		<defs>
			<rect id="SVGID_31_" width="707.4" height="216.341"/>
		</defs>
		<clipPath id="SVGID_32_">
			<use xlink:href="#SVGID_31_"  overflow="visible"/>
		</clipPath>
		<g clip-path="url(#SVGID_32_)">
			
				<text transform="matrix(1.748456e-007 -1.0016 1 1.751209e-007 46.2632 177.7793)" fill="#595959" font-family="'Calibri'" font-size="9">6</text>
		</g>
	</g>
	<g>
		<defs>
			<rect id="SVGID_33_" width="707.4" height="216.341"/>
		</defs>
		<clipPath id="SVGID_34_">
			<use xlink:href="#SVGID_33_"  overflow="visible"/>
		</clipPath>
		<g clip-path="url(#SVGID_34_)">
			
				<text transform="matrix(1.748456e-007 -1.0016 1 1.751209e-007 59.5679 182.3496)" fill="#595959" font-family="'Calibri'" font-size="9">11</text>
		</g>
	</g>
	<g>
		<defs>
			<rect id="SVGID_35_" width="707.4" height="216.341"/>
		</defs>
		<clipPath id="SVGID_36_">
			<use xlink:href="#SVGID_35_"  overflow="visible"/>
		</clipPath>
		<g clip-path="url(#SVGID_36_)">
			
				<text transform="matrix(1.748456e-007 -1.0016 1 1.751209e-007 72.8726 182.3496)" fill="#595959" font-family="'Calibri'" font-size="9">16</text>
		</g>
	</g>
	<g>
		<defs>
			<rect id="SVGID_37_" width="707.4" height="216.341"/>
		</defs>
		<clipPath id="SVGID_38_">
			<use xlink:href="#SVGID_37_"  overflow="visible"/>
		</clipPath>
		<g clip-path="url(#SVGID_38_)">
			
				<text transform="matrix(1.748456e-007 -1.0016 1 1.751209e-007 86.1772 182.3496)" fill="#595959" font-family="'Calibri'" font-size="9">21</text>
		</g>
	</g>
	<g>
		<defs>
			<rect id="SVGID_39_" width="707.4" height="216.341"/>
		</defs>
		<clipPath id="SVGID_40_">
			<use xlink:href="#SVGID_39_"  overflow="visible"/>
		</clipPath>
		<g clip-path="url(#SVGID_40_)">
			
				<text transform="matrix(1.748456e-007 -1.0016 1 1.751209e-007 99.4819 182.3496)" fill="#595959" font-family="'Calibri'" font-size="9">26</text>
		</g>
	</g>
	<g>
		<defs>
			<rect id="SVGID_41_" width="707.4" height="216.341"/>
		</defs>
		<clipPath id="SVGID_42_">
			<use xlink:href="#SVGID_41_"  overflow="visible"/>
		</clipPath>
		<g clip-path="url(#SVGID_42_)">
			
				<text transform="matrix(1.748456e-007 -1.0016 1 1.751209e-007 112.7866 182.3496)" fill="#595959" font-family="'Calibri'" font-size="9">31</text>
		</g>
	</g>
	<g>
		<defs>
			<rect id="SVGID_43_" width="707.4" height="216.341"/>
		</defs>
		<clipPath id="SVGID_44_">
			<use xlink:href="#SVGID_43_"  overflow="visible"/>
		</clipPath>
		<g clip-path="url(#SVGID_44_)">
			
				<text transform="matrix(1.748456e-007 -1.0016 1 1.751209e-007 126.0835 182.3496)" fill="#595959" font-family="'Calibri'" font-size="9">36</text>
		</g>
	</g>
	<g>
		<defs>
			<rect id="SVGID_45_" width="707.4" height="216.341"/>
		</defs>
		<clipPath id="SVGID_46_">
			<use xlink:href="#SVGID_45_"  overflow="visible"/>
		</clipPath>
		<g clip-path="url(#SVGID_46_)">
			
				<text transform="matrix(1.748456e-007 -1.0016 1 1.751209e-007 139.3882 182.3496)" fill="#595959" font-family="'Calibri'" font-size="9">41</text>
		</g>
	</g>
	<g>
		<defs>
			<rect id="SVGID_47_" width="707.4" height="216.341"/>
		</defs>
		<clipPath id="SVGID_48_">
			<use xlink:href="#SVGID_47_"  overflow="visible"/>
		</clipPath>
		<g clip-path="url(#SVGID_48_)">
			
				<text transform="matrix(1.748456e-007 -1.0016 1 1.751209e-007 152.6929 182.3496)" fill="#595959" font-family="'Calibri'" font-size="9">46</text>
		</g>
	</g>
	<g>
		<defs>
			<rect id="SVGID_49_" width="707.4" height="216.341"/>
		</defs>
		<clipPath id="SVGID_50_">
			<use xlink:href="#SVGID_49_"  overflow="visible"/>
		</clipPath>
		<g clip-path="url(#SVGID_50_)">
			
				<text transform="matrix(1.748456e-007 -1.0016 1 1.751209e-007 165.9976 182.3496)" fill="#595959" font-family="'Calibri'" font-size="9">51</text>
		</g>
	</g>
	<g>
		<defs>
			<rect id="SVGID_51_" width="707.4" height="216.341"/>
		</defs>
		<clipPath id="SVGID_52_">
			<use xlink:href="#SVGID_51_"  overflow="visible"/>
		</clipPath>
		<g clip-path="url(#SVGID_52_)">
			
				<text transform="matrix(1.748456e-007 -1.0016 1 1.751209e-007 179.3022 182.3496)" fill="#595959" font-family="'Calibri'" font-size="9">56</text>
		</g>
	</g>
	<g>
		<defs>
			<rect id="SVGID_53_" width="707.4" height="216.341"/>
		</defs>
		<clipPath id="SVGID_54_">
			<use xlink:href="#SVGID_53_"  overflow="visible"/>
		</clipPath>
		<g clip-path="url(#SVGID_54_)">
			
				<text transform="matrix(1.748456e-007 -1.0016 1 1.751209e-007 192.6069 182.3496)" fill="#595959" font-family="'Calibri'" font-size="9">61</text>
		</g>
	</g>
	<g>
		<defs>
			<rect id="SVGID_55_" width="707.4" height="216.341"/>
		</defs>
		<clipPath id="SVGID_56_">
			<use xlink:href="#SVGID_55_"  overflow="visible"/>
		</clipPath>
		<g clip-path="url(#SVGID_56_)">
			
				<text transform="matrix(1.748456e-007 -1.0016 1 1.751209e-007 205.9116 182.3496)" fill="#595959" font-family="'Calibri'" font-size="9">66</text>
		</g>
	</g>
	<g>
		<defs>
			<rect id="SVGID_57_" width="707.4" height="216.341"/>
		</defs>
		<clipPath id="SVGID_58_">
			<use xlink:href="#SVGID_57_"  overflow="visible"/>
		</clipPath>
		<g clip-path="url(#SVGID_58_)">
			
				<text transform="matrix(1.748456e-007 -1.0016 1 1.751209e-007 219.2085 182.3496)" fill="#595959" font-family="'Calibri'" font-size="9">71</text>
		</g>
	</g>
	<g>
		<defs>
			<rect id="SVGID_59_" width="707.4" height="216.341"/>
		</defs>
		<clipPath id="SVGID_60_">
			<use xlink:href="#SVGID_59_"  overflow="visible"/>
		</clipPath>
		<g clip-path="url(#SVGID_60_)">
			
				<text transform="matrix(1.748456e-007 -1.0016 1 1.751209e-007 232.5132 182.3496)" fill="#595959" font-family="'Calibri'" font-size="9">76</text>
		</g>
	</g>
	<g>
		<defs>
			<rect id="SVGID_61_" width="707.4" height="216.341"/>
		</defs>
		<clipPath id="SVGID_62_">
			<use xlink:href="#SVGID_61_"  overflow="visible"/>
		</clipPath>
		<g clip-path="url(#SVGID_62_)">
			
				<text transform="matrix(1.748456e-007 -1.0016 1 1.751209e-007 245.8179 182.3496)" fill="#595959" font-family="'Calibri'" font-size="9">81</text>
		</g>
	</g>
	<g>
		<defs>
			<rect id="SVGID_63_" width="707.4" height="216.341"/>
		</defs>
		<clipPath id="SVGID_64_">
			<use xlink:href="#SVGID_63_"  overflow="visible"/>
		</clipPath>
		<g clip-path="url(#SVGID_64_)">
			
				<text transform="matrix(1.748456e-007 -1.0016 1 1.751209e-007 259.1226 182.3496)" fill="#595959" font-family="'Calibri'" font-size="9">86</text>
		</g>
	</g>
	<g>
		<defs>
			<rect id="SVGID_65_" width="707.4" height="216.341"/>
		</defs>
		<clipPath id="SVGID_66_">
			<use xlink:href="#SVGID_65_"  overflow="visible"/>
		</clipPath>
		<g clip-path="url(#SVGID_66_)">
			
				<text transform="matrix(1.748456e-007 -1.0016 1 1.751209e-007 272.4272 182.3496)" fill="#595959" font-family="'Calibri'" font-size="9">91</text>
		</g>
	</g>
	<g>
		<defs>
			<rect id="SVGID_67_" width="707.4" height="216.341"/>
		</defs>
		<clipPath id="SVGID_68_">
			<use xlink:href="#SVGID_67_"  overflow="visible"/>
		</clipPath>
		<g clip-path="url(#SVGID_68_)">
			
				<text transform="matrix(1.748456e-007 -1.0016 1 1.751209e-007 285.7319 182.3496)" fill="#595959" font-family="'Calibri'" font-size="9">96</text>
		</g>
	</g>
	<g>
		<defs>
			<rect id="SVGID_69_" width="707.4" height="216.341"/>
		</defs>
		<clipPath id="SVGID_70_">
			<use xlink:href="#SVGID_69_"  overflow="visible"/>
		</clipPath>
		<g clip-path="url(#SVGID_70_)">
			
				<text transform="matrix(1.748456e-007 -1.0016 1 1.751209e-007 299.0288 186.9121)" fill="#595959" font-family="'Calibri'" font-size="9">101</text>
		</g>
	</g>
	<g>
		<defs>
			<rect id="SVGID_71_" width="707.4" height="216.341"/>
		</defs>
		<clipPath id="SVGID_72_">
			<use xlink:href="#SVGID_71_"  overflow="visible"/>
		</clipPath>
		<g clip-path="url(#SVGID_72_)">
			
				<text transform="matrix(1.748456e-007 -1.0016 1 1.751209e-007 312.3335 186.9121)" fill="#595959" font-family="'Calibri'" font-size="9">106</text>
		</g>
	</g>
	<g>
		<defs>
			<rect id="SVGID_73_" width="707.4" height="216.341"/>
		</defs>
		<clipPath id="SVGID_74_">
			<use xlink:href="#SVGID_73_"  overflow="visible"/>
		</clipPath>
		<g clip-path="url(#SVGID_74_)">
			
				<text transform="matrix(1.748456e-007 -1.0016 1 1.751209e-007 325.6382 186.9121)" fill="#595959" font-family="'Calibri'" font-size="9">111</text>
		</g>
	</g>
	<g>
		<defs>
			<rect id="SVGID_75_" width="707.4" height="216.341"/>
		</defs>
		<clipPath id="SVGID_76_">
			<use xlink:href="#SVGID_75_"  overflow="visible"/>
		</clipPath>
		<g clip-path="url(#SVGID_76_)">
			
				<text transform="matrix(1.748456e-007 -1.0016 1 1.751209e-007 338.9429 186.9121)" fill="#595959" font-family="'Calibri'" font-size="9">116</text>
		</g>
	</g>
	<g>
		<defs>
			<rect id="SVGID_77_" width="707.4" height="216.341"/>
		</defs>
		<clipPath id="SVGID_78_">
			<use xlink:href="#SVGID_77_"  overflow="visible"/>
		</clipPath>
		<g clip-path="url(#SVGID_78_)">
			
				<text transform="matrix(1.748456e-007 -1.0016 1 1.751209e-007 352.2476 186.9121)" fill="#595959" font-family="'Calibri'" font-size="9">121</text>
		</g>
	</g>
	<g>
		<defs>
			<rect id="SVGID_79_" width="707.4" height="216.341"/>
		</defs>
		<clipPath id="SVGID_80_">
			<use xlink:href="#SVGID_79_"  overflow="visible"/>
		</clipPath>
		<g clip-path="url(#SVGID_80_)">
			
				<text transform="matrix(1.748456e-007 -1.0016 1 1.751209e-007 365.5527 186.9121)" fill="#595959" font-family="'Calibri'" font-size="9">126</text>
		</g>
	</g>
	<g>
		<defs>
			<rect id="SVGID_81_" width="707.4" height="216.341"/>
		</defs>
		<clipPath id="SVGID_82_">
			<use xlink:href="#SVGID_81_"  overflow="visible"/>
		</clipPath>
		<g clip-path="url(#SVGID_82_)">
			
				<text transform="matrix(1.748456e-007 -1.0016 1 1.751209e-007 378.8574 186.9121)" fill="#595959" font-family="'Calibri'" font-size="9">131</text>
		</g>
	</g>
	<g>
		<defs>
			<rect id="SVGID_83_" width="707.4" height="216.341"/>
		</defs>
		<clipPath id="SVGID_84_">
			<use xlink:href="#SVGID_83_"  overflow="visible"/>
		</clipPath>
		<g clip-path="url(#SVGID_84_)">
			
				<text transform="matrix(1.748456e-007 -1.0016 1 1.751209e-007 392.1543 186.9121)" fill="#595959" font-family="'Calibri'" font-size="9">136</text>
		</g>
	</g>
	<g>
		<defs>
			<rect id="SVGID_85_" width="707.4" height="216.341"/>
		</defs>
		<clipPath id="SVGID_86_">
			<use xlink:href="#SVGID_85_"  overflow="visible"/>
		</clipPath>
		<g clip-path="url(#SVGID_86_)">
			
				<text transform="matrix(1.748456e-007 -1.0016 1 1.751209e-007 405.459 186.9121)" fill="#595959" font-family="'Calibri'" font-size="9">141</text>
		</g>
	</g>
	<g>
		<defs>
			<rect id="SVGID_87_" width="707.4" height="216.341"/>
		</defs>
		<clipPath id="SVGID_88_">
			<use xlink:href="#SVGID_87_"  overflow="visible"/>
		</clipPath>
		<g clip-path="url(#SVGID_88_)">
			
				<text transform="matrix(1.748456e-007 -1.0016 1 1.751209e-007 418.7637 186.9121)" fill="#595959" font-family="'Calibri'" font-size="9">146</text>
		</g>
	</g>
	<g>
		<defs>
			<rect id="SVGID_89_" width="707.4" height="216.341"/>
		</defs>
		<clipPath id="SVGID_90_">
			<use xlink:href="#SVGID_89_"  overflow="visible"/>
		</clipPath>
		<g clip-path="url(#SVGID_90_)">
			
				<text transform="matrix(1.748456e-007 -1.0016 1 1.751209e-007 432.0684 186.9121)" fill="#595959" font-family="'Calibri'" font-size="9">151</text>
		</g>
	</g>
	<g>
		<defs>
			<rect id="SVGID_91_" width="707.4" height="216.341"/>
		</defs>
		<clipPath id="SVGID_92_">
			<use xlink:href="#SVGID_91_"  overflow="visible"/>
		</clipPath>
		<g clip-path="url(#SVGID_92_)">
			
				<text transform="matrix(1.748456e-007 -1.0016 1 1.751209e-007 445.373 186.9121)" fill="#595959" font-family="'Calibri'" font-size="9">156</text>
		</g>
	</g>
	<g>
		<defs>
			<rect id="SVGID_93_" width="707.4" height="216.341"/>
		</defs>
		<clipPath id="SVGID_94_">
			<use xlink:href="#SVGID_93_"  overflow="visible"/>
		</clipPath>
		<g clip-path="url(#SVGID_94_)">
			
				<text transform="matrix(1.748456e-007 -1.0016 1 1.751209e-007 458.6777 186.9121)" fill="#595959" font-family="'Calibri'" font-size="9">161</text>
		</g>
	</g>
	<g>
		<defs>
			<rect id="SVGID_95_" width="707.4" height="216.341"/>
		</defs>
		<clipPath id="SVGID_96_">
			<use xlink:href="#SVGID_95_"  overflow="visible"/>
		</clipPath>
		<g clip-path="url(#SVGID_96_)">
			
				<text transform="matrix(1.748456e-007 -1.0016 1 1.751209e-007 471.9824 186.9121)" fill="#595959" font-family="'Calibri'" font-size="9">166</text>
		</g>
	</g>
	<g>
		<defs>
			<rect id="SVGID_97_" width="707.4" height="216.341"/>
		</defs>
		<clipPath id="SVGID_98_">
			<use xlink:href="#SVGID_97_"  overflow="visible"/>
		</clipPath>
		<g clip-path="url(#SVGID_98_)">
			
				<text transform="matrix(1.748456e-007 -1.0016 1 1.751209e-007 485.2793 186.9121)" fill="#595959" font-family="'Calibri'" font-size="9">171</text>
		</g>
	</g>
	<g>
		<defs>
			<rect id="SVGID_99_" width="707.4" height="216.341"/>
		</defs>
		<clipPath id="SVGID_100_">
			<use xlink:href="#SVGID_99_"  overflow="visible"/>
		</clipPath>
		<g clip-path="url(#SVGID_100_)">
			
				<text transform="matrix(1.748456e-007 -1.0016 1 1.751209e-007 498.584 186.9121)" fill="#595959" font-family="'Calibri'" font-size="9">176</text>
		</g>
	</g>
	<g>
		<defs>
			<rect id="SVGID_101_" width="707.4" height="216.341"/>
		</defs>
		<clipPath id="SVGID_102_">
			<use xlink:href="#SVGID_101_"  overflow="visible"/>
		</clipPath>
		<g clip-path="url(#SVGID_102_)">
			
				<text transform="matrix(1.748456e-007 -1.0016 1 1.751209e-007 511.8887 186.9121)" fill="#595959" font-family="'Calibri'" font-size="9">181</text>
		</g>
	</g>
	<g>
		<defs>
			<rect id="SVGID_103_" width="707.4" height="216.341"/>
		</defs>
		<clipPath id="SVGID_104_">
			<use xlink:href="#SVGID_103_"  overflow="visible"/>
		</clipPath>
		<g clip-path="url(#SVGID_104_)">
			
				<text transform="matrix(1.748456e-007 -1.0016 1 1.751209e-007 525.1934 186.9121)" fill="#595959" font-family="'Calibri'" font-size="9">186</text>
		</g>
	</g>
	<g>
		<defs>
			<rect id="SVGID_105_" width="707.4" height="216.341"/>
		</defs>
		<clipPath id="SVGID_106_">
			<use xlink:href="#SVGID_105_"  overflow="visible"/>
		</clipPath>
		<g clip-path="url(#SVGID_106_)">
			
				<text transform="matrix(1.748456e-007 -1.0016 1 1.751209e-007 538.498 186.9131)" fill="#595959" font-family="'Calibri'" font-size="9">191</text>
		</g>
	</g>
	<g>
		<defs>
			<rect id="SVGID_107_" width="707.4" height="216.341"/>
		</defs>
		<clipPath id="SVGID_108_">
			<use xlink:href="#SVGID_107_"  overflow="visible"/>
		</clipPath>
		<g clip-path="url(#SVGID_108_)">
			
				<text transform="matrix(1.748456e-007 -1.0016 1 1.751209e-007 551.8027 186.9131)" fill="#595959" font-family="'Calibri'" font-size="9">196</text>
		</g>
	</g>
	<g>
		<defs>
			<rect id="SVGID_109_" width="707.4" height="216.341"/>
		</defs>
		<clipPath id="SVGID_110_">
			<use xlink:href="#SVGID_109_"  overflow="visible"/>
		</clipPath>
		<g clip-path="url(#SVGID_110_)">
			
				<text transform="matrix(1.748456e-007 -1.0016 1 1.751209e-007 565.1074 186.9131)" fill="#595959" font-family="'Calibri'" font-size="9">201</text>
		</g>
	</g>
	<g>
		<defs>
			<rect id="SVGID_111_" width="707.4" height="216.341"/>
		</defs>
		<clipPath id="SVGID_112_">
			<use xlink:href="#SVGID_111_"  overflow="visible"/>
		</clipPath>
		<g clip-path="url(#SVGID_112_)">
			
				<text transform="matrix(1.748456e-007 -1.0016 1 1.751209e-007 578.4043 186.9131)" fill="#595959" font-family="'Calibri'" font-size="9">206</text>
		</g>
	</g>
	<g>
		<defs>
			<rect id="SVGID_113_" width="707.4" height="216.341"/>
		</defs>
		<clipPath id="SVGID_114_">
			<use xlink:href="#SVGID_113_"  overflow="visible"/>
		</clipPath>
		<g clip-path="url(#SVGID_114_)">
			
				<text transform="matrix(1.748456e-007 -1.0016 1 1.751209e-007 591.709 186.9131)" fill="#595959" font-family="'Calibri'" font-size="9">211</text>
		</g>
	</g>
	<g>
		<defs>
			<rect id="SVGID_115_" width="707.4" height="216.341"/>
		</defs>
		<clipPath id="SVGID_116_">
			<use xlink:href="#SVGID_115_"  overflow="visible"/>
		</clipPath>
		<g clip-path="url(#SVGID_116_)">
			
				<text transform="matrix(1.748456e-007 -1.0016 1 1.751209e-007 605.0137 186.9131)" fill="#595959" font-family="'Calibri'" font-size="9">216</text>
		</g>
	</g>
	<g>
		<defs>
			<rect id="SVGID_117_" width="707.4" height="216.341"/>
		</defs>
		<clipPath id="SVGID_118_">
			<use xlink:href="#SVGID_117_"  overflow="visible"/>
		</clipPath>
		<g clip-path="url(#SVGID_118_)">
			
				<text transform="matrix(1.748456e-007 -1.0016 1 1.751209e-007 618.3184 186.9131)" fill="#595959" font-family="'Calibri'" font-size="9">221</text>
		</g>
	</g>
	<g>
		<defs>
			<rect id="SVGID_119_" width="707.4" height="216.341"/>
		</defs>
		<clipPath id="SVGID_120_">
			<use xlink:href="#SVGID_119_"  overflow="visible"/>
		</clipPath>
		<g clip-path="url(#SVGID_120_)">
			
				<text transform="matrix(1.748456e-007 -1.0016 1 1.751209e-007 631.623 186.9131)" fill="#595959" font-family="'Calibri'" font-size="9">226</text>
		</g>
	</g>
	<g>
		<defs>
			<rect id="SVGID_121_" width="707.4" height="216.341"/>
		</defs>
		<clipPath id="SVGID_122_">
			<use xlink:href="#SVGID_121_"  overflow="visible"/>
		</clipPath>
		<g clip-path="url(#SVGID_122_)">
			
				<text transform="matrix(1.748456e-007 -1.0016 1 1.751209e-007 644.9277 186.9131)" fill="#595959" font-family="'Calibri'" font-size="9">231</text>
		</g>
	</g>
	<g>
		<defs>
			<rect id="SVGID_123_" width="707.4" height="216.341"/>
		</defs>
		<clipPath id="SVGID_124_">
			<use xlink:href="#SVGID_123_"  overflow="visible"/>
		</clipPath>
		<g clip-path="url(#SVGID_124_)">
			
				<text transform="matrix(1.748456e-007 -1.0016 1 1.751209e-007 658.2324 186.9131)" fill="#595959" font-family="'Calibri'" font-size="9">236</text>
		</g>
	</g>
	<g>
		<defs>
			<rect id="SVGID_125_" width="707.4" height="216.341"/>
		</defs>
		<clipPath id="SVGID_126_">
			<use xlink:href="#SVGID_125_"  overflow="visible"/>
		</clipPath>
		<g clip-path="url(#SVGID_126_)">
			
				<text transform="matrix(1.748456e-007 -1.0016 1 1.751209e-007 671.5293 186.9131)" fill="#595959" font-family="'Calibri'" font-size="9">241</text>
		</g>
	</g>
	<g>
		<defs>
			<rect id="SVGID_127_" width="707.4" height="216.341"/>
		</defs>
		<clipPath id="SVGID_128_">
			<use xlink:href="#SVGID_127_"  overflow="visible"/>
		</clipPath>
		<g clip-path="url(#SVGID_128_)">
			
				<text transform="matrix(1.748456e-007 -1.0016 1 1.751209e-007 684.834 186.9131)" fill="#595959" font-family="'Calibri'" font-size="9">246</text>
		</g>
	</g>
	<g>
		<defs>
			<rect id="SVGID_129_" width="707.4" height="216.341"/>
		</defs>
		<clipPath id="SVGID_130_">
			<use xlink:href="#SVGID_129_"  overflow="visible"/>
		</clipPath>
		<g clip-path="url(#SVGID_130_)">
			
				<text transform="matrix(1.748456e-007 -1.0016 1 1.751209e-007 698.1387 186.9131)" fill="#595959" font-family="'Calibri'" font-size="9">251</text>
		</g>
	</g>
	<g>
		<defs>
			<polygon id="SVGID_131_" points="0,216.341 707.4,216.341 707.4,0 0,0 0,216.341 			"/>
		</defs>
		<clipPath id="SVGID_132_">
			<use xlink:href="#SVGID_131_"  overflow="visible"/>
		</clipPath>
		
			<line clip-path="url(#SVGID_132_)" fill="none" stroke="#70AD47" stroke-width="2.2836" stroke-linecap="round" stroke-linejoin="round" stroke-miterlimit="10" x1="312.06" y1="201.858" x2="331.26" y2="201.858"/>
	</g>
	<g>
		<defs>
			<rect id="SVGID_133_" width="707.4" height="216.341"/>
		</defs>
		<clipPath id="SVGID_134_">
			<use xlink:href="#SVGID_133_"  overflow="visible"/>
		</clipPath>
		<g clip-path="url(#SVGID_134_)">
			<text transform="matrix(0.9984 0 0 1 333.2725 204.4033)"><tspan x="0" y="0" fill="#595959" font-family="'Calibri'" font-size="9.0142">F</tspan><tspan x="4.087" y="0" fill="#595959" font-family="'Calibri'" font-size="9.0142">i</tspan><tspan x="6.247" y="0" fill="#595959" font-family="'Calibri'" font-size="9.0142">l</tspan><tspan x="8.297" y="0" fill="#595959" font-family="'Calibri'" font-size="9.0142">t</tspan><tspan x="11.307" y="0" fill="#595959" font-family="'Calibri'" font-size="9.0142">e</tspan><tspan x="15.757" y="0" fill="#595959" font-family="'Calibri'" font-size="9.0142">d</tspan></text>
		</g>
	</g>
	<g>
		<defs>
			<polygon id="SVGID_135_" points="0,216.341 707.4,216.341 707.4,0 0,0 0,216.341 			"/>
		</defs>
		<clipPath id="SVGID_136_">
			<use xlink:href="#SVGID_135_"  overflow="visible"/>
		</clipPath>
		
			<line clip-path="url(#SVGID_136_)" fill="none" stroke="#7C7C7C" stroke-width="2.2836" stroke-linecap="round" stroke-linejoin="round" stroke-miterlimit="10" x1="362.1" y1="201.858" x2="381.3" y2="201.858"/>
	</g>
	<g>
		<defs>
			<rect id="SVGID_137_" width="707.4" height="216.341"/>
		</defs>
		<clipPath id="SVGID_138_">
			<use xlink:href="#SVGID_137_"  overflow="visible"/>
		</clipPath>
		<g clip-path="url(#SVGID_138_)">
			<text transform="matrix(0.9984 0 0 1 383.3662 204.4033)"><tspan x="0" y="0" fill="#595959" font-family="'Calibri'" font-size="9.0142">R</tspan><tspan x="4.922" y="0" fill="#595959" font-family="'Calibri'" font-size="9.0142">aw</tspan></text>
		</g>
	</g>
</g>
</svg>
