<?xml version="1.0" encoding="utf-8"?>
<!-- Generator: Adobe Illustrator 16.0.0, SVG Export Plug-In . SVG Version: 6.00 Build 0)  -->
<!DOCTYPE svg PUBLIC "-//W3C//DTD SVG 1.1//EN" "http://www.w3.org/Graphics/SVG/1.1/DTD/svg11.dtd">
<svg version="1.1" id="Layer_1" xmlns="http://www.w3.org/2000/svg" xmlns:xlink="http://www.w3.org/1999/xlink" x="0px" y="0px"
	 width="442.402px" height="127.284px" viewBox="0 0 442.402 127.284" enable-background="new 0 0 442.402 127.284"
	 xml:space="preserve">
<g>
	<polygon fill-rule="evenodd" clip-rule="evenodd" fill="#A5A5A5" points="0.501,26.053 221.201,26.053 221.201,39.063 
		0.501,39.063 0.501,26.053 	"/>
	<polygon fill-rule="evenodd" clip-rule="evenodd" fill="#A5A5A5" points="221.201,26.053 441.901,26.053 441.901,39.063 
		221.201,39.063 221.201,26.053 	"/>
	<polygon fill-rule="evenodd" clip-rule="evenodd" fill="#F0F0F0" points="0.501,39.063 221.201,39.063 221.201,65.896 
		0.501,65.896 0.501,39.063 	"/>
	<polygon fill-rule="evenodd" clip-rule="evenodd" fill="#F0F0F0" points="221.201,39.063 441.901,39.063 441.901,65.896 
		221.201,65.896 221.201,39.063 	"/>
	<polygon fill-rule="evenodd" clip-rule="evenodd" fill="#FFFFFF" points="0.501,65.896 221.201,65.896 221.201,92.728 
		0.501,92.728 0.501,65.896 	"/>
	<polygon fill-rule="evenodd" clip-rule="evenodd" fill="#FFFFFF" points="221.201,65.896 441.901,65.896 441.901,92.728 
		221.201,92.728 221.201,65.896 	"/>
	<polygon fill-rule="evenodd" clip-rule="evenodd" fill="#F0F0F0" points="0.501,92.728 221.201,92.728 221.201,105.739 
		0.501,105.739 0.501,92.728 	"/>
	<polygon fill-rule="evenodd" clip-rule="evenodd" fill="#F0F0F0" points="221.201,92.728 441.901,92.728 441.901,105.739 
		221.201,105.739 221.201,92.728 	"/>
	
		<line fill="none" stroke="#A5A5A5" stroke-width="1.0016" stroke-linejoin="round" stroke-miterlimit="10" x1="0.001" y1="39.063" x2="442.401" y2="39.063"/>
	
		<line fill="none" stroke="#A5A5A5" stroke-width="1.0016" stroke-linejoin="round" stroke-miterlimit="10" x1="0.001" y1="65.896" x2="442.401" y2="65.896"/>
	
		<line fill="none" stroke="#A5A5A5" stroke-width="1.0016" stroke-linejoin="round" stroke-miterlimit="10" x1="0.001" y1="92.728" x2="442.401" y2="92.728"/>
	
		<line fill="none" stroke="#A5A5A5" stroke-width="1.0016" stroke-linejoin="round" stroke-miterlimit="10" x1="0.501" y1="25.552" x2="0.501" y2="106.239"/>
	
		<line fill="none" stroke="#A5A5A5" stroke-width="1.0016" stroke-linejoin="round" stroke-miterlimit="10" x1="441.901" y1="25.552" x2="441.901" y2="106.239"/>
	
		<line fill="none" stroke="#A5A5A5" stroke-width="1.0016" stroke-linejoin="round" stroke-miterlimit="10" x1="0.001" y1="26.053" x2="442.401" y2="26.053"/>
	
		<line fill="none" stroke="#A5A5A5" stroke-width="1.0016" stroke-linejoin="round" stroke-miterlimit="10" x1="0.001" y1="105.739" x2="442.401" y2="105.739"/>
	<g>
		<defs>
			<rect id="SVGID_1_" x="0.461" y="-12.98" width="220.68" height="91.103"/>
		</defs>
		<clipPath id="SVGID_2_">
			<use xlink:href="#SVGID_1_"  overflow="visible"/>
		</clipPath>
		<g clip-path="url(#SVGID_2_)">
			<text transform="matrix(0.9984 0 0 1 5.9087 36.3877)"><tspan x="0" y="0" fill="#FFFFFF" font-family="'Calibri-Bold'" font-size="9.9757">C</tspan><tspan x="5.28" y="0" fill="#FFFFFF" font-family="'Calibri-Bold'" font-size="9.9757">o</tspan><tspan x="10.683" y="0" fill="#FFFFFF" font-family="'Calibri-Bold'" font-size="9.9757">mp</tspan><tspan x="24.251" y="0" fill="#FFFFFF" font-family="'Calibri-Bold'" font-size="9.9757">o</tspan><tspan x="29.654" y="0" fill="#FFFFFF" font-family="'Calibri-Bold'" font-size="9.9757">n</tspan><tspan x="35.057" y="0" fill="#FFFFFF" font-family="'Calibri-Bold'" font-size="9.9757">e</tspan><tspan x="40.099" y="0" fill="#FFFFFF" font-family="'Calibri-Bold'" font-size="9.9757">n</tspan><tspan x="45.502" y="0" fill="#FFFFFF" font-family="'Calibri-Bold'" font-size="9.9757">t</tspan></text>
		</g>
	</g>
	<g>
		<defs>
			<rect id="SVGID_3_" x="221.141" y="-12.98" width="220.8" height="91.103"/>
		</defs>
		<clipPath id="SVGID_4_">
			<use xlink:href="#SVGID_3_"  overflow="visible"/>
		</clipPath>
		<g clip-path="url(#SVGID_4_)">
			<text transform="matrix(0.9984 0 0 1 226.604 36.3877)"><tspan x="0" y="0" fill="#FFFFFF" font-family="'Calibri-Bold'" font-size="9.9757">R</tspan><tspan x="5.646" y="0" fill="#FFFFFF" font-family="'Calibri-Bold'" font-size="9.9757">e</tspan><tspan x="10.688" y="0" fill="#FFFFFF" font-family="'Calibri-Bold'" font-size="9.9757">s</tspan><tspan x="14.658" y="0" fill="#FFFFFF" font-family="'Calibri-Bold'" font-size="9.9757">p</tspan><tspan x="20.061" y="0" fill="#FFFFFF" font-family="'Calibri-Bold'" font-size="9.9757">o</tspan><tspan x="25.463" y="0" fill="#FFFFFF" font-family="'Calibri-Bold'" font-size="9.9757">n</tspan><tspan x="30.866" y="0" fill="#FFFFFF" font-family="'Calibri-Bold'" font-size="9.9757">s</tspan><tspan x="34.836" y="0" fill="#FFFFFF" font-family="'Calibri-Bold'" font-size="9.9757">i</tspan><tspan x="37.246" y="0" fill="#FFFFFF" font-family="'Calibri-Bold'" font-size="9.9757">b</tspan><tspan x="42.649" y="0" fill="#FFFFFF" font-family="'Calibri-Bold'" font-size="9.9757">ili</tspan><tspan x="49.88" y="0" fill="#FFFFFF" font-family="'Calibri-Bold'" font-size="9.9757">t</tspan><tspan x="53.358" y="0" fill="#FFFFFF" font-family="'Calibri-Bold'" font-size="9.9757">y</tspan></text>
		</g>
	</g>
	<g>
		<defs>
			<rect id="SVGID_5_" x="0.461" width="220.68" height="91.103"/>
		</defs>
		<clipPath id="SVGID_6_">
			<use xlink:href="#SVGID_5_"  overflow="visible"/>
		</clipPath>
		<g clip-path="url(#SVGID_6_)">
			<text transform="matrix(0.9984 0 0 1 5.9087 49.4033)"><tspan x="0" y="0" font-family="'Calibri-Bold'" font-size="9.9757">S</tspan><tspan x="4.695" y="0" font-family="'Calibri-Bold'" font-size="9.9757">hu</tspan><tspan x="15.501" y="0" font-family="'Calibri-Bold'" font-size="9.9757">tte</tspan><tspan x="27.11" y="0" font-family="'Calibri-Bold'" font-size="9.9757">r</tspan><tspan x="30.706" y="0" font-family="'Calibri-Bold'" font-size="9.9757"> </tspan><tspan x="32.871" y="0" font-family="'Calibri-Bold'" font-size="9.9757">D</tspan><tspan x="39.129" y="0" font-family="'Calibri-Bold'" font-size="9.9757">ete</tspan><tspan x="52.691" y="0" font-family="'Calibri-Bold'" font-size="9.9757">c</tspan><tspan x="56.896" y="0" font-family="'Calibri-Bold'" font-size="9.9757">t</tspan><tspan x="60.374" y="0" font-family="'Calibri-Bold'" font-size="9.9757">o</tspan><tspan x="65.777" y="0" font-family="'Calibri-Bold'" font-size="9.9757">r</tspan></text>
		</g>
	</g>
	<g>
		<defs>
			<rect id="SVGID_7_" x="221.141" y="-41.465" width="220.8" height="187.855"/>
		</defs>
		<clipPath id="SVGID_8_">
			<use xlink:href="#SVGID_7_"  overflow="visible"/>
		</clipPath>
		<g clip-path="url(#SVGID_8_)">
			<text transform="matrix(0.9984 0 0 1 226.604 49.4033)"><tspan x="0" y="0" font-family="'Calibri'" font-size="9.9757">D</tspan><tspan x="6.138" y="0" font-family="'Calibri'" font-size="9.9757">e</tspan><tspan x="11.071" y="0" font-family="'Calibri'" font-size="9.9757">t</tspan><tspan x="14.432" y="0" font-family="'Calibri'" font-size="9.9757">e</tspan><tspan x="19.366" y="0" font-family="'Calibri'" font-size="9.9757">c</tspan><tspan x="23.574" y="0" font-family="'Calibri'" font-size="9.9757">t</tspan><tspan x="26.935" y="0" font-family="'Calibri'" font-size="9.9757"> </tspan><tspan x="29.45" y="0" font-family="'Calibri'" font-size="9.9757">a</tspan><tspan x="34.249" y="0" font-family="'Calibri'" font-size="9.9757"> </tspan><tspan x="36.414" y="0" font-family="'Calibri'" font-size="9.9757">bu</tspan><tspan x="46.976" y="0" font-family="'Calibri'" font-size="9.9757">tto</tspan><tspan x="58.604" y="0" font-family="'Calibri'" font-size="9.9757">n</tspan><tspan x="63.885" y="0" font-family="'Calibri'" font-size="9.9757"> </tspan><tspan x="66.05" y="0" font-family="'Calibri'" font-size="9.9757">p</tspan><tspan x="71.331" y="0" font-family="'Calibri'" font-size="9.9757">r</tspan><tspan x="74.809" y="0" font-family="'Calibri'" font-size="9.9757">e</tspan><tspan x="79.743" y="0" font-family="'Calibri'" font-size="9.9757">ss</tspan><tspan x="87.446" y="0" font-family="'Calibri'" font-size="9.9757"> </tspan><tspan x="89.841" y="0" font-family="'Calibri'" font-size="9.9757">a</tspan><tspan x="94.64" y="0" font-family="'Calibri'" font-size="9.9757">nd</tspan><tspan x="105.202" y="0" font-family="'Calibri'" font-size="9.9757"> </tspan><tspan x="107.367" y="0" font-family="'Calibri'" font-size="9.9757">c</tspan><tspan x="111.575" y="0" font-family="'Calibri'" font-size="9.9757">a</tspan><tspan x="116.373" y="0" font-family="'Calibri'" font-size="9.9757">p</tspan><tspan x="121.655" y="0" font-family="'Calibri'" font-size="9.9757">t</tspan><tspan x="125.016" y="0" font-family="'Calibri'" font-size="9.9757">u</tspan><tspan x="130.297" y="0" font-family="'Calibri'" font-size="9.9757">r</tspan><tspan x="133.775" y="0" font-family="'Calibri'" font-size="9.9757">e</tspan><tspan x="138.708" y="0" font-family="'Calibri'" font-size="9.9757"> </tspan><tspan x="140.983" y="0" font-family="'Calibri'" font-size="9.9757">i</tspan><tspan x="143.273" y="0" font-family="'Calibri'" font-size="9.9757">m</tspan><tspan x="151.212" y="0" font-family="'Calibri'" font-size="9.9757">a</tspan><tspan x="156.01" y="0" font-family="'Calibri'" font-size="9.9757">g</tspan><tspan x="160.706" y="0" font-family="'Calibri'" font-size="9.9757">e</tspan><tspan x="165.639" y="0" font-family="'Calibri'" font-size="9.9757"> </tspan><tspan x="168.035" y="0" font-family="'Calibri'" font-size="9.9757">u</tspan><tspan x="173.315" y="0" font-family="'Calibri'" font-size="9.9757">s</tspan><tspan x="177.167" y="0" font-family="'Calibri'" font-size="9.9757">i</tspan><tspan x="179.456" y="0" font-family="'Calibri'" font-size="9.9757">n</tspan><tspan x="184.738" y="0" font-family="'Calibri'" font-size="9.9757">g </tspan></text>
		</g>
	</g>
	<g>
		<defs>
			<rect id="SVGID_9_" x="221.141" y="-41.465" width="220.8" height="187.855"/>
		</defs>
		<clipPath id="SVGID_10_">
			<use xlink:href="#SVGID_9_"  overflow="visible"/>
		</clipPath>
		<g clip-path="url(#SVGID_10_)">
			<text transform="matrix(0.9984 0 0 1 226.604 63.2236)"><tspan x="0" y="0" font-family="'Calibri'" font-size="9.9757">r</tspan><tspan x="3.478" y="0" font-family="'Calibri'" font-size="9.9757">a</tspan><tspan x="8.276" y="0" font-family="'Calibri'" font-size="9.9757">s</tspan><tspan x="12.128" y="0" font-family="'Calibri'" font-size="9.9757">pb</tspan><tspan x="22.69" y="0" font-family="'Calibri'" font-size="9.9757">e</tspan><tspan x="27.624" y="0" font-family="'Calibri'" font-size="9.9757">rr</tspan><tspan x="34.579" y="0" font-family="'Calibri'" font-size="9.9757">y</tspan><tspan x="39.145" y="0" font-family="'Calibri'" font-size="9.9757"> </tspan><tspan x="41.42" y="0" font-family="'Calibri'" font-size="9.9757">p</tspan><tspan x="46.701" y="0" font-family="'Calibri'" font-size="9.9757">i</tspan><tspan x="48.99" y="0" font-family="'Calibri'" font-size="9.9757"> </tspan><tspan x="51.156" y="0" font-family="'Calibri'" font-size="9.9757">c</tspan><tspan x="55.364" y="0" font-family="'Calibri'" font-size="9.9757">a</tspan><tspan x="60.162" y="0" font-family="'Calibri'" font-size="9.9757">me</tspan><tspan x="73.035" y="0" font-family="'Calibri'" font-size="9.9757">r</tspan><tspan x="76.512" y="0" font-family="'Calibri'" font-size="9.9757">a</tspan><tspan x="81.311" y="0" font-family="'Calibri'" font-size="9.9757"> </tspan><tspan x="83.706" y="0" font-family="'Calibri'" font-size="9.9757">m</tspan><tspan x="91.645" y="0" font-family="'Calibri'" font-size="9.9757">o</tspan><tspan x="96.925" y="0" font-family="'Calibri'" font-size="9.9757">du</tspan><tspan x="107.487" y="0" font-family="'Calibri'" font-size="9.9757">le</tspan></text>
		</g>
	</g>
	<g>
		<defs>
			<rect id="SVGID_11_" x="0.461" y="26.802" width="220.68" height="91.104"/>
		</defs>
		<clipPath id="SVGID_12_">
			<use xlink:href="#SVGID_11_"  overflow="visible"/>
		</clipPath>
		<g clip-path="url(#SVGID_12_)">
			<text transform="matrix(0.9984 0 0 1 5.9087 76.2314)"><tspan x="0" y="0" font-family="'Calibri-Bold'" font-size="9.9757">I</tspan><tspan x="2.65" y="0" font-family="'Calibri-Bold'" font-size="9.9757">m</tspan><tspan x="10.814" y="0" font-family="'Calibri-Bold'" font-size="9.9757">a</tspan><tspan x="15.739" y="0" font-family="'Calibri-Bold'" font-size="9.9757">g</tspan><tspan x="20.429" y="0" font-family="'Calibri-Bold'" font-size="9.9757">e</tspan><tspan x="25.471" y="0" font-family="'Calibri-Bold'" font-size="9.9757"> </tspan><tspan x="27.636" y="0" font-family="'Calibri-Bold'" font-size="9.9757">P</tspan><tspan x="32.925" y="0" font-family="'Calibri-Bold'" font-size="9.9757">r</tspan><tspan x="36.521" y="0" font-family="'Calibri-Bold'" font-size="9.9757">o</tspan><tspan x="41.924" y="0" font-family="'Calibri-Bold'" font-size="9.9757">c</tspan><tspan x="46.129" y="0" font-family="'Calibri-Bold'" font-size="9.9757">e</tspan><tspan x="51.17" y="0" font-family="'Calibri-Bold'" font-size="9.9757">ss</tspan><tspan x="59.11" y="0" font-family="'Calibri-Bold'" font-size="9.9757">i</tspan><tspan x="61.52" y="0" font-family="'Calibri-Bold'" font-size="9.9757">n</tspan><tspan x="66.923" y="0" font-family="'Calibri-Bold'" font-size="9.9757">g</tspan></text>
		</g>
	</g>
	<g>
		<defs>
			<rect id="SVGID_13_" x="221.141" y="-14.663" width="220.8" height="187.855"/>
		</defs>
		<clipPath id="SVGID_14_">
			<use xlink:href="#SVGID_13_"  overflow="visible"/>
		</clipPath>
		<g clip-path="url(#SVGID_14_)">
			<text transform="matrix(0.9984 0 0 1 226.604 76.2314)"><tspan x="0" y="0" font-family="'Calibri'" font-size="9.9757">A</tspan><tspan x="5.772" y="0" font-family="'Calibri'" font-size="9.9757">n</tspan><tspan x="11.053" y="0" font-family="'Calibri'" font-size="9.9757">a</tspan><tspan x="15.852" y="0" font-family="'Calibri'" font-size="9.9757">l</tspan><tspan x="18.141" y="0" font-family="'Calibri'" font-size="9.9757">y</tspan><tspan x="22.706" y="0" font-family="'Calibri'" font-size="9.9757">z</tspan><tspan x="26.666" y="0" font-family="'Calibri'" font-size="9.9757">e</tspan><tspan x="31.6" y="0" font-family="'Calibri'" font-size="9.9757"> </tspan><tspan x="33.766" y="0" font-family="'Calibri'" font-size="9.9757">i</tspan><tspan x="36.055" y="0" font-family="'Calibri'" font-size="9.9757">m</tspan><tspan x="43.994" y="0" font-family="'Calibri'" font-size="9.9757">a</tspan><tspan x="48.792" y="0" font-family="'Calibri'" font-size="9.9757">g</tspan><tspan x="53.488" y="0" font-family="'Calibri'" font-size="9.9757">e</tspan><tspan x="58.421" y="0" font-family="'Calibri'" font-size="9.9757">.</tspan><tspan x="60.94" y="0" font-family="'Calibri'" font-size="9.9757"> </tspan><tspan x="63.334" y="0" font-family="'Calibri'" font-size="9.9757">L</tspan><tspan x="67.538" y="0" font-family="'Calibri'" font-size="9.9757">oo</tspan><tspan x="78.099" y="0" font-family="'Calibri'" font-size="9.9757">k</tspan><tspan x="82.664" y="0" font-family="'Calibri'" font-size="9.9757">i</tspan><tspan x="84.953" y="0" font-family="'Calibri'" font-size="9.9757">n</tspan><tspan x="90.235" y="0" font-family="'Calibri'" font-size="9.9757">g</tspan><tspan x="94.93" y="0" font-family="'Calibri'" font-size="9.9757"> </tspan><tspan x="97.096" y="0" font-family="'Calibri'" font-size="9.9757">f</tspan><tspan x="100.11" y="0" font-family="'Calibri'" font-size="9.9757">o</tspan><tspan x="105.39" y="0" font-family="'Calibri'" font-size="9.9757">r</tspan><tspan x="108.868" y="0" font-family="'Calibri'" font-size="9.9757"> </tspan><tspan x="111.144" y="0" font-family="'Calibri'" font-size="9.9757">hu</tspan><tspan x="121.706" y="0" font-family="'Calibri'" font-size="9.9757">m</tspan><tspan x="129.645" y="0" font-family="'Calibri'" font-size="9.9757">a</tspan><tspan x="134.443" y="0" font-family="'Calibri'" font-size="9.9757">n</tspan></text>
		</g>
	</g>
	<text transform="matrix(0.9984 0 0 1 366.1665 76.2314)" font-family="'Calibri'" font-size="9.9757">-</text>
	<text transform="matrix(0.9984 0 0 1 369.1665 76.2314)"><tspan x="0" y="0" font-family="'Calibri'" font-size="9.9757">li</tspan><tspan x="4.578" y="0" font-family="'Calibri'" font-size="9.9757">k</tspan><tspan x="9.143" y="0" font-family="'Calibri'" font-size="9.9757">e</tspan><tspan x="14.077" y="0" font-family="'Calibri'" font-size="9.9757"> </tspan><tspan x="16.242" y="0" font-family="'Calibri'" font-size="9.9757">f</tspan><tspan x="19.257" y="0" font-family="'Calibri'" font-size="9.9757">a</tspan><tspan x="24.055" y="0" font-family="'Calibri'" font-size="9.9757">c</tspan><tspan x="28.263" y="0" font-family="'Calibri'" font-size="9.9757">e</tspan><tspan x="33.197" y="0" font-family="'Calibri'" font-size="9.9757"> a</tspan><tspan x="40.27" y="0" font-family="'Calibri'" font-size="9.9757">nd</tspan><tspan x="50.833" y="0" font-family="'Calibri'" font-size="9.9757"> </tspan></text>
	<g>
		<defs>
			<rect id="SVGID_15_" x="221.141" y="-14.663" width="220.8" height="187.855"/>
		</defs>
		<clipPath id="SVGID_16_">
			<use xlink:href="#SVGID_15_"  overflow="visible"/>
		</clipPath>
		<g clip-path="url(#SVGID_16_)">
			<text transform="matrix(0.9984 0 0 1 226.604 90.0596)"><tspan x="0" y="0" font-family="'Calibri'" font-size="9.9757">w</tspan><tspan x="7.091" y="0" font-family="'Calibri'" font-size="9.9757">h</tspan><tspan x="12.372" y="0" font-family="'Calibri'" font-size="9.9757">o</tspan><tspan x="17.653" y="0" font-family="'Calibri'" font-size="9.9757">l</tspan><tspan x="19.942" y="0" font-family="'Calibri'" font-size="9.9757">e</tspan><tspan x="24.876" y="0" font-family="'Calibri'" font-size="9.9757"> </tspan><tspan x="27.151" y="0" font-family="'Calibri'" font-size="9.9757">b</tspan><tspan x="32.432" y="0" font-family="'Calibri'" font-size="9.9757">o</tspan><tspan x="37.713" y="0" font-family="'Calibri'" font-size="9.9757">d</tspan><tspan x="42.993" y="0" font-family="'Calibri'" font-size="9.9757">y</tspan></text>
		</g>
	</g>
	<g>
		<defs>
			<rect id="SVGID_17_" x="0.461" y="53.724" width="220.68" height="90.984"/>
		</defs>
		<clipPath id="SVGID_18_">
			<use xlink:href="#SVGID_17_"  overflow="visible"/>
		</clipPath>
		<g clip-path="url(#SVGID_18_)">
			<text transform="matrix(0.9984 0 0 1 5.9087 103.0674)"><tspan x="0" y="0" font-family="'Calibri-Bold'" font-size="9.9757">S</tspan><tspan x="4.695" y="0" font-family="'Calibri-Bold'" font-size="9.9757">o</tspan><tspan x="10.098" y="0" font-family="'Calibri-Bold'" font-size="9.9757">und</tspan><tspan x="26.307" y="0" font-family="'Calibri-Bold'" font-size="9.9757"> </tspan><tspan x="28.473" y="0" font-family="'Calibri-Bold'" font-size="9.9757">G</tspan><tspan x="34.839" y="0" font-family="'Calibri-Bold'" font-size="9.9757">e</tspan><tspan x="39.881" y="0" font-family="'Calibri-Bold'" font-size="9.9757">n</tspan><tspan x="45.284" y="0" font-family="'Calibri-Bold'" font-size="9.9757">e</tspan><tspan x="50.326" y="0" font-family="'Calibri-Bold'" font-size="9.9757">r</tspan><tspan x="53.922" y="0" font-family="'Calibri-Bold'" font-size="9.9757">a</tspan><tspan x="58.846" y="0" font-family="'Calibri-Bold'" font-size="9.9757">t</tspan><tspan x="62.325" y="0" font-family="'Calibri-Bold'" font-size="9.9757">o</tspan><tspan x="67.728" y="0" font-family="'Calibri-Bold'" font-size="9.9757">r</tspan></text>
		</g>
	</g>
	<g>
		<defs>
			<rect id="SVGID_19_" x="221.141" y="53.724" width="220.8" height="90.984"/>
		</defs>
		<clipPath id="SVGID_20_">
			<use xlink:href="#SVGID_19_"  overflow="visible"/>
		</clipPath>
		<g clip-path="url(#SVGID_20_)">
			<text transform="matrix(0.9984 0 0 1 226.604 103.0674)"><tspan x="0" y="0" font-family="'Calibri'" font-size="9.9757">O</tspan><tspan x="6.605" y="0" font-family="'Calibri'" font-size="9.9757">u</tspan><tspan x="11.886" y="0" font-family="'Calibri'" font-size="9.9757">t</tspan><tspan x="15.248" y="0" font-family="'Calibri'" font-size="9.9757">pu</tspan><tspan x="25.81" y="0" font-family="'Calibri'" font-size="9.9757">t</tspan><tspan x="29.171" y="0" font-family="'Calibri'" font-size="9.9757"> </tspan><tspan x="31.336" y="0" font-family="'Calibri'" font-size="9.9757">a </tspan><tspan x="38.41" y="0" font-family="'Calibri'" font-size="9.9757">b</tspan><tspan x="43.691" y="0" font-family="'Calibri'" font-size="9.9757">ee</tspan><tspan x="53.558" y="0" font-family="'Calibri'" font-size="9.9757">p</tspan><tspan x="58.839" y="0" font-family="'Calibri'" font-size="9.9757"> </tspan><tspan x="61.114" y="0" font-family="'Calibri'" font-size="9.9757">s</tspan><tspan x="64.966" y="0" font-family="'Calibri'" font-size="9.9757">o</tspan><tspan x="70.247" y="0" font-family="'Calibri'" font-size="9.9757">und</tspan><tspan x="86.089" y="0" font-family="'Calibri'" font-size="9.9757"> </tspan><tspan x="88.255" y="0" font-family="'Calibri'" font-size="9.9757">t</tspan><tspan x="91.616" y="0" font-family="'Calibri'" font-size="9.9757">h</tspan><tspan x="96.897" y="0" font-family="'Calibri'" font-size="9.9757">r</tspan><tspan x="100.375" y="0" font-family="'Calibri'" font-size="9.9757">o</tspan><tspan x="105.656" y="0" font-family="'Calibri'" font-size="9.9757">u</tspan><tspan x="110.937" y="0" font-family="'Calibri'" font-size="9.9757">g</tspan><tspan x="115.633" y="0" font-family="'Calibri'" font-size="9.9757">h</tspan><tspan x="120.914" y="0" font-family="'Calibri'" font-size="9.9757"> a</tspan><tspan x="127.987" y="0" font-family="'Calibri'" font-size="9.9757">ud</tspan><tspan x="138.549" y="0" font-family="'Calibri'" font-size="9.9757">i</tspan><tspan x="140.839" y="0" font-family="'Calibri'" font-size="9.9757">o</tspan><tspan x="146.119" y="0" font-family="'Calibri'" font-size="9.9757"> </tspan><tspan x="148.165" y="0" font-family="'Calibri'" font-size="9.9757">j</tspan><tspan x="150.562" y="0" font-family="'Calibri'" font-size="9.9757">a</tspan><tspan x="155.36" y="0" font-family="'Calibri'" font-size="9.9757">c</tspan><tspan x="159.568" y="0" font-family="'Calibri'" font-size="9.9757">k</tspan></text>
		</g>
	</g>
</g>
</svg>
