<?xml version="1.0" encoding="utf-8"?>
<!-- Generator: Adobe Illustrator 16.0.0, SVG Export Plug-In . SVG Version: 6.00 Build 0)  -->
<!DOCTYPE svg PUBLIC "-//W3C//DTD SVG 1.1//EN" "http://www.w3.org/Graphics/SVG/1.1/DTD/svg11.dtd">
<svg version="1.1" id="Layer_1" xmlns="http://www.w3.org/2000/svg" xmlns:xlink="http://www.w3.org/1999/xlink" x="0px" y="0px"
	 width="469.002px" height="117.303px" viewBox="0 0 469.002 117.303" enable-background="new 0 0 469.002 117.303"
	 xml:space="preserve">
<g>
	
		<line fill="none" stroke="#BDD6EE" stroke-width="1.0016" stroke-linejoin="round" stroke-miterlimit="10" x1="234.501" y1="19.934" x2="234.501" y2="97.375"/>
	
		<line fill="none" stroke="#9CC2E5" stroke-width="1.5024" stroke-linejoin="round" stroke-miterlimit="10" x1="0.001" y1="45.914" x2="469.001" y2="45.914"/>
	
		<line fill="none" stroke="#BDD6EE" stroke-width="1.0016" stroke-linejoin="round" stroke-miterlimit="10" x1="0.001" y1="71.395" x2="469.001" y2="71.395"/>
	
		<line fill="none" stroke="#BDD6EE" stroke-width="1.0016" stroke-linejoin="round" stroke-miterlimit="10" x1="0.501" y1="19.934" x2="0.501" y2="97.375"/>
	
		<line fill="none" stroke="#BDD6EE" stroke-width="1.0016" stroke-linejoin="round" stroke-miterlimit="10" x1="468.501" y1="19.934" x2="468.501" y2="97.375"/>
	
		<line fill="none" stroke="#BDD6EE" stroke-width="1.0016" stroke-linejoin="round" stroke-miterlimit="10" x1="0.001" y1="20.434" x2="469.001" y2="20.434"/>
	
		<line fill="none" stroke="#BDD6EE" stroke-width="1.0016" stroke-linejoin="round" stroke-miterlimit="10" x1="0.001" y1="96.875" x2="469.001" y2="96.875"/>
	<g>
		<defs>
			<rect id="SVGID_1_" x="0.501" y="-50.961" width="234" height="168.264"/>
		</defs>
		<clipPath id="SVGID_2_">
			<use xlink:href="#SVGID_1_"  overflow="visible"/>
		</clipPath>
		<g clip-path="url(#SVGID_2_)">
			<text transform="matrix(0.9984 0 0 1 5.9043 39.1797)"><tspan x="0" y="0" font-family="'Calibri-Bold'" font-size="9.9757">C</tspan><tspan x="5.28" y="0" font-family="'Calibri-Bold'" font-size="9.9757">o</tspan><tspan x="10.683" y="0" font-family="'Calibri-Bold'" font-size="9.9757">nd</tspan><tspan x="21.489" y="0" font-family="'Calibri-Bold'" font-size="9.9757">iti</tspan><tspan x="29.7" y="0" font-family="'Calibri-Bold'" font-size="9.9757">o</tspan><tspan x="35.102" y="0" font-family="'Calibri-Bold'" font-size="9.9757">n</tspan></text>
		</g>
	</g>
	<g>
		<defs>
			<rect id="SVGID_3_" x="234.501" y="-50.961" width="234" height="168.264"/>
		</defs>
		<clipPath id="SVGID_4_">
			<use xlink:href="#SVGID_3_"  overflow="visible"/>
		</clipPath>
		<g clip-path="url(#SVGID_4_)">
			<text transform="matrix(0.9984 0 0 1 239.9043 39.1797)"><tspan x="0" y="0" font-family="'Calibri-Bold'" font-size="9.9757">P</tspan><tspan x="5.29" y="0" font-family="'Calibri-Bold'" font-size="9.9757">i</tspan><tspan x="7.7" y="0" font-family="'Calibri-Bold'" font-size="9.9757">t</tspan><tspan x="11.178" y="0" font-family="'Calibri-Bold'" font-size="9.9757">c</tspan><tspan x="15.383" y="0" font-family="'Calibri-Bold'" font-size="9.9757">h</tspan></text>
		</g>
	</g>
	<g>
		<defs>
			<rect id="SVGID_5_" x="0.501" y="-25.481" width="234" height="168.265"/>
		</defs>
		<clipPath id="SVGID_6_">
			<use xlink:href="#SVGID_5_"  overflow="visible"/>
		</clipPath>
		<g clip-path="url(#SVGID_6_)">
			<text transform="matrix(0.9984 0 0 1 5.9043 64.6641)"><tspan x="0" y="0" font-family="'Calibri'" font-size="9.9757">P</tspan><tspan x="5.163" y="0" font-family="'Calibri'" font-size="9.9757">o</tspan><tspan x="10.444" y="0" font-family="'Calibri'" font-size="9.9757">ss</tspan><tspan x="18.148" y="0" font-family="'Calibri'" font-size="9.9757">i</tspan><tspan x="20.437" y="0" font-family="'Calibri'" font-size="9.9757">b</tspan><tspan x="25.718" y="0" font-family="'Calibri'" font-size="9.9757">ili</tspan><tspan x="32.586" y="0" font-family="'Calibri'" font-size="9.9757">t</tspan><tspan x="35.947" y="0" font-family="'Calibri'" font-size="9.9757">y</tspan><tspan x="40.512" y="0" font-family="'Calibri'" font-size="9.9757"> </tspan><tspan x="42.558" y="0" font-family="'Calibri'" font-size="9.9757">o</tspan><tspan x="47.839" y="0" font-family="'Calibri'" font-size="9.9757">f</tspan><tspan x="50.853" y="0" font-family="'Calibri'" font-size="9.9757"> </tspan><tspan x="53.128" y="0" font-family="'Calibri'" font-size="9.9757">hu</tspan><tspan x="63.69" y="0" font-family="'Calibri'" font-size="9.9757">m</tspan><tspan x="71.629" y="0" font-family="'Calibri'" font-size="9.9757">a</tspan><tspan x="76.428" y="0" font-family="'Calibri'" font-size="9.9757">n</tspan><tspan x="81.709" y="0" font-family="'Calibri'" font-size="9.9757"> </tspan><tspan x="83.874" y="0" font-family="'Calibri'" font-size="9.9757">p</tspan><tspan x="89.155" y="0" font-family="'Calibri'" font-size="9.9757">r</tspan><tspan x="92.633" y="0" font-family="'Calibri'" font-size="9.9757">e</tspan><tspan x="97.566" y="0" font-family="'Calibri'" font-size="9.9757">s</tspan><tspan x="101.418" y="0" font-family="'Calibri'" font-size="9.9757">e</tspan><tspan x="106.352" y="0" font-family="'Calibri'" font-size="9.9757">n</tspan><tspan x="111.633" y="0" font-family="'Calibri'" font-size="9.9757">c</tspan><tspan x="115.841" y="0" font-family="'Calibri'" font-size="9.9757">e</tspan></text>
		</g>
	</g>
	<g>
		<defs>
			<rect id="SVGID_7_" x="234.501" y="-25.481" width="234" height="168.265"/>
		</defs>
		<clipPath id="SVGID_8_">
			<use xlink:href="#SVGID_7_"  overflow="visible"/>
		</clipPath>
		<g clip-path="url(#SVGID_8_)">
			<text transform="matrix(0.9984 0 0 1 239.9043 64.6641)"><tspan x="0" y="0" font-family="'Calibri'" font-size="9.9757">H</tspan><tspan x="6.245" y="0" font-family="'Calibri'" font-size="9.9757">igh</tspan></text>
		</g>
	</g>
	<g>
		<defs>
			<rect id="SVGID_9_" x="0.501" width="234" height="168.264"/>
		</defs>
		<clipPath id="SVGID_10_">
			<use xlink:href="#SVGID_9_"  overflow="visible"/>
		</clipPath>
		<g clip-path="url(#SVGID_10_)">
			<text transform="matrix(0.9984 0 0 1 5.9043 90.1406)"><tspan x="0" y="0" font-family="'Calibri'" font-size="9.9757">P</tspan><tspan x="5.163" y="0" font-family="'Calibri'" font-size="9.9757">o</tspan><tspan x="10.444" y="0" font-family="'Calibri'" font-size="9.9757">ss</tspan><tspan x="18.148" y="0" font-family="'Calibri'" font-size="9.9757">i</tspan><tspan x="20.437" y="0" font-family="'Calibri'" font-size="9.9757">b</tspan><tspan x="25.718" y="0" font-family="'Calibri'" font-size="9.9757">ili</tspan><tspan x="32.586" y="0" font-family="'Calibri'" font-size="9.9757">t</tspan><tspan x="35.947" y="0" font-family="'Calibri'" font-size="9.9757">y</tspan><tspan x="40.512" y="0" font-family="'Calibri'" font-size="9.9757"> </tspan><tspan x="42.558" y="0" font-family="'Calibri'" font-size="9.9757">o</tspan><tspan x="47.839" y="0" font-family="'Calibri'" font-size="9.9757">f</tspan><tspan x="50.853" y="0" font-family="'Calibri'" font-size="9.9757"> </tspan><tspan x="53.128" y="0" font-family="'Calibri'" font-size="9.9757">n</tspan><tspan x="58.409" y="0" font-family="'Calibri'" font-size="9.9757">o</tspan><tspan x="63.69" y="0" font-family="'Calibri'" font-size="9.9757"> </tspan><tspan x="65.855" y="0" font-family="'Calibri'" font-size="9.9757">hu</tspan><tspan x="76.418" y="0" font-family="'Calibri'" font-size="9.9757">m</tspan><tspan x="84.356" y="0" font-family="'Calibri'" font-size="9.9757">a</tspan><tspan x="89.155" y="0" font-family="'Calibri'" font-size="9.9757">n</tspan><tspan x="94.436" y="0" font-family="'Calibri'" font-size="9.9757"> </tspan><tspan x="96.601" y="0" font-family="'Calibri'" font-size="9.9757">p</tspan><tspan x="101.882" y="0" font-family="'Calibri'" font-size="9.9757">r</tspan><tspan x="105.36" y="0" font-family="'Calibri'" font-size="9.9757">e</tspan><tspan x="110.294" y="0" font-family="'Calibri'" font-size="9.9757">s</tspan><tspan x="114.145" y="0" font-family="'Calibri'" font-size="9.9757">e</tspan><tspan x="119.079" y="0" font-family="'Calibri'" font-size="9.9757">n</tspan><tspan x="124.36" y="0" font-family="'Calibri'" font-size="9.9757">c</tspan><tspan x="128.568" y="0" font-family="'Calibri'" font-size="9.9757">e</tspan></text>
		</g>
	</g>
	<g>
		<defs>
			<rect id="SVGID_11_" x="234.501" width="234" height="168.264"/>
		</defs>
		<clipPath id="SVGID_12_">
			<use xlink:href="#SVGID_11_"  overflow="visible"/>
		</clipPath>
		<g clip-path="url(#SVGID_12_)">
			<text transform="matrix(0.9984 0 0 1 239.9043 90.1406)"><tspan x="0" y="0" font-family="'Calibri'" font-size="9.9757">L</tspan><tspan x="4.204" y="0" font-family="'Calibri'" font-size="9.9757">o</tspan><tspan x="9.485" y="0" font-family="'Calibri'" font-size="9.9757">w</tspan></text>
		</g>
	</g>
</g>
</svg>
