<?xml version="1.0" encoding="utf-8"?>
<!-- Generator: Adobe Illustrator 16.0.0, SVG Export Plug-In . SVG Version: 6.00 Build 0)  -->
<!DOCTYPE svg PUBLIC "-//W3C//DTD SVG 1.1//EN" "http://www.w3.org/Graphics/SVG/1.1/DTD/svg11.dtd">
<svg version="1.1" id="Layer_1" xmlns="http://www.w3.org/2000/svg" xmlns:xlink="http://www.w3.org/1999/xlink" x="0px" y="0px"
	 width="412.102px" height="81.488px" viewBox="0 0 412.102 81.488" enable-background="new 0 0 412.102 81.488"
	 xml:space="preserve">
<g>
	<polygon fill-rule="evenodd" clip-rule="evenodd" fill="#A5A5A5" points="0.501,10.279 116.051,10.279 116.051,25.543 
		0.501,25.543 0.501,10.279 	"/>
	<polygon fill-rule="evenodd" clip-rule="evenodd" fill="#A5A5A5" points="116.051,10.279 411.601,10.279 411.601,25.543 
		116.051,25.543 116.051,10.279 	"/>
	<polygon fill-rule="evenodd" clip-rule="evenodd" fill="#EDEDED" points="0.501,25.543 116.051,25.543 116.051,40.807 
		0.501,40.807 0.501,25.543 	"/>
	<polygon fill-rule="evenodd" clip-rule="evenodd" fill="#EDEDED" points="116.051,25.543 411.601,25.543 411.601,40.807 
		116.051,40.807 116.051,25.543 	"/>
	<polygon fill-rule="evenodd" clip-rule="evenodd" fill="#EDEDED" points="0.501,56.07 116.051,56.07 116.051,71.334 0.501,71.334 
		0.501,56.07 	"/>
	<polygon fill-rule="evenodd" clip-rule="evenodd" fill="#EDEDED" points="116.051,56.07 411.601,56.07 411.601,71.334 
		116.051,71.334 116.051,56.07 	"/>
	
		<line fill="none" stroke="#C9C9C9" stroke-width="1.0016" stroke-linejoin="round" stroke-miterlimit="10" x1="116.051" y1="25.041" x2="116.051" y2="71.836"/>
	
		<line fill="none" stroke="#A5A5A5" stroke-width="1.0016" stroke-linejoin="round" stroke-miterlimit="10" x1="0.001" y1="25.543" x2="412.101" y2="25.543"/>
	
		<line fill="none" stroke="#C9C9C9" stroke-width="1.0016" stroke-linejoin="round" stroke-miterlimit="10" x1="0.001" y1="40.807" x2="412.101" y2="40.807"/>
	
		<line fill="none" stroke="#C9C9C9" stroke-width="1.0016" stroke-linejoin="round" stroke-miterlimit="10" x1="0.001" y1="56.07" x2="412.101" y2="56.07"/>
	
		<line fill="none" stroke="#A5A5A5" stroke-width="1.0016" stroke-linejoin="round" stroke-miterlimit="10" x1="0.501" y1="9.777" x2="0.501" y2="25.543"/>
	
		<line fill="none" stroke="#C9C9C9" stroke-width="1.0016" stroke-linejoin="round" stroke-miterlimit="10" x1="0.501" y1="25.543" x2="0.501" y2="71.836"/>
	
		<line fill="none" stroke="#A5A5A5" stroke-width="1.0016" stroke-linejoin="round" stroke-miterlimit="10" x1="411.601" y1="9.777" x2="411.601" y2="25.543"/>
	
		<line fill="none" stroke="#C9C9C9" stroke-width="1.0016" stroke-linejoin="round" stroke-miterlimit="10" x1="411.601" y1="25.543" x2="411.601" y2="71.836"/>
	
		<line fill="none" stroke="#A5A5A5" stroke-width="1.0016" stroke-linejoin="round" stroke-miterlimit="10" x1="0.001" y1="10.279" x2="412.101" y2="10.279"/>
	
		<line fill="none" stroke="#C9C9C9" stroke-width="1.0016" stroke-linejoin="round" stroke-miterlimit="10" x1="0.001" y1="71.334" x2="412.101" y2="71.334"/>
	<g>
		<defs>
			<rect id="SVGID_1_" x="0.491" y="-30.528" width="115.56" height="96.753"/>
		</defs>
		<clipPath id="SVGID_2_">
			<use xlink:href="#SVGID_1_"  overflow="visible"/>
		</clipPath>
		<g clip-path="url(#SVGID_2_)">
			<text transform="matrix(0.9984 0 0 1 5.9072 21.3418)"><tspan x="0" y="0" fill="#FFFFFF" font-family="'Calibri-Bold'" font-size="9.9757">P</tspan><tspan x="5.29" y="0" fill="#FFFFFF" font-family="'Calibri-Bold'" font-size="9.9757">r</tspan><tspan x="8.885" y="0" fill="#FFFFFF" font-family="'Calibri-Bold'" font-size="9.9757">i</tspan><tspan x="11.296" y="0" fill="#FFFFFF" font-family="'Calibri-Bold'" font-size="9.9757">m</tspan><tspan x="19.46" y="0" fill="#FFFFFF" font-family="'Calibri-Bold'" font-size="9.9757">a</tspan><tspan x="24.385" y="0" fill="#FFFFFF" font-family="'Calibri-Bold'" font-size="9.9757">r</tspan><tspan x="27.981" y="0" fill="#FFFFFF" font-family="'Calibri-Bold'" font-size="9.9757">y</tspan><tspan x="32.676" y="0" fill="#FFFFFF" font-family="'Calibri-Bold'" font-size="9.9757"> </tspan><tspan x="34.951" y="0" fill="#FFFFFF" font-family="'Calibri-Bold'" font-size="9.9757">A</tspan><tspan x="40.966" y="0" fill="#FFFFFF" font-family="'Calibri-Bold'" font-size="9.9757">c</tspan><tspan x="45.17" y="0" fill="#FFFFFF" font-family="'Calibri-Bold'" font-size="9.9757">t</tspan><tspan x="48.648" y="0" fill="#FFFFFF" font-family="'Calibri-Bold'" font-size="9.9757">o</tspan><tspan x="54.051" y="0" fill="#FFFFFF" font-family="'Calibri-Bold'" font-size="9.9757">r</tspan></text>
		</g>
	</g>
	<g>
		<defs>
			<rect id="SVGID_3_" x="116.051" y="-30.528" width="295.561" height="96.753"/>
		</defs>
		<clipPath id="SVGID_4_">
			<use xlink:href="#SVGID_3_"  overflow="visible"/>
		</clipPath>
		<g clip-path="url(#SVGID_4_)">
			<text transform="matrix(0.9984 0 0 1 121.4541 21.3418)"><tspan x="0" y="0" fill="#FFFFFF" font-family="'Calibri-Bold'" font-size="9.9757">U</tspan><tspan x="6.493" y="0" fill="#FFFFFF" font-family="'Calibri-Bold'" font-size="9.9757">s</tspan><tspan x="10.462" y="0" fill="#FFFFFF" font-family="'Calibri-Bold'" font-size="9.9757">e </tspan><tspan x="17.779" y="0" fill="#FFFFFF" font-family="'Calibri-Bold'" font-size="9.9757">Ca</tspan><tspan x="27.984" y="0" fill="#FFFFFF" font-family="'Calibri-Bold'" font-size="9.9757">s</tspan><tspan x="31.954" y="0" fill="#FFFFFF" font-family="'Calibri-Bold'" font-size="9.9757">e</tspan><tspan x="36.995" y="0" fill="#FFFFFF" font-family="'Calibri-Bold'" font-size="9.9757">s</tspan></text>
		</g>
	</g>
	<g>
		<defs>
			<rect id="SVGID_5_" x="0.491" y="-15.264" width="115.56" height="96.752"/>
		</defs>
		<clipPath id="SVGID_6_">
			<use xlink:href="#SVGID_5_"  overflow="visible"/>
		</clipPath>
		<g clip-path="url(#SVGID_6_)">
			<text transform="matrix(0.9984 0 0 1 5.9072 36.5996)"><tspan x="0" y="0" font-family="'Calibri-Bold'" font-size="9.9757">P</tspan><tspan x="5.29" y="0" font-family="'Calibri-Bold'" font-size="9.9757">r</tspan><tspan x="8.885" y="0" font-family="'Calibri-Bold'" font-size="9.9757">o</tspan><tspan x="14.288" y="0" font-family="'Calibri-Bold'" font-size="9.9757">x</tspan><tspan x="18.862" y="0" font-family="'Calibri-Bold'" font-size="9.9757">i</tspan><tspan x="21.272" y="0" font-family="'Calibri-Bold'" font-size="9.9757">m</tspan><tspan x="29.437" y="0" font-family="'Calibri-Bold'" font-size="9.9757">i</tspan><tspan x="31.847" y="0" font-family="'Calibri-Bold'" font-size="9.9757">t</tspan><tspan x="35.325" y="0" font-family="'Calibri-Bold'" font-size="9.9757">y</tspan><tspan x="40.02" y="0" font-family="'Calibri-Bold'" font-size="9.9757"> </tspan><tspan x="42.535" y="0" font-family="'Calibri-Bold'" font-size="9.9757">S</tspan><tspan x="47.23" y="0" font-family="'Calibri-Bold'" font-size="9.9757">e</tspan><tspan x="52.272" y="0" font-family="'Calibri-Bold'" font-size="9.9757">n</tspan><tspan x="57.675" y="0" font-family="'Calibri-Bold'" font-size="9.9757">s</tspan><tspan x="61.644" y="0" font-family="'Calibri-Bold'" font-size="9.9757">o</tspan><tspan x="67.047" y="0" font-family="'Calibri-Bold'" font-size="9.9757">r</tspan></text>
		</g>
	</g>
	<g>
		<defs>
			<rect id="SVGID_7_" x="116.051" y="-15.264" width="295.561" height="96.752"/>
		</defs>
		<clipPath id="SVGID_8_">
			<use xlink:href="#SVGID_7_"  overflow="visible"/>
		</clipPath>
		<g clip-path="url(#SVGID_8_)">
			<text transform="matrix(0.9984 0 0 1 121.4541 36.5996)"><tspan x="0" y="0" font-family="'Calibri'" font-size="9.9757">A</tspan><tspan x="5.772" y="0" font-family="'Calibri'" font-size="9.9757">v</tspan><tspan x="10.228" y="0" font-family="'Calibri'" font-size="9.9757">o</tspan><tspan x="15.508" y="0" font-family="'Calibri'" font-size="9.9757">i</tspan><tspan x="17.798" y="0" font-family="'Calibri'" font-size="9.9757">d</tspan><tspan x="23.079" y="0" font-family="'Calibri'" font-size="9.9757"> </tspan><tspan x="25.244" y="0" font-family="'Calibri'" font-size="9.9757">O</tspan><tspan x="31.849" y="0" font-family="'Calibri'" font-size="9.9757">b</tspan><tspan x="37.13" y="0" font-family="'Calibri'" font-size="9.9757">s</tspan><tspan x="40.982" y="0" font-family="'Calibri'" font-size="9.9757">ta</tspan><tspan x="49.142" y="0" font-family="'Calibri'" font-size="9.9757">c</tspan><tspan x="53.35" y="0" font-family="'Calibri'" font-size="9.9757">l</tspan><tspan x="55.639" y="0" font-family="'Calibri'" font-size="9.9757">e</tspan><tspan x="60.573" y="0" font-family="'Calibri'" font-size="9.9757">s</tspan><tspan x="64.425" y="0" font-family="'Calibri'" font-size="9.9757">,</tspan><tspan x="66.944" y="0" font-family="'Calibri'" font-size="9.9757"> </tspan><tspan x="69.339" y="0" font-family="'Calibri'" font-size="9.9757">R</tspan><tspan x="74.755" y="0" font-family="'Calibri'" font-size="9.9757">e</tspan><tspan x="79.688" y="0" font-family="'Calibri'" font-size="9.9757">c</tspan><tspan x="83.897" y="0" font-family="'Calibri'" font-size="9.9757">o</tspan><tspan x="89.177" y="0" font-family="'Calibri'" font-size="9.9757">v</tspan><tspan x="93.633" y="0" font-family="'Calibri'" font-size="9.9757">e</tspan><tspan x="98.566" y="0" font-family="'Calibri'" font-size="9.9757">r</tspan><tspan x="102.044" y="0" font-family="'Calibri'" font-size="9.9757"> </tspan><tspan x="104.559" y="0" font-family="'Calibri'" font-size="9.9757">E</tspan><tspan x="109.48" y="0" font-family="'Calibri'" font-size="9.9757">rr</tspan><tspan x="116.436" y="0" font-family="'Calibri'" font-size="9.9757">o</tspan><tspan x="121.716" y="0" font-family="'Calibri'" font-size="9.9757">rs</tspan></text>
		</g>
	</g>
	<g>
		<defs>
			<rect id="SVGID_9_" x="0.491" width="115.56" height="96.752"/>
		</defs>
		<clipPath id="SVGID_10_">
			<use xlink:href="#SVGID_9_"  overflow="visible"/>
		</clipPath>
		<g clip-path="url(#SVGID_10_)">
			<text transform="matrix(0.9984 0 0 1 5.9072 51.8652)"><tspan x="0" y="0" font-family="'Calibri-Bold'" font-size="9.9757">S</tspan><tspan x="4.695" y="0" font-family="'Calibri-Bold'" font-size="9.9757">p</tspan><tspan x="10.098" y="0" font-family="'Calibri-Bold'" font-size="9.9757">e</tspan><tspan x="15.14" y="0" font-family="'Calibri-Bold'" font-size="9.9757">a</tspan><tspan x="20.065" y="0" font-family="'Calibri-Bold'" font-size="9.9757">k</tspan><tspan x="24.863" y="0" font-family="'Calibri-Bold'" font-size="9.9757">e</tspan><tspan x="29.904" y="0" font-family="'Calibri-Bold'" font-size="9.9757">r</tspan></text>
		</g>
	</g>
	<g>
		<defs>
			<rect id="SVGID_11_" x="116.051" width="295.561" height="96.752"/>
		</defs>
		<clipPath id="SVGID_12_">
			<use xlink:href="#SVGID_11_"  overflow="visible"/>
		</clipPath>
		<g clip-path="url(#SVGID_12_)">
			<text transform="matrix(0.9984 0 0 1 121.4541 51.8652)"><tspan x="0" y="0" font-family="'Calibri'" font-size="9.9757">R</tspan><tspan x="5.417" y="0" font-family="'Calibri'" font-size="9.9757">e</tspan><tspan x="10.35" y="0" font-family="'Calibri'" font-size="9.9757">c</tspan><tspan x="14.558" y="0" font-family="'Calibri'" font-size="9.9757">o</tspan><tspan x="19.839" y="0" font-family="'Calibri'" font-size="9.9757">v</tspan><tspan x="24.295" y="0" font-family="'Calibri'" font-size="9.9757">e</tspan><tspan x="29.228" y="0" font-family="'Calibri'" font-size="9.9757">r</tspan><tspan x="32.706" y="0" font-family="'Calibri'" font-size="9.9757"> </tspan><tspan x="35.22" y="0" font-family="'Calibri'" font-size="9.9757">E</tspan><tspan x="40.141" y="0" font-family="'Calibri'" font-size="9.9757">rr</tspan><tspan x="47.097" y="0" font-family="'Calibri'" font-size="9.9757">o</tspan><tspan x="52.378" y="0" font-family="'Calibri'" font-size="9.9757">rs</tspan></text>
		</g>
	</g>
	<g>
		<defs>
			<rect id="SVGID_13_" x="0.491" y="15.264" width="115.56" height="96.752"/>
		</defs>
		<clipPath id="SVGID_14_">
			<use xlink:href="#SVGID_13_"  overflow="visible"/>
		</clipPath>
		<g clip-path="url(#SVGID_14_)">
			<text transform="matrix(0.9984 0 0 1 5.9072 67.1309)"><tspan x="0" y="0" font-family="'Calibri-Bold'" font-size="9.9757">Ca</tspan><tspan x="10.205" y="0" font-family="'Calibri-Bold'" font-size="9.9757">m</tspan><tspan x="18.37" y="0" font-family="'Calibri-Bold'" font-size="9.9757">e</tspan><tspan x="23.411" y="0" font-family="'Calibri-Bold'" font-size="9.9757">r</tspan><tspan x="27.007" y="0" font-family="'Calibri-Bold'" font-size="9.9757">a</tspan></text>
		</g>
	</g>
	<g>
		<defs>
			<rect id="SVGID_15_" x="116.051" y="15.264" width="295.561" height="96.752"/>
		</defs>
		<clipPath id="SVGID_16_">
			<use xlink:href="#SVGID_15_"  overflow="visible"/>
		</clipPath>
		<g clip-path="url(#SVGID_16_)">
			<text transform="matrix(0.9984 0 0 1 121.4541 67.1309)"><tspan x="0" y="0" font-family="'Calibri'" font-size="9.9757">D</tspan><tspan x="6.138" y="0" font-family="'Calibri'" font-size="9.9757">e</tspan><tspan x="11.071" y="0" font-family="'Calibri'" font-size="9.9757">t</tspan><tspan x="14.432" y="0" font-family="'Calibri'" font-size="9.9757">e</tspan><tspan x="19.366" y="0" font-family="'Calibri'" font-size="9.9757">c</tspan><tspan x="23.574" y="0" font-family="'Calibri'" font-size="9.9757">t</tspan><tspan x="26.935" y="0" font-family="'Calibri'" font-size="9.9757"> </tspan><tspan x="29.45" y="0" font-family="'Calibri'" font-size="9.9757">H</tspan><tspan x="35.695" y="0" font-family="'Calibri'" font-size="9.9757">u</tspan><tspan x="40.977" y="0" font-family="'Calibri'" font-size="9.9757">m</tspan><tspan x="48.915" y="0" font-family="'Calibri'" font-size="9.9757">a</tspan><tspan x="53.714" y="0" font-family="'Calibri'" font-size="9.9757">n</tspan><tspan x="58.995" y="0" font-family="'Calibri'" font-size="9.9757"> </tspan><tspan x="61.16" y="0" font-family="'Calibri'" font-size="9.9757">P</tspan><tspan x="66.324" y="0" font-family="'Calibri'" font-size="9.9757">r</tspan><tspan x="69.802" y="0" font-family="'Calibri'" font-size="9.9757">e</tspan><tspan x="74.735" y="0" font-family="'Calibri'" font-size="9.9757">s</tspan><tspan x="78.587" y="0" font-family="'Calibri'" font-size="9.9757">e</tspan><tspan x="83.52" y="0" font-family="'Calibri'" font-size="9.9757">n</tspan><tspan x="88.802" y="0" font-family="'Calibri'" font-size="9.9757">c</tspan><tspan x="93.01" y="0" font-family="'Calibri'" font-size="9.9757">e</tspan></text>
		</g>
	</g>
</g>
</svg>
