<?xml version="1.0" encoding="utf-8"?>
<!-- Generator: Adobe Illustrator 16.0.0, SVG Export Plug-In . SVG Version: 6.00 Build 0)  -->
<!DOCTYPE svg PUBLIC "-//W3C//DTD SVG 1.1//EN" "http://www.w3.org/Graphics/SVG/1.1/DTD/svg11.dtd">
<svg version="1.1" id="Layer_1" xmlns="http://www.w3.org/2000/svg" xmlns:xlink="http://www.w3.org/1999/xlink" x="0px" y="0px"
	 width="468.552px" height="185.125px" viewBox="0 0 468.552 185.125" enable-background="new 0 0 468.552 185.125"
	 xml:space="preserve">
<g>
	<polygon fill-rule="evenodd" clip-rule="evenodd" fill="#A5A5A5" points="0.501,17.217 61.401,17.217 61.401,36.059 0.501,36.059 
		0.501,17.217 	"/>
	<polygon fill-rule="evenodd" clip-rule="evenodd" fill="#A5A5A5" points="61.401,17.217 468.051,17.217 468.051,36.059 
		61.401,36.059 61.401,17.217 	"/>
	<polygon fill-rule="evenodd" clip-rule="evenodd" fill="#EDEDED" points="0.501,36.059 61.401,36.059 61.401,54.087 0.501,54.087 
		0.501,36.059 	"/>
	<polygon fill-rule="evenodd" clip-rule="evenodd" fill="#EDEDED" points="61.401,36.059 468.051,36.059 468.051,54.087 
		61.401,54.087 61.401,36.059 	"/>
	<polygon fill-rule="evenodd" clip-rule="evenodd" fill="#EDEDED" points="0.501,72.116 61.401,72.116 61.401,90.145 0.501,90.145 
		0.501,72.116 	"/>
	<polygon fill-rule="evenodd" clip-rule="evenodd" fill="#EDEDED" points="61.401,72.116 468.051,72.116 468.051,90.145 
		61.401,90.145 61.401,72.116 	"/>
	<polygon fill-rule="evenodd" clip-rule="evenodd" fill="#EDEDED" points="0.501,108.172 61.401,108.172 61.401,126.202 
		0.501,126.202 0.501,108.172 	"/>
	<polygon fill-rule="evenodd" clip-rule="evenodd" fill="#EDEDED" points="61.401,108.172 468.051,108.172 468.051,126.202 
		61.401,126.202 61.401,108.172 	"/>
	<polygon fill-rule="evenodd" clip-rule="evenodd" fill="#EDEDED" points="0.501,144.229 61.401,144.229 61.401,162.258 
		0.501,162.258 0.501,144.229 	"/>
	<polygon fill-rule="evenodd" clip-rule="evenodd" fill="#EDEDED" points="61.401,144.229 468.051,144.229 468.051,162.258 
		61.401,162.258 61.401,144.229 	"/>
	
		<line fill="none" stroke="#C9C9C9" stroke-width="1.0016" stroke-linejoin="round" stroke-miterlimit="10" x1="61.401" y1="35.558" x2="61.401" y2="162.758"/>
	
		<line fill="none" stroke="#A5A5A5" stroke-width="1.0016" stroke-linejoin="round" stroke-miterlimit="10" x1="0.001" y1="36.059" x2="468.551" y2="36.059"/>
	
		<line fill="none" stroke="#C9C9C9" stroke-width="1.0016" stroke-linejoin="round" stroke-miterlimit="10" x1="0.001" y1="54.087" x2="468.551" y2="54.087"/>
	
		<line fill="none" stroke="#C9C9C9" stroke-width="1.0016" stroke-linejoin="round" stroke-miterlimit="10" x1="0.001" y1="72.116" x2="468.551" y2="72.116"/>
	
		<line fill="none" stroke="#C9C9C9" stroke-width="1.0016" stroke-linejoin="round" stroke-miterlimit="10" x1="0.001" y1="90.145" x2="468.551" y2="90.145"/>
	
		<line fill="none" stroke="#C9C9C9" stroke-width="1.0016" stroke-linejoin="round" stroke-miterlimit="10" x1="0.001" y1="108.172" x2="468.551" y2="108.172"/>
	
		<line fill="none" stroke="#C9C9C9" stroke-width="1.0016" stroke-linejoin="round" stroke-miterlimit="10" x1="0.001" y1="126.202" x2="468.551" y2="126.202"/>
	
		<line fill="none" stroke="#C9C9C9" stroke-width="1.0016" stroke-linejoin="round" stroke-miterlimit="10" x1="0.001" y1="144.229" x2="468.551" y2="144.229"/>
	
		<line fill="none" stroke="#A5A5A5" stroke-width="1.0016" stroke-linejoin="round" stroke-miterlimit="10" x1="0.501" y1="16.716" x2="0.501" y2="36.059"/>
	
		<line fill="none" stroke="#C9C9C9" stroke-width="1.0016" stroke-linejoin="round" stroke-miterlimit="10" x1="0.501" y1="36.059" x2="0.501" y2="162.758"/>
	
		<line fill="none" stroke="#A5A5A5" stroke-width="1.0016" stroke-linejoin="round" stroke-miterlimit="10" x1="468.051" y1="16.716" x2="468.051" y2="36.059"/>
	
		<line fill="none" stroke="#C9C9C9" stroke-width="1.0016" stroke-linejoin="round" stroke-miterlimit="10" x1="468.051" y1="36.059" x2="468.051" y2="162.758"/>
	
		<line fill="none" stroke="#A5A5A5" stroke-width="1.0016" stroke-linejoin="round" stroke-miterlimit="10" x1="0.001" y1="17.217" x2="468.551" y2="17.217"/>
	
		<line fill="none" stroke="#C9C9C9" stroke-width="1.0016" stroke-linejoin="round" stroke-miterlimit="10" x1="0.001" y1="162.258" x2="468.551" y2="162.258"/>
	<g>
		<defs>
			<rect id="SVGID_1_" x="0.486" y="-31.25" width="60.96" height="113.098"/>
		</defs>
		<clipPath id="SVGID_2_">
			<use xlink:href="#SVGID_1_"  overflow="visible"/>
		</clipPath>
		<g clip-path="url(#SVGID_2_)">
			<text transform="matrix(0.9984 0 0 1 5.9058 30.7993)"><tspan x="0" y="0" fill="#FFFFFF" font-family="'Calibri-Bold'" font-size="9.9757">S</tspan><tspan x="4.695" y="0" fill="#FFFFFF" font-family="'Calibri-Bold'" font-size="9.9757">c</tspan><tspan x="8.899" y="0" fill="#FFFFFF" font-family="'Calibri-Bold'" font-size="9.9757">e</tspan><tspan x="13.941" y="0" fill="#FFFFFF" font-family="'Calibri-Bold'" font-size="9.9757">n</tspan><tspan x="19.344" y="0" fill="#FFFFFF" font-family="'Calibri-Bold'" font-size="9.9757">a</tspan><tspan x="24.269" y="0" fill="#FFFFFF" font-family="'Calibri-Bold'" font-size="9.9757">r</tspan><tspan x="27.865" y="0" fill="#FFFFFF" font-family="'Calibri-Bold'" font-size="9.9757">i</tspan><tspan x="30.275" y="0" fill="#FFFFFF" font-family="'Calibri-Bold'" font-size="9.9757">o</tspan></text>
		</g>
	</g>
	<g>
		<defs>
			<rect id="SVGID_3_" x="61.446" y="-31.25" width="406.56" height="113.098"/>
		</defs>
		<clipPath id="SVGID_4_">
			<use xlink:href="#SVGID_3_"  overflow="visible"/>
		</clipPath>
		<g clip-path="url(#SVGID_4_)">
			<text transform="matrix(0.9984 0 0 1 66.8042 30.7993)"><tspan x="0" y="0" fill="#FFFFFF" font-family="'Calibri-Bold'" font-size="9.9757">L</tspan><tspan x="4.208" y="0" fill="#FFFFFF" font-family="'Calibri-Bold'" font-size="9.9757">oo</tspan><tspan x="15.014" y="0" fill="#FFFFFF" font-family="'Calibri-Bold'" font-size="9.9757">k</tspan><tspan x="19.812" y="0" fill="#FFFFFF" font-family="'Calibri-Bold'" font-size="9.9757"> </tspan><tspan x="21.977" y="0" fill="#FFFFFF" font-family="'Calibri-Bold'" font-size="9.9757">f</tspan><tspan x="25.104" y="0" fill="#FFFFFF" font-family="'Calibri-Bold'" font-size="9.9757">o</tspan><tspan x="30.506" y="0" fill="#FFFFFF" font-family="'Calibri-Bold'" font-size="9.9757">r</tspan><tspan x="34.102" y="0" fill="#FFFFFF" font-family="'Calibri-Bold'" font-size="9.9757"> </tspan><tspan x="36.268" y="0" fill="#FFFFFF" font-family="'Calibri-Bold'" font-size="9.9757">p</tspan><tspan x="41.671" y="0" fill="#FFFFFF" font-family="'Calibri-Bold'" font-size="9.9757">e</tspan><tspan x="46.713" y="0" fill="#FFFFFF" font-family="'Calibri-Bold'" font-size="9.9757">o</tspan><tspan x="52.116" y="0" fill="#FFFFFF" font-family="'Calibri-Bold'" font-size="9.9757">p</tspan><tspan x="57.519" y="0" fill="#FFFFFF" font-family="'Calibri-Bold'" font-size="9.9757">l</tspan><tspan x="59.929" y="0" fill="#FFFFFF" font-family="'Calibri-Bold'" font-size="9.9757">e</tspan></text>
		</g>
	</g>
	<g>
		<defs>
			<rect id="SVGID_5_" x="0.486" y="-18.029" width="60.96" height="126.199"/>
		</defs>
		<clipPath id="SVGID_6_">
			<use xlink:href="#SVGID_5_"  overflow="visible"/>
		</clipPath>
		<g clip-path="url(#SVGID_6_)">
			<text transform="matrix(0.9984 0 0 1 5.9058 49.6353)"><tspan x="0" y="0" font-family="'Calibri-Bold'" font-size="9.9757">S</tspan><tspan x="4.695" y="0" font-family="'Calibri-Bold'" font-size="9.9757">c</tspan><tspan x="8.899" y="0" font-family="'Calibri-Bold'" font-size="9.9757">e</tspan><tspan x="13.941" y="0" font-family="'Calibri-Bold'" font-size="9.9757">n</tspan><tspan x="19.344" y="0" font-family="'Calibri-Bold'" font-size="9.9757">e</tspan><tspan x="24.386" y="0" font-family="'Calibri-Bold'" font-size="9.9757"> </tspan><tspan x="26.552" y="0" font-family="'Calibri-Bold'" font-size="9.9757">N</tspan><tspan x="33.153" y="0" font-family="'Calibri-Bold'" font-size="9.9757">o</tspan><tspan x="38.555" y="0" font-family="'Calibri-Bold'" font-size="9.9757">.</tspan></text>
		</g>
	</g>
	<g>
		<defs>
			<rect id="SVGID_7_" x="61.446" y="-18.029" width="406.56" height="126.199"/>
		</defs>
		<clipPath id="SVGID_8_">
			<use xlink:href="#SVGID_7_"  overflow="visible"/>
		</clipPath>
		<g clip-path="url(#SVGID_8_)">
			<text transform="matrix(0.9984 0 0 1 66.8042 49.6353)"><tspan x="0" y="0" font-family="'Calibri'" font-size="9.9757">D</tspan><tspan x="6.138" y="0" font-family="'Calibri'" font-size="9.9757">e</tspan><tspan x="11.071" y="0" font-family="'Calibri'" font-size="9.9757">s</tspan><tspan x="14.923" y="0" font-family="'Calibri'" font-size="9.9757">c</tspan><tspan x="19.131" y="0" font-family="'Calibri'" font-size="9.9757">ri</tspan><tspan x="24.898" y="0" font-family="'Calibri'" font-size="9.9757">p</tspan><tspan x="30.179" y="0" font-family="'Calibri'" font-size="9.9757">ti</tspan><tspan x="35.737" y="0" font-family="'Calibri'" font-size="9.9757">o</tspan><tspan x="41.018" y="0" font-family="'Calibri'" font-size="9.9757">n</tspan></text>
		</g>
	</g>
	<g>
		<defs>
			<rect id="SVGID_9_" x="0.486" width="60.96" height="126.198"/>
		</defs>
		<clipPath id="SVGID_10_">
			<use xlink:href="#SVGID_9_"  overflow="visible"/>
		</clipPath>
		<g clip-path="url(#SVGID_10_)">
			<text transform="matrix(0.9984 0 0 1 5.9058 67.6665)" font-family="'Calibri-Bold'" font-size="9.9757">1</text>
		</g>
	</g>
	<g>
		<defs>
			<rect id="SVGID_11_" x="61.446" width="406.56" height="126.198"/>
		</defs>
		<clipPath id="SVGID_12_">
			<use xlink:href="#SVGID_11_"  overflow="visible"/>
		</clipPath>
		<g clip-path="url(#SVGID_12_)">
			<text transform="matrix(0.9984 0 0 1 66.8042 67.6665)"><tspan x="0" y="0" font-family="'Calibri'" font-size="9.9757">T</tspan><tspan x="4.811" y="0" font-family="'Calibri'" font-size="9.9757">h</tspan><tspan x="10.093" y="0" font-family="'Calibri'" font-size="9.9757">e</tspan><tspan x="15.026" y="0" font-family="'Calibri'" font-size="9.9757"> </tspan><tspan x="17.421" y="0" font-family="'Calibri'" font-size="9.9757">b</tspan><tspan x="22.702" y="0" font-family="'Calibri'" font-size="9.9757">li</tspan><tspan x="27.281" y="0" font-family="'Calibri'" font-size="9.9757">nd</tspan><tspan x="37.843" y="0" font-family="'Calibri'" font-size="9.9757"> </tspan><tspan x="39.888" y="0" font-family="'Calibri'" font-size="9.9757">i</tspan><tspan x="42.178" y="0" font-family="'Calibri'" font-size="9.9757">s</tspan><tspan x="46.029" y="0" font-family="'Calibri'" font-size="9.9757"> </tspan><tspan x="48.304" y="0" font-family="'Calibri'" font-size="9.9757">s</tspan><tspan x="52.156" y="0" font-family="'Calibri'" font-size="9.9757">ta</tspan><tspan x="60.316" y="0" font-family="'Calibri'" font-size="9.9757">nd</tspan><tspan x="70.878" y="0" font-family="'Calibri'" font-size="9.9757">i</tspan><tspan x="73.167" y="0" font-family="'Calibri'" font-size="9.9757">n</tspan><tspan x="78.449" y="0" font-family="'Calibri'" font-size="9.9757">g</tspan><tspan x="83.144" y="0" font-family="'Calibri'" font-size="9.9757"> </tspan><tspan x="85.309" y="0" font-family="'Calibri'" font-size="9.9757">s</tspan><tspan x="89.161" y="0" font-family="'Calibri'" font-size="9.9757">till</tspan><tspan x="99.298" y="0" font-family="'Calibri'" font-size="9.9757"> </tspan><tspan x="101.573" y="0" font-family="'Calibri'" font-size="9.9757">i</tspan><tspan x="103.862" y="0" font-family="'Calibri'" font-size="9.9757">n</tspan><tspan x="109.143" y="0" font-family="'Calibri'" font-size="9.9757"> </tspan><tspan x="111.309" y="0" font-family="'Calibri'" font-size="9.9757">a</tspan><tspan x="116.107" y="0" font-family="'Calibri'" font-size="9.9757"> </tspan><tspan x="118.272" y="0" font-family="'Calibri'" font-size="9.9757">r</tspan><tspan x="121.75" y="0" font-family="'Calibri'" font-size="9.9757">oo</tspan><tspan x="132.312" y="0" font-family="'Calibri'" font-size="9.9757">m</tspan></text>
		</g>
	</g>
	<g>
		<defs>
			<rect id="SVGID_13_" x="0.486" y="18.028" width="60.96" height="126.199"/>
		</defs>
		<clipPath id="SVGID_14_">
			<use xlink:href="#SVGID_13_"  overflow="visible"/>
		</clipPath>
		<g clip-path="url(#SVGID_14_)">
			<text transform="matrix(0.9984 0 0 1 5.9058 85.6899)" font-family="'Calibri-Bold'" font-size="9.9757">2</text>
		</g>
	</g>
	<g>
		<defs>
			<rect id="SVGID_15_" x="61.446" y="18.028" width="406.56" height="126.199"/>
		</defs>
		<clipPath id="SVGID_16_">
			<use xlink:href="#SVGID_15_"  overflow="visible"/>
		</clipPath>
		<g clip-path="url(#SVGID_16_)">
			<text transform="matrix(0.9984 0 0 1 66.8042 85.6899)"><tspan x="0" y="0" font-family="'Calibri'" font-size="9.9757">H</tspan><tspan x="6.245" y="0" font-family="'Calibri'" font-size="9.9757">e</tspan><tspan x="11.179" y="0" font-family="'Calibri'" font-size="9.9757"> </tspan><tspan x="13.454" y="0" font-family="'Calibri'" font-size="9.9757">w</tspan><tspan x="20.545" y="0" font-family="'Calibri'" font-size="9.9757">o</tspan><tspan x="25.826" y="0" font-family="'Calibri'" font-size="9.9757">u</tspan><tspan x="31.107" y="0" font-family="'Calibri'" font-size="9.9757">l</tspan><tspan x="33.396" y="0" font-family="'Calibri'" font-size="9.9757">d</tspan><tspan x="38.677" y="0" font-family="'Calibri'" font-size="9.9757"> </tspan><tspan x="40.952" y="0" font-family="'Calibri'" font-size="9.9757">li</tspan><tspan x="45.531" y="0" font-family="'Calibri'" font-size="9.9757">k</tspan><tspan x="50.096" y="0" font-family="'Calibri'" font-size="9.9757">e</tspan><tspan x="55.029" y="0" font-family="'Calibri'" font-size="9.9757"> </tspan><tspan x="57.195" y="0" font-family="'Calibri'" font-size="9.9757">to </tspan><tspan x="68.112" y="0" font-family="'Calibri'" font-size="9.9757">k</tspan><tspan x="72.677" y="0" font-family="'Calibri'" font-size="9.9757">n</tspan><tspan x="77.958" y="0" font-family="'Calibri'" font-size="9.9757">o</tspan><tspan x="83.238" y="0" font-family="'Calibri'" font-size="9.9757">w</tspan><tspan x="90.33" y="0" font-family="'Calibri'" font-size="9.9757"> </tspan><tspan x="92.495" y="0" font-family="'Calibri'" font-size="9.9757">i</tspan><tspan x="94.784" y="0" font-family="'Calibri'" font-size="9.9757">s</tspan><tspan x="98.636" y="0" font-family="'Calibri'" font-size="9.9757"> t</tspan><tspan x="104.272" y="0" font-family="'Calibri'" font-size="9.9757">h</tspan><tspan x="109.554" y="0" font-family="'Calibri'" font-size="9.9757">e</tspan><tspan x="114.487" y="0" font-family="'Calibri'" font-size="9.9757">r</tspan><tspan x="117.965" y="0" font-family="'Calibri'" font-size="9.9757">e</tspan><tspan x="122.898" y="0" font-family="'Calibri'" font-size="9.9757"> </tspan><tspan x="125.293" y="0" font-family="'Calibri'" font-size="9.9757">a</tspan><tspan x="130.092" y="0" font-family="'Calibri'" font-size="9.9757">n</tspan><tspan x="135.373" y="0" font-family="'Calibri'" font-size="9.9757">y</tspan><tspan x="139.938" y="0" font-family="'Calibri'" font-size="9.9757">b</tspan><tspan x="145.219" y="0" font-family="'Calibri'" font-size="9.9757">o</tspan><tspan x="150.499" y="0" font-family="'Calibri'" font-size="9.9757">d</tspan><tspan x="155.781" y="0" font-family="'Calibri'" font-size="9.9757">y</tspan><tspan x="160.346" y="0" font-family="'Calibri'" font-size="9.9757"> </tspan><tspan x="162.272" y="0" font-family="'Calibri'" font-size="9.9757">i</tspan><tspan x="164.561" y="0" font-family="'Calibri'" font-size="9.9757">n</tspan><tspan x="169.842" y="0" font-family="'Calibri'" font-size="9.9757"> </tspan><tspan x="172.008" y="0" font-family="'Calibri'" font-size="9.9757">t</tspan><tspan x="175.369" y="0" font-family="'Calibri'" font-size="9.9757">h</tspan><tspan x="180.65" y="0" font-family="'Calibri'" font-size="9.9757">i</tspan><tspan x="182.94" y="0" font-family="'Calibri'" font-size="9.9757">s</tspan><tspan x="186.791" y="0" font-family="'Calibri'" font-size="9.9757"> </tspan><tspan x="189.066" y="0" font-family="'Calibri'" font-size="9.9757">r</tspan><tspan x="192.544" y="0" font-family="'Calibri'" font-size="9.9757">oo</tspan><tspan x="203.105" y="0" font-family="'Calibri'" font-size="9.9757">m</tspan></text>
		</g>
	</g>
	<g>
		<defs>
			<rect id="SVGID_17_" x="0.486" y="36.057" width="60.96" height="126.198"/>
		</defs>
		<clipPath id="SVGID_18_">
			<use xlink:href="#SVGID_17_"  overflow="visible"/>
		</clipPath>
		<g clip-path="url(#SVGID_18_)">
			<text transform="matrix(0.9984 0 0 1 5.9058 103.7212)" font-family="'Calibri-Bold'" font-size="9.9757">3</text>
		</g>
	</g>
	<g>
		<defs>
			<rect id="SVGID_19_" x="61.446" y="36.057" width="406.56" height="126.198"/>
		</defs>
		<clipPath id="SVGID_20_">
			<use xlink:href="#SVGID_19_"  overflow="visible"/>
		</clipPath>
		<g clip-path="url(#SVGID_20_)">
			<text transform="matrix(0.9984 0 0 1 66.8042 103.7212)"><tspan x="0" y="0" font-family="'Calibri'" font-size="9.9757">H</tspan><tspan x="6.245" y="0" font-family="'Calibri'" font-size="9.9757">e</tspan><tspan x="11.179" y="0" font-family="'Calibri'" font-size="9.9757"> </tspan><tspan x="13.454" y="0" font-family="'Calibri'" font-size="9.9757">m</tspan><tspan x="21.393" y="0" font-family="'Calibri'" font-size="9.9757">o</tspan><tspan x="26.673" y="0" font-family="'Calibri'" font-size="9.9757">v</tspan><tspan x="31.129" y="0" font-family="'Calibri'" font-size="9.9757">e</tspan><tspan x="36.063" y="0" font-family="'Calibri'" font-size="9.9757"> </tspan><tspan x="38.577" y="0" font-family="'Calibri'" font-size="9.9757">h</tspan><tspan x="43.859" y="0" font-family="'Calibri'" font-size="9.9757">i</tspan><tspan x="46.148" y="0" font-family="'Calibri'" font-size="9.9757">s</tspan><tspan x="50" y="0" font-family="'Calibri'" font-size="9.9757"> </tspan><tspan x="52.165" y="0" font-family="'Calibri'" font-size="9.9757">h</tspan><tspan x="57.446" y="0" font-family="'Calibri'" font-size="9.9757">e</tspan><tspan x="62.379" y="0" font-family="'Calibri'" font-size="9.9757">a</tspan><tspan x="67.178" y="0" font-family="'Calibri'" font-size="9.9757">d</tspan><tspan x="72.459" y="0" font-family="'Calibri'" font-size="9.9757"> to</tspan><tspan x="83.376" y="0" font-family="'Calibri'" font-size="9.9757">w</tspan><tspan x="90.467" y="0" font-family="'Calibri'" font-size="9.9757">a</tspan><tspan x="95.266" y="0" font-family="'Calibri'" font-size="9.9757">r</tspan><tspan x="98.743" y="0" font-family="'Calibri'" font-size="9.9757">d</tspan><tspan x="104.024" y="0" font-family="'Calibri'" font-size="9.9757">s</tspan><tspan x="107.876" y="0" font-family="'Calibri'" font-size="9.9757"> t</tspan><tspan x="113.513" y="0" font-family="'Calibri'" font-size="9.9757">h</tspan><tspan x="118.794" y="0" font-family="'Calibri'" font-size="9.9757">e</tspan><tspan x="123.727" y="0" font-family="'Calibri'" font-size="9.9757"> a</tspan><tspan x="130.801" y="0" font-family="'Calibri'" font-size="9.9757">r</tspan><tspan x="134.279" y="0" font-family="'Calibri'" font-size="9.9757">e</tspan><tspan x="139.212" y="0" font-family="'Calibri'" font-size="9.9757">a</tspan></text>
		</g>
	</g>
	<g>
		<defs>
			<rect id="SVGID_21_" x="0.486" y="54.085" width="60.96" height="126.199"/>
		</defs>
		<clipPath id="SVGID_22_">
			<use xlink:href="#SVGID_21_"  overflow="visible"/>
		</clipPath>
		<g clip-path="url(#SVGID_22_)">
			<text transform="matrix(0.9984 0 0 1 5.9058 121.7603)" font-family="'Calibri-Bold'" font-size="9.9757">4</text>
		</g>
	</g>
	<g>
		<defs>
			<rect id="SVGID_23_" x="61.446" y="54.085" width="406.56" height="126.199"/>
		</defs>
		<clipPath id="SVGID_24_">
			<use xlink:href="#SVGID_23_"  overflow="visible"/>
		</clipPath>
		<g clip-path="url(#SVGID_24_)">
			<text transform="matrix(0.9984 0 0 1 66.8042 121.7603)"><tspan x="0" y="0" font-family="'Calibri'" font-size="9.9757">H</tspan><tspan x="6.245" y="0" font-family="'Calibri'" font-size="9.9757">e</tspan><tspan x="11.179" y="0" font-family="'Calibri'" font-size="9.9757"> </tspan><tspan x="13.454" y="0" font-family="'Calibri'" font-size="9.9757">p</tspan><tspan x="18.735" y="0" font-family="'Calibri'" font-size="9.9757">r</tspan><tspan x="22.213" y="0" font-family="'Calibri'" font-size="9.9757">e</tspan><tspan x="27.146" y="0" font-family="'Calibri'" font-size="9.9757">ss</tspan><tspan x="34.85" y="0" font-family="'Calibri'" font-size="9.9757"> </tspan><tspan x="37.245" y="0" font-family="'Calibri'" font-size="9.9757">a </tspan><tspan x="44.318" y="0" font-family="'Calibri'" font-size="9.9757">bu</tspan><tspan x="54.88" y="0" font-family="'Calibri'" font-size="9.9757">tto</tspan><tspan x="66.508" y="0" font-family="'Calibri'" font-size="9.9757">n</tspan><tspan x="71.789" y="0" font-family="'Calibri'" font-size="9.9757"> </tspan><tspan x="73.955" y="0" font-family="'Calibri'" font-size="9.9757">l</tspan><tspan x="76.244" y="0" font-family="'Calibri'" font-size="9.9757">o</tspan><tspan x="81.525" y="0" font-family="'Calibri'" font-size="9.9757">c</tspan><tspan x="85.733" y="0" font-family="'Calibri'" font-size="9.9757">at</tspan><tspan x="93.893" y="0" font-family="'Calibri'" font-size="9.9757">e</tspan><tspan x="98.826" y="0" font-family="'Calibri'" font-size="9.9757">d</tspan><tspan x="104.107" y="0" font-family="'Calibri'" font-size="9.9757"> at</tspan><tspan x="114.542" y="0" font-family="'Calibri'" font-size="9.9757"> </tspan><tspan x="116.707" y="0" font-family="'Calibri'" font-size="9.9757">h</tspan><tspan x="121.989" y="0" font-family="'Calibri'" font-size="9.9757">i</tspan><tspan x="124.278" y="0" font-family="'Calibri'" font-size="9.9757">s</tspan><tspan x="128.13" y="0" font-family="'Calibri'" font-size="9.9757"> </tspan><tspan x="130.405" y="0" font-family="'Calibri'" font-size="9.9757">b</tspan><tspan x="135.686" y="0" font-family="'Calibri'" font-size="9.9757">e</tspan><tspan x="140.62" y="0" font-family="'Calibri'" font-size="9.9757">lt</tspan></text>
		</g>
	</g>
	<g>
		<defs>
			<rect id="SVGID_25_" x="0.486" y="72.114" width="60.96" height="126.197"/>
		</defs>
		<clipPath id="SVGID_26_">
			<use xlink:href="#SVGID_25_"  overflow="visible"/>
		</clipPath>
		<g clip-path="url(#SVGID_26_)">
			<text transform="matrix(0.9984 0 0 1 5.9058 139.7837)" font-family="'Calibri-Bold'" font-size="9.9757">5</text>
		</g>
	</g>
	<g>
		<defs>
			<rect id="SVGID_27_" x="61.446" y="72.114" width="406.56" height="126.197"/>
		</defs>
		<clipPath id="SVGID_28_">
			<use xlink:href="#SVGID_27_"  overflow="visible"/>
		</clipPath>
		<g clip-path="url(#SVGID_28_)">
			<text transform="matrix(0.9984 0 0 1 66.8042 139.7837)"><tspan x="0" y="0" font-family="'Calibri'" font-size="9.9757">H</tspan><tspan x="6.245" y="0" font-family="'Calibri'" font-size="9.9757">e</tspan><tspan x="11.179" y="0" font-family="'Calibri'" font-size="9.9757"> </tspan><tspan x="13.454" y="0" font-family="'Calibri'" font-size="9.9757">h</tspan><tspan x="18.735" y="0" font-family="'Calibri'" font-size="9.9757">e</tspan><tspan x="23.669" y="0" font-family="'Calibri'" font-size="9.9757">a</tspan><tspan x="28.467" y="0" font-family="'Calibri'" font-size="9.9757">r</tspan><tspan x="31.945" y="0" font-family="'Calibri'" font-size="9.9757">d</tspan><tspan x="37.226" y="0" font-family="'Calibri'" font-size="9.9757"> t</tspan><tspan x="42.862" y="0" font-family="'Calibri'" font-size="9.9757">h</tspan><tspan x="48.144" y="0" font-family="'Calibri'" font-size="9.9757">e</tspan><tspan x="53.077" y="0" font-family="'Calibri'" font-size="9.9757"> </tspan><tspan x="55.352" y="0" font-family="'Calibri'" font-size="9.9757">h</tspan><tspan x="60.633" y="0" font-family="'Calibri'" font-size="9.9757">ig</tspan><tspan x="67.618" y="0" font-family="'Calibri'" font-size="9.9757">h</tspan><tspan x="72.899" y="0" font-family="'Calibri'" font-size="9.9757"> </tspan><tspan x="75.174" y="0" font-family="'Calibri'" font-size="9.9757">p</tspan><tspan x="80.455" y="0" font-family="'Calibri'" font-size="9.9757">i</tspan><tspan x="82.745" y="0" font-family="'Calibri'" font-size="9.9757">t</tspan><tspan x="86.106" y="0" font-family="'Calibri'" font-size="9.9757">c</tspan><tspan x="90.314" y="0" font-family="'Calibri'" font-size="9.9757">h</tspan><tspan x="95.595" y="0" font-family="'Calibri'" font-size="9.9757"> </tspan><tspan x="97.871" y="0" font-family="'Calibri'" font-size="9.9757">c</tspan><tspan x="102.079" y="0" font-family="'Calibri'" font-size="9.9757">o</tspan><tspan x="107.359" y="0" font-family="'Calibri'" font-size="9.9757">m</tspan><tspan x="115.298" y="0" font-family="'Calibri'" font-size="9.9757">i</tspan><tspan x="117.588" y="0" font-family="'Calibri'" font-size="9.9757">n</tspan><tspan x="122.868" y="0" font-family="'Calibri'" font-size="9.9757">g</tspan><tspan x="127.564" y="0" font-family="'Calibri'" font-size="9.9757"> o</tspan><tspan x="135.12" y="0" font-family="'Calibri'" font-size="9.9757">u</tspan><tspan x="140.401" y="0" font-family="'Calibri'" font-size="9.9757">t </tspan><tspan x="146.038" y="0" font-family="'Calibri'" font-size="9.9757">f</tspan><tspan x="149.052" y="0" font-family="'Calibri'" font-size="9.9757">r</tspan><tspan x="152.53" y="0" font-family="'Calibri'" font-size="9.9757">o</tspan><tspan x="157.811" y="0" font-family="'Calibri'" font-size="9.9757">m</tspan><tspan x="165.749" y="0" font-family="'Calibri'" font-size="9.9757"> t</tspan><tspan x="171.386" y="0" font-family="'Calibri'" font-size="9.9757">h</tspan><tspan x="176.667" y="0" font-family="'Calibri'" font-size="9.9757">e</tspan><tspan x="181.6" y="0" font-family="'Calibri'" font-size="9.9757"> </tspan><tspan x="183.876" y="0" font-family="'Calibri'" font-size="9.9757">s</tspan><tspan x="187.727" y="0" font-family="'Calibri'" font-size="9.9757">p</tspan><tspan x="193.009" y="0" font-family="'Calibri'" font-size="9.9757">e</tspan><tspan x="197.942" y="0" font-family="'Calibri'" font-size="9.9757">a</tspan><tspan x="202.74" y="0" font-family="'Calibri'" font-size="9.9757">k</tspan><tspan x="207.305" y="0" font-family="'Calibri'" font-size="9.9757">e</tspan><tspan x="212.239" y="0" font-family="'Calibri'" font-size="9.9757">r</tspan></text>
		</g>
	</g>
	<g>
		<defs>
			<rect id="SVGID_29_" x="0.486" y="90.141" width="60.96" height="126.199"/>
		</defs>
		<clipPath id="SVGID_30_">
			<use xlink:href="#SVGID_29_"  overflow="visible"/>
		</clipPath>
		<g clip-path="url(#SVGID_30_)">
			<text transform="matrix(0.9984 0 0 1 5.9058 157.8149)" font-family="'Calibri-Bold'" font-size="9.9757">6</text>
		</g>
	</g>
	<g>
		<defs>
			<rect id="SVGID_31_" x="61.446" y="95.67" width="406.56" height="113.219"/>
		</defs>
		<clipPath id="SVGID_32_">
			<use xlink:href="#SVGID_31_"  overflow="visible"/>
		</clipPath>
		<g clip-path="url(#SVGID_32_)">
			<text transform="matrix(0.9984 0 0 1 66.8042 157.8149)"><tspan x="0" y="0" font-family="'Calibri'" font-size="9.9757">H</tspan><tspan x="6.245" y="0" font-family="'Calibri'" font-size="9.9757">e</tspan><tspan x="11.179" y="0" font-family="'Calibri'" font-size="9.9757"> </tspan><tspan x="13.454" y="0" font-family="'Calibri'" font-size="9.9757">c</tspan><tspan x="17.662" y="0" font-family="'Calibri'" font-size="9.9757">o</tspan><tspan x="22.943" y="0" font-family="'Calibri'" font-size="9.9757">n</tspan><tspan x="28.224" y="0" font-family="'Calibri'" font-size="9.9757">c</tspan><tspan x="32.432" y="0" font-family="'Calibri'" font-size="9.9757">l</tspan><tspan x="34.722" y="0" font-family="'Calibri'" font-size="9.9757">ud</tspan><tspan x="45.284" y="0" font-family="'Calibri'" font-size="9.9757">e</tspan><tspan x="50.217" y="0" font-family="'Calibri'" font-size="9.9757"> t</tspan><tspan x="55.853" y="0" font-family="'Calibri'" font-size="9.9757">h</tspan><tspan x="61.135" y="0" font-family="'Calibri'" font-size="9.9757">at t</tspan><tspan x="74.931" y="0" font-family="'Calibri'" font-size="9.9757">h</tspan><tspan x="80.212" y="0" font-family="'Calibri'" font-size="9.9757">e</tspan><tspan x="85.146" y="0" font-family="'Calibri'" font-size="9.9757">r</tspan><tspan x="88.623" y="0" font-family="'Calibri'" font-size="9.9757">e</tspan><tspan x="93.557" y="0" font-family="'Calibri'" font-size="9.9757"> </tspan><tspan x="95.952" y="0" font-family="'Calibri'" font-size="9.9757">m</tspan><tspan x="103.891" y="0" font-family="'Calibri'" font-size="9.9757">a</tspan><tspan x="108.689" y="0" font-family="'Calibri'" font-size="9.9757">y</tspan><tspan x="113.254" y="0" font-family="'Calibri'" font-size="9.9757"> </tspan><tspan x="115.42" y="0" font-family="'Calibri'" font-size="9.9757">b</tspan><tspan x="120.701" y="0" font-family="'Calibri'" font-size="9.9757">e</tspan><tspan x="125.635" y="0" font-family="'Calibri'" font-size="9.9757"> </tspan><tspan x="128.029" y="0" font-family="'Calibri'" font-size="9.9757">a</tspan><tspan x="132.828" y="0" font-family="'Calibri'" font-size="9.9757"> </tspan><tspan x="134.993" y="0" font-family="'Calibri'" font-size="9.9757">p</tspan><tspan x="140.274" y="0" font-family="'Calibri'" font-size="9.9757">e</tspan><tspan x="145.208" y="0" font-family="'Calibri'" font-size="9.9757">r</tspan><tspan x="148.685" y="0" font-family="'Calibri'" font-size="9.9757">s</tspan><tspan x="152.537" y="0" font-family="'Calibri'" font-size="9.9757">o</tspan><tspan x="157.818" y="0" font-family="'Calibri'" font-size="9.9757">n</tspan><tspan x="163.099" y="0" font-family="'Calibri'" font-size="9.9757"> </tspan><tspan x="165.374" y="0" font-family="'Calibri'" font-size="9.9757">i</tspan><tspan x="167.664" y="0" font-family="'Calibri'" font-size="9.9757">n</tspan><tspan x="172.944" y="0" font-family="'Calibri'" font-size="9.9757"> </tspan><tspan x="175.11" y="0" font-family="'Calibri'" font-size="9.9757">t</tspan><tspan x="178.471" y="0" font-family="'Calibri'" font-size="9.9757">h</tspan><tspan x="183.752" y="0" font-family="'Calibri'" font-size="9.9757">i</tspan><tspan x="186.042" y="0" font-family="'Calibri'" font-size="9.9757">s</tspan><tspan x="189.893" y="0" font-family="'Calibri'" font-size="9.9757"> </tspan><tspan x="192.168" y="0" font-family="'Calibri'" font-size="9.9757">r</tspan><tspan x="195.646" y="0" font-family="'Calibri'" font-size="9.9757">oo</tspan><tspan x="206.208" y="0" font-family="'Calibri'" font-size="9.9757">m</tspan></text>
		</g>
	</g>
</g>
</svg>
