<?xml version="1.0" encoding="utf-8"?>
<!-- Generator: Adobe Illustrator 16.0.0, SVG Export Plug-In . SVG Version: 6.00 Build 0)  -->
<!DOCTYPE svg PUBLIC "-//W3C//DTD SVG 1.1//EN" "http://www.w3.org/Graphics/SVG/1.1/DTD/svg11.dtd">
<svg version="1.1" id="Layer_1" xmlns="http://www.w3.org/2000/svg" xmlns:xlink="http://www.w3.org/1999/xlink" x="0px" y="0px"
	 width="485.277px" height="188.652px" viewBox="0 0 485.277 188.652" enable-background="new 0 0 485.277 188.652"
	 xml:space="preserve">
<g>
	<polygon fill-rule="evenodd" clip-rule="evenodd" fill="#A5A5A5" points="0.501,17.656 63.58,17.656 63.58,35.264 0.501,35.264 
		0.501,17.656 	"/>
	<polygon fill-rule="evenodd" clip-rule="evenodd" fill="#A5A5A5" points="63.58,17.656 484.776,17.656 484.776,35.264 
		63.58,35.264 63.58,17.656 	"/>
	<polygon fill-rule="evenodd" clip-rule="evenodd" fill="#EDEDED" points="0.501,35.264 63.58,35.264 63.58,52.872 0.501,52.872 
		0.501,35.264 	"/>
	<polygon fill-rule="evenodd" clip-rule="evenodd" fill="#EDEDED" points="63.58,35.264 484.776,35.264 484.776,52.872 
		63.58,52.872 63.58,35.264 	"/>
	<polygon fill-rule="evenodd" clip-rule="evenodd" fill="#EDEDED" points="0.501,70.48 63.58,70.48 63.58,88.088 0.501,88.088 
		0.501,70.48 	"/>
	<polygon fill-rule="evenodd" clip-rule="evenodd" fill="#EDEDED" points="63.58,70.48 484.776,70.48 484.776,88.088 63.58,88.088 
		63.58,70.48 	"/>
	<polygon fill-rule="evenodd" clip-rule="evenodd" fill="#EDEDED" points="0.501,105.695 63.58,105.695 63.58,123.303 
		0.501,123.303 0.501,105.695 	"/>
	<polygon fill-rule="evenodd" clip-rule="evenodd" fill="#EDEDED" points="63.58,105.695 484.776,105.695 484.776,123.303 
		63.58,123.303 63.58,105.695 	"/>
	<polygon fill-rule="evenodd" clip-rule="evenodd" fill="#EDEDED" points="0.501,140.91 63.58,140.91 63.58,158.518 0.501,158.518 
		0.501,140.91 	"/>
	<polygon fill-rule="evenodd" clip-rule="evenodd" fill="#EDEDED" points="63.58,140.91 484.776,140.91 484.776,158.518 
		63.58,158.518 63.58,140.91 	"/>
	
		<line fill="none" stroke="#C9C9C9" stroke-width="1.0016" stroke-linejoin="round" stroke-miterlimit="10" x1="63.58" y1="34.763" x2="63.58" y2="159.02"/>
	
		<line fill="none" stroke="#A5A5A5" stroke-width="1.0016" stroke-linejoin="round" stroke-miterlimit="10" x1="0.001" y1="35.264" x2="485.276" y2="35.264"/>
	
		<line fill="none" stroke="#C9C9C9" stroke-width="1.0016" stroke-linejoin="round" stroke-miterlimit="10" x1="0.001" y1="52.872" x2="485.276" y2="52.872"/>
	
		<line fill="none" stroke="#C9C9C9" stroke-width="1.0016" stroke-linejoin="round" stroke-miterlimit="10" x1="0.001" y1="70.48" x2="485.276" y2="70.48"/>
	
		<line fill="none" stroke="#C9C9C9" stroke-width="1.0016" stroke-linejoin="round" stroke-miterlimit="10" x1="0.001" y1="88.088" x2="485.276" y2="88.088"/>
	
		<line fill="none" stroke="#C9C9C9" stroke-width="1.0016" stroke-linejoin="round" stroke-miterlimit="10" x1="0.001" y1="105.695" x2="485.276" y2="105.695"/>
	
		<line fill="none" stroke="#C9C9C9" stroke-width="1.0016" stroke-linejoin="round" stroke-miterlimit="10" x1="0.001" y1="123.303" x2="485.276" y2="123.303"/>
	
		<line fill="none" stroke="#C9C9C9" stroke-width="1.0016" stroke-linejoin="round" stroke-miterlimit="10" x1="0.001" y1="140.91" x2="485.276" y2="140.91"/>
	
		<line fill="none" stroke="#A5A5A5" stroke-width="1.0016" stroke-linejoin="round" stroke-miterlimit="10" x1="0.501" y1="17.155" x2="0.501" y2="35.264"/>
	
		<line fill="none" stroke="#C9C9C9" stroke-width="1.0016" stroke-linejoin="round" stroke-miterlimit="10" x1="0.501" y1="35.264" x2="0.501" y2="159.02"/>
	
		<line fill="none" stroke="#A5A5A5" stroke-width="1.0016" stroke-linejoin="round" stroke-miterlimit="10" x1="484.776" y1="17.155" x2="484.776" y2="35.264"/>
	
		<line fill="none" stroke="#C9C9C9" stroke-width="1.0016" stroke-linejoin="round" stroke-miterlimit="10" x1="484.776" y1="35.264" x2="484.776" y2="159.02"/>
	
		<line fill="none" stroke="#A5A5A5" stroke-width="1.0016" stroke-linejoin="round" stroke-miterlimit="10" x1="0.001" y1="17.656" x2="485.276" y2="17.656"/>
	
		<line fill="none" stroke="#C9C9C9" stroke-width="1.0016" stroke-linejoin="round" stroke-miterlimit="10" x1="0.001" y1="158.518" x2="485.276" y2="158.518"/>
	<g>
		<defs>
			<rect id="SVGID_1_" x="0.486" y="-30.091" width="63.12" height="113.097"/>
		</defs>
		<clipPath id="SVGID_2_">
			<use xlink:href="#SVGID_1_"  overflow="visible"/>
		</clipPath>
		<g clip-path="url(#SVGID_2_)">
			<text transform="matrix(0.9984 0 0 1 5.9058 31.9629)"><tspan x="0" y="0" fill="#FFFFFF" font-family="'Calibri-Bold'" font-size="9.9757">S</tspan><tspan x="4.695" y="0" fill="#FFFFFF" font-family="'Calibri-Bold'" font-size="9.9757">c</tspan><tspan x="8.899" y="0" fill="#FFFFFF" font-family="'Calibri-Bold'" font-size="9.9757">e</tspan><tspan x="13.941" y="0" fill="#FFFFFF" font-family="'Calibri-Bold'" font-size="9.9757">n</tspan><tspan x="19.344" y="0" fill="#FFFFFF" font-family="'Calibri-Bold'" font-size="9.9757">a</tspan><tspan x="24.269" y="0" fill="#FFFFFF" font-family="'Calibri-Bold'" font-size="9.9757">r</tspan><tspan x="27.865" y="0" fill="#FFFFFF" font-family="'Calibri-Bold'" font-size="9.9757">i</tspan><tspan x="30.275" y="0" fill="#FFFFFF" font-family="'Calibri-Bold'" font-size="9.9757">o</tspan></text>
		</g>
	</g>
	<g>
		<defs>
			<rect id="SVGID_3_" x="63.606" y="-30.091" width="421.2" height="113.097"/>
		</defs>
		<clipPath id="SVGID_4_">
			<use xlink:href="#SVGID_3_"  overflow="visible"/>
		</clipPath>
		<g clip-path="url(#SVGID_4_)">
			<text transform="matrix(0.9984 0 0 1 68.9839 31.9629)"><tspan x="0" y="0" fill="#FFFFFF" font-family="'Calibri-Bold'" font-size="9.9757">Av</tspan><tspan x="10.705" y="0" fill="#FFFFFF" font-family="'Calibri-Bold'" font-size="9.9757">o</tspan><tspan x="16.108" y="0" fill="#FFFFFF" font-family="'Calibri-Bold'" font-size="9.9757">i</tspan><tspan x="18.518" y="0" fill="#FFFFFF" font-family="'Calibri-Bold'" font-size="9.9757">d</tspan><tspan x="23.921" y="0" fill="#FFFFFF" font-family="'Calibri-Bold'" font-size="9.9757"> </tspan><tspan x="26.316" y="0" fill="#FFFFFF" font-family="'Calibri-Bold'" font-size="9.9757">O</tspan><tspan x="33.052" y="0" fill="#FFFFFF" font-family="'Calibri-Bold'" font-size="9.9757">b</tspan><tspan x="38.455" y="0" fill="#FFFFFF" font-family="'Calibri-Bold'" font-size="9.9757">s</tspan><tspan x="42.425" y="0" fill="#FFFFFF" font-family="'Calibri-Bold'" font-size="9.9757">t</tspan><tspan x="45.903" y="0" fill="#FFFFFF" font-family="'Calibri-Bold'" font-size="9.9757">a</tspan><tspan x="50.827" y="0" fill="#FFFFFF" font-family="'Calibri-Bold'" font-size="9.9757">c</tspan><tspan x="55.032" y="0" fill="#FFFFFF" font-family="'Calibri-Bold'" font-size="9.9757">l</tspan><tspan x="57.442" y="0" fill="#FFFFFF" font-family="'Calibri-Bold'" font-size="9.9757">e</tspan><tspan x="62.484" y="0" fill="#FFFFFF" font-family="'Calibri-Bold'" font-size="9.9757">s</tspan></text>
		</g>
	</g>
	<g>
		<defs>
			<rect id="SVGID_5_" x="0.486" y="-12.543" width="63.12" height="113.217"/>
		</defs>
		<clipPath id="SVGID_6_">
			<use xlink:href="#SVGID_5_"  overflow="visible"/>
		</clipPath>
		<g clip-path="url(#SVGID_6_)">
			<text transform="matrix(0.9984 0 0 1 5.9058 49.5645)"><tspan x="0" y="0" font-family="'Calibri-Bold'" font-size="9.9757">S</tspan><tspan x="4.695" y="0" font-family="'Calibri-Bold'" font-size="9.9757">c</tspan><tspan x="8.899" y="0" font-family="'Calibri-Bold'" font-size="9.9757">e</tspan><tspan x="13.941" y="0" font-family="'Calibri-Bold'" font-size="9.9757">n</tspan><tspan x="19.344" y="0" font-family="'Calibri-Bold'" font-size="9.9757">e</tspan><tspan x="24.386" y="0" font-family="'Calibri-Bold'" font-size="9.9757"> </tspan><tspan x="26.552" y="0" font-family="'Calibri-Bold'" font-size="9.9757">N</tspan><tspan x="33.153" y="0" font-family="'Calibri-Bold'" font-size="9.9757">o</tspan><tspan x="38.555" y="0" font-family="'Calibri-Bold'" font-size="9.9757">.</tspan></text>
		</g>
	</g>
	<g>
		<defs>
			<rect id="SVGID_7_" x="63.606" y="-12.543" width="421.2" height="113.217"/>
		</defs>
		<clipPath id="SVGID_8_">
			<use xlink:href="#SVGID_7_"  overflow="visible"/>
		</clipPath>
		<g clip-path="url(#SVGID_8_)">
			<text transform="matrix(0.9984 0 0 1 68.9839 49.5645)"><tspan x="0" y="0" font-family="'Calibri-Bold'" font-size="9.9757">D</tspan><tspan x="6.258" y="0" font-family="'Calibri-Bold'" font-size="9.9757">e</tspan><tspan x="11.3" y="0" font-family="'Calibri-Bold'" font-size="9.9757">s</tspan><tspan x="15.27" y="0" font-family="'Calibri-Bold'" font-size="9.9757">c</tspan><tspan x="19.474" y="0" font-family="'Calibri-Bold'" font-size="9.9757">r</tspan><tspan x="23.07" y="0" font-family="'Calibri-Bold'" font-size="9.9757">i</tspan><tspan x="25.48" y="0" font-family="'Calibri-Bold'" font-size="9.9757">p</tspan><tspan x="30.884" y="0" font-family="'Calibri-Bold'" font-size="9.9757">ti</tspan><tspan x="36.684" y="0" font-family="'Calibri-Bold'" font-size="9.9757">o</tspan><tspan x="42.087" y="0" font-family="'Calibri-Bold'" font-size="9.9757">n</tspan></text>
		</g>
	</g>
	<g>
		<defs>
			<rect id="SVGID_9_" x="0.486" y="5.124" width="63.12" height="113.099"/>
		</defs>
		<clipPath id="SVGID_10_">
			<use xlink:href="#SVGID_9_"  overflow="visible"/>
		</clipPath>
		<g clip-path="url(#SVGID_10_)">
			<text transform="matrix(0.9984 0 0 1 5.9058 67.1738)" font-family="'Calibri-Bold'" font-size="9.9757">1</text>
		</g>
	</g>
	<g>
		<defs>
			<rect id="SVGID_11_" x="63.606" y="5.124" width="421.2" height="113.099"/>
		</defs>
		<clipPath id="SVGID_12_">
			<use xlink:href="#SVGID_11_"  overflow="visible"/>
		</clipPath>
		<g clip-path="url(#SVGID_12_)">
			<text transform="matrix(0.9984 0 0 1 68.9839 67.1738)"><tspan x="0" y="0" font-family="'Calibri'" font-size="9.9757">A</tspan><tspan x="5.772" y="0" font-family="'Calibri'" font-size="9.9757"> </tspan><tspan x="8.047" y="0" font-family="'Calibri'" font-size="9.9757">b</tspan><tspan x="13.328" y="0" font-family="'Calibri'" font-size="9.9757">li</tspan><tspan x="17.907" y="0" font-family="'Calibri'" font-size="9.9757">nd</tspan><tspan x="28.469" y="0" font-family="'Calibri'" font-size="9.9757"> </tspan><tspan x="30.515" y="0" font-family="'Calibri'" font-size="9.9757">i</tspan><tspan x="32.804" y="0" font-family="'Calibri'" font-size="9.9757">s</tspan><tspan x="36.656" y="0" font-family="'Calibri'" font-size="9.9757"> </tspan><tspan x="38.931" y="0" font-family="'Calibri'" font-size="9.9757">i</tspan><tspan x="41.221" y="0" font-family="'Calibri'" font-size="9.9757">n</tspan><tspan x="46.501" y="0" font-family="'Calibri'" font-size="9.9757"> </tspan><tspan x="48.667" y="0" font-family="'Calibri'" font-size="9.9757">a </tspan><tspan x="55.74" y="0" font-family="'Calibri'" font-size="9.9757">r</tspan><tspan x="59.218" y="0" font-family="'Calibri'" font-size="9.9757">oo</tspan><tspan x="69.779" y="0" font-family="'Calibri'" font-size="9.9757">m</tspan><tspan x="77.718" y="0" font-family="'Calibri'" font-size="9.9757"> </tspan><tspan x="79.993" y="0" font-family="'Calibri'" font-size="9.9757">w</tspan><tspan x="87.085" y="0" font-family="'Calibri'" font-size="9.9757">h</tspan><tspan x="92.365" y="0" font-family="'Calibri'" font-size="9.9757">e</tspan><tspan x="97.299" y="0" font-family="'Calibri'" font-size="9.9757">r</tspan><tspan x="100.777" y="0" font-family="'Calibri'" font-size="9.9757">e</tspan><tspan x="105.711" y="0" font-family="'Calibri'" font-size="9.9757"> </tspan><tspan x="108.106" y="0" font-family="'Calibri'" font-size="9.9757">h</tspan><tspan x="113.386" y="0" font-family="'Calibri'" font-size="9.9757">e</tspan><tspan x="118.32" y="0" font-family="'Calibri'" font-size="9.9757"> </tspan><tspan x="120.595" y="0" font-family="'Calibri'" font-size="9.9757">h</tspan><tspan x="125.876" y="0" font-family="'Calibri'" font-size="9.9757">a</tspan><tspan x="130.675" y="0" font-family="'Calibri'" font-size="9.9757">s</tspan><tspan x="134.526" y="0" font-family="'Calibri'" font-size="9.9757"> </tspan><tspan x="136.802" y="0" font-family="'Calibri'" font-size="9.9757">n</tspan><tspan x="142.083" y="0" font-family="'Calibri'" font-size="9.9757">e</tspan><tspan x="147.016" y="0" font-family="'Calibri'" font-size="9.9757">v</tspan><tspan x="151.472" y="0" font-family="'Calibri'" font-size="9.9757">e</tspan><tspan x="156.406" y="0" font-family="'Calibri'" font-size="9.9757">r</tspan><tspan x="159.883" y="0" font-family="'Calibri'" font-size="9.9757"> </tspan><tspan x="162.278" y="0" font-family="'Calibri'" font-size="9.9757">b</tspan><tspan x="167.559" y="0" font-family="'Calibri'" font-size="9.9757">ee</tspan><tspan x="177.426" y="0" font-family="'Calibri'" font-size="9.9757">n</tspan><tspan x="182.707" y="0" font-family="'Calibri'" font-size="9.9757"> </tspan><tspan x="185.102" y="0" font-family="'Calibri'" font-size="9.9757">b</tspan><tspan x="190.383" y="0" font-family="'Calibri'" font-size="9.9757">ef</tspan><tspan x="198.331" y="0" font-family="'Calibri'" font-size="9.9757">o</tspan><tspan x="203.612" y="0" font-family="'Calibri'" font-size="9.9757">re</tspan></text>
		</g>
	</g>
	<g>
		<defs>
			<rect id="SVGID_13_" x="0.486" y="22.672" width="63.12" height="113.219"/>
		</defs>
		<clipPath id="SVGID_14_">
			<use xlink:href="#SVGID_13_"  overflow="visible"/>
		</clipPath>
		<g clip-path="url(#SVGID_14_)">
			<text transform="matrix(0.9984 0 0 1 5.9058 84.7832)" font-family="'Calibri-Bold'" font-size="9.9757">2</text>
		</g>
	</g>
	<g>
		<defs>
			<rect id="SVGID_15_" x="63.606" y="22.672" width="421.2" height="113.219"/>
		</defs>
		<clipPath id="SVGID_16_">
			<use xlink:href="#SVGID_15_"  overflow="visible"/>
		</clipPath>
		<g clip-path="url(#SVGID_16_)">
			<text transform="matrix(0.9984 0 0 1 68.9839 84.7832)"><tspan x="0" y="0" font-family="'Calibri'" font-size="9.9757">A</tspan><tspan x="5.772" y="0" font-family="'Calibri'" font-size="9.9757">s</tspan><tspan x="9.624" y="0" font-family="'Calibri'" font-size="9.9757"> </tspan><tspan x="11.899" y="0" font-family="'Calibri'" font-size="9.9757">h</tspan><tspan x="17.18" y="0" font-family="'Calibri'" font-size="9.9757">e</tspan><tspan x="22.113" y="0" font-family="'Calibri'" font-size="9.9757"> </tspan><tspan x="24.389" y="0" font-family="'Calibri'" font-size="9.9757">w</tspan><tspan x="31.48" y="0" font-family="'Calibri'" font-size="9.9757">a</tspan><tspan x="36.278" y="0" font-family="'Calibri'" font-size="9.9757">l</tspan><tspan x="38.567" y="0" font-family="'Calibri'" font-size="9.9757">k</tspan><tspan x="43.132" y="0" font-family="'Calibri'" font-size="9.9757"> </tspan><tspan x="45.298" y="0" font-family="'Calibri'" font-size="9.9757">f</tspan><tspan x="48.312" y="0" font-family="'Calibri'" font-size="9.9757">o</tspan><tspan x="53.593" y="0" font-family="'Calibri'" font-size="9.9757">r</tspan><tspan x="57.071" y="0" font-family="'Calibri'" font-size="9.9757">w</tspan><tspan x="64.162" y="0" font-family="'Calibri'" font-size="9.9757">a</tspan><tspan x="68.96" y="0" font-family="'Calibri'" font-size="9.9757">r</tspan><tspan x="72.438" y="0" font-family="'Calibri'" font-size="9.9757">d</tspan><tspan x="77.719" y="0" font-family="'Calibri'" font-size="9.9757">,</tspan><tspan x="80.238" y="0" font-family="'Calibri'" font-size="9.9757"> </tspan><tspan x="82.403" y="0" font-family="'Calibri'" font-size="9.9757">h</tspan><tspan x="87.684" y="0" font-family="'Calibri'" font-size="9.9757">e</tspan><tspan x="92.618" y="0" font-family="'Calibri'" font-size="9.9757"> </tspan><tspan x="95.013" y="0" font-family="'Calibri'" font-size="9.9757">fee</tspan><tspan x="107.894" y="0" font-family="'Calibri'" font-size="9.9757">l</tspan><tspan x="110.184" y="0" font-family="'Calibri'" font-size="9.9757">s</tspan><tspan x="114.035" y="0" font-family="'Calibri'" font-size="9.9757"> </tspan><tspan x="116.43" y="0" font-family="'Calibri'" font-size="9.9757">a</tspan><tspan x="121.229" y="0" font-family="'Calibri'" font-size="9.9757"> </tspan><tspan x="123.394" y="0" font-family="'Calibri'" font-size="9.9757">v</tspan><tspan x="127.85" y="0" font-family="'Calibri'" font-size="9.9757">i</tspan><tspan x="130.139" y="0" font-family="'Calibri'" font-size="9.9757">b</tspan><tspan x="135.42" y="0" font-family="'Calibri'" font-size="9.9757">r</tspan><tspan x="138.898" y="0" font-family="'Calibri'" font-size="9.9757">a</tspan><tspan x="143.697" y="0" font-family="'Calibri'" font-size="9.9757">ti</tspan><tspan x="149.254" y="0" font-family="'Calibri'" font-size="9.9757">o</tspan><tspan x="154.535" y="0" font-family="'Calibri'" font-size="9.9757">n</tspan><tspan x="159.816" y="0" font-family="'Calibri'" font-size="9.9757"> </tspan><tspan x="161.981" y="0" font-family="'Calibri'" font-size="9.9757">f</tspan><tspan x="164.996" y="0" font-family="'Calibri'" font-size="9.9757">r</tspan><tspan x="168.473" y="0" font-family="'Calibri'" font-size="9.9757">o</tspan><tspan x="173.754" y="0" font-family="'Calibri'" font-size="9.9757">m</tspan><tspan x="181.693" y="0" font-family="'Calibri'" font-size="9.9757"> a </tspan><tspan x="191.042" y="0" font-family="'Calibri'" font-size="9.9757">s</tspan><tspan x="194.893" y="0" font-family="'Calibri'" font-size="9.9757">e</tspan><tspan x="199.827" y="0" font-family="'Calibri'" font-size="9.9757">n</tspan><tspan x="205.108" y="0" font-family="'Calibri'" font-size="9.9757">s</tspan><tspan x="208.96" y="0" font-family="'Calibri'" font-size="9.9757">o</tspan><tspan x="214.24" y="0" font-family="'Calibri'" font-size="9.9757">r</tspan><tspan x="217.718" y="0" font-family="'Calibri'" font-size="9.9757"> </tspan><tspan x="219.993" y="0" font-family="'Calibri'" font-size="9.9757">g</tspan><tspan x="224.689" y="0" font-family="'Calibri'" font-size="9.9757">ett</tspan><tspan x="229.622" y="0" font-family="'Calibri'" font-size="9.9757">i</tspan><tspan x="238.161" y="0" font-family="'Calibri'" font-size="9.9757">n</tspan><tspan x="243.442" y="0" font-family="'Calibri'" font-size="9.9757">g</tspan><tspan x="248.138" y="0" font-family="'Calibri'" font-size="9.9757"> </tspan><tspan x="250.652" y="0" font-family="'Calibri'" font-size="9.9757">s</tspan><tspan x="254.504" y="0" font-family="'Calibri'" font-size="9.9757">t</tspan><tspan x="257.865" y="0" font-family="'Calibri'" font-size="9.9757">r</tspan><tspan x="261.344" y="0" font-family="'Calibri'" font-size="9.9757">o</tspan><tspan x="266.624" y="0" font-family="'Calibri'" font-size="9.9757">n</tspan><tspan x="271.905" y="0" font-family="'Calibri'" font-size="9.9757">g</tspan><tspan x="276.6" y="0" font-family="'Calibri'" font-size="9.9757">e</tspan><tspan x="281.534" y="0" font-family="'Calibri'" font-size="9.9757">r</tspan><tspan x="285.012" y="0" font-family="'Calibri'" font-size="9.9757"> </tspan><tspan x="287.407" y="0" font-family="'Calibri'" font-size="9.9757">i</tspan><tspan x="289.696" y="0" font-family="'Calibri'" font-size="9.9757">n</tspan><tspan x="294.977" y="0" font-family="'Calibri'" font-size="9.9757">s</tspan><tspan x="298.829" y="0" font-family="'Calibri'" font-size="9.9757">ta</tspan><tspan x="306.989" y="0" font-family="'Calibri'" font-size="9.9757">ll</tspan><tspan x="311.568" y="0" font-family="'Calibri'" font-size="9.9757">e</tspan><tspan x="316.501" y="0" font-family="'Calibri'" font-size="9.9757">d</tspan><tspan x="321.782" y="0" font-family="'Calibri'" font-size="9.9757"> </tspan><tspan x="323.948" y="0" font-family="'Calibri'" font-size="9.9757">i</tspan><tspan x="326.237" y="0" font-family="'Calibri'" font-size="9.9757">n</tspan><tspan x="331.517" y="0" font-family="'Calibri'" font-size="9.9757"> </tspan><tspan x="333.683" y="0" font-family="'Calibri'" font-size="9.9757">f</tspan><tspan x="336.697" y="0" font-family="'Calibri'" font-size="9.9757">r</tspan><tspan x="340.176" y="0" font-family="'Calibri'" font-size="9.9757">o</tspan><tspan x="345.456" y="0" font-family="'Calibri'" font-size="9.9757">n</tspan><tspan x="350.737" y="0" font-family="'Calibri'" font-size="9.9757">t o</tspan><tspan x="361.655" y="0" font-family="'Calibri'" font-size="9.9757">f</tspan><tspan x="364.669" y="0" font-family="'Calibri'" font-size="9.9757"> </tspan><tspan x="366.835" y="0" font-family="'Calibri'" font-size="9.9757">h</tspan><tspan x="372.115" y="0" font-family="'Calibri'" font-size="9.9757">i</tspan><tspan x="374.404" y="0" font-family="'Calibri'" font-size="9.9757">s</tspan><tspan x="378.256" y="0" font-family="'Calibri'" font-size="9.9757"> </tspan><tspan x="380.532" y="0" font-family="'Calibri'" font-size="9.9757">b</tspan><tspan x="385.813" y="0" font-family="'Calibri'" font-size="9.9757">e</tspan><tspan x="390.746" y="0" font-family="'Calibri'" font-size="9.9757">lt</tspan></text>
		</g>
	</g>
	<g>
		<defs>
			<rect id="SVGID_17_" x="0.486" y="40.339" width="63.12" height="113.098"/>
		</defs>
		<clipPath id="SVGID_18_">
			<use xlink:href="#SVGID_17_"  overflow="visible"/>
		</clipPath>
		<g clip-path="url(#SVGID_18_)">
			<text transform="matrix(0.9984 0 0 1 5.9058 102.3926)" font-family="'Calibri-Bold'" font-size="9.9757">3</text>
		</g>
	</g>
	<g>
		<defs>
			<rect id="SVGID_19_" x="63.606" y="40.339" width="421.2" height="113.098"/>
		</defs>
		<clipPath id="SVGID_20_">
			<use xlink:href="#SVGID_19_"  overflow="visible"/>
		</clipPath>
		<g clip-path="url(#SVGID_20_)">
			<text transform="matrix(0.9984 0 0 1 68.9839 102.3926)"><tspan x="0" y="0" font-family="'Calibri'" font-size="9.9757">H</tspan><tspan x="6.245" y="0" font-family="'Calibri'" font-size="9.9757">e</tspan><tspan x="11.179" y="0" font-family="'Calibri'" font-size="9.9757"> </tspan><tspan x="13.454" y="0" font-family="'Calibri'" font-size="9.9757">i</tspan><tspan x="15.743" y="0" font-family="'Calibri'" font-size="9.9757">mme</tspan><tspan x="36.555" y="0" font-family="'Calibri'" font-size="9.9757">d</tspan><tspan x="41.836" y="0" font-family="'Calibri'" font-size="9.9757">i</tspan><tspan x="44.125" y="0" font-family="'Calibri'" font-size="9.9757">at</tspan><tspan x="52.285" y="0" font-family="'Calibri'" font-size="9.9757">e</tspan><tspan x="57.218" y="0" font-family="'Calibri'" font-size="9.9757">l</tspan><tspan x="59.508" y="0" font-family="'Calibri'" font-size="9.9757">y</tspan><tspan x="64.073" y="0" font-family="'Calibri'" font-size="9.9757"> </tspan><tspan x="66.468" y="0" font-family="'Calibri'" font-size="9.9757">k</tspan><tspan x="71.033" y="0" font-family="'Calibri'" font-size="9.9757">n</tspan><tspan x="76.314" y="0" font-family="'Calibri'" font-size="9.9757">o</tspan><tspan x="81.594" y="0" font-family="'Calibri'" font-size="9.9757">w</tspan><tspan x="88.685" y="0" font-family="'Calibri'" font-size="9.9757">s</tspan><tspan x="92.537" y="0" font-family="'Calibri'" font-size="9.9757"> t</tspan><tspan x="98.174" y="0" font-family="'Calibri'" font-size="9.9757">h</tspan><tspan x="103.455" y="0" font-family="'Calibri'" font-size="9.9757">at</tspan><tspan x="111.614" y="0" font-family="'Calibri'" font-size="9.9757"> </tspan><tspan x="113.78" y="0" font-family="'Calibri'" font-size="9.9757">t</tspan><tspan x="117.141" y="0" font-family="'Calibri'" font-size="9.9757">h</tspan><tspan x="122.422" y="0" font-family="'Calibri'" font-size="9.9757">e</tspan><tspan x="127.356" y="0" font-family="'Calibri'" font-size="9.9757">r</tspan><tspan x="130.834" y="0" font-family="'Calibri'" font-size="9.9757">e</tspan><tspan x="135.767" y="0" font-family="'Calibri'" font-size="9.9757"> </tspan><tspan x="138.162" y="0" font-family="'Calibri'" font-size="9.9757">i</tspan><tspan x="140.452" y="0" font-family="'Calibri'" font-size="9.9757">s</tspan><tspan x="144.303" y="0" font-family="'Calibri'" font-size="9.9757"> </tspan><tspan x="146.579" y="0" font-family="'Calibri'" font-size="9.9757">s</tspan><tspan x="150.43" y="0" font-family="'Calibri'" font-size="9.9757">o</tspan><tspan x="155.711" y="0" font-family="'Calibri'" font-size="9.9757">me</tspan><tspan x="168.583" y="0" font-family="'Calibri'" font-size="9.9757">t</tspan><tspan x="171.945" y="0" font-family="'Calibri'" font-size="9.9757">h</tspan><tspan x="177.226" y="0" font-family="'Calibri'" font-size="9.9757">i</tspan><tspan x="179.515" y="0" font-family="'Calibri'" font-size="9.9757">n</tspan><tspan x="184.796" y="0" font-family="'Calibri'" font-size="9.9757">g</tspan><tspan x="189.492" y="0" font-family="'Calibri'" font-size="9.9757"> </tspan><tspan x="191.887" y="0" font-family="'Calibri'" font-size="9.9757">i</tspan><tspan x="194.176" y="0" font-family="'Calibri'" font-size="9.9757">n</tspan><tspan x="199.457" y="0" font-family="'Calibri'" font-size="9.9757"> </tspan><tspan x="201.622" y="0" font-family="'Calibri'" font-size="9.9757">f</tspan><tspan x="204.637" y="0" font-family="'Calibri'" font-size="9.9757">r</tspan><tspan x="208.115" y="0" font-family="'Calibri'" font-size="9.9757">o</tspan><tspan x="213.395" y="0" font-family="'Calibri'" font-size="9.9757">n</tspan><tspan x="218.676" y="0" font-family="'Calibri'" font-size="9.9757">t o</tspan><tspan x="229.593" y="0" font-family="'Calibri'" font-size="9.9757">f</tspan><tspan x="232.608" y="0" font-family="'Calibri'" font-size="9.9757"> </tspan><tspan x="234.773" y="0" font-family="'Calibri'" font-size="9.9757">h</tspan><tspan x="240.054" y="0" font-family="'Calibri'" font-size="9.9757">im</tspan></text>
		</g>
	</g>
	<g>
		<defs>
			<rect id="SVGID_21_" x="0.486" y="57.887" width="63.12" height="113.218"/>
		</defs>
		<clipPath id="SVGID_22_">
			<use xlink:href="#SVGID_21_"  overflow="visible"/>
		</clipPath>
		<g clip-path="url(#SVGID_22_)">
			<text transform="matrix(0.9984 0 0 1 5.9058 119.9941)" font-family="'Calibri-Bold'" font-size="9.9757">4</text>
		</g>
	</g>
	<g>
		<defs>
			<rect id="SVGID_23_" x="63.606" y="57.887" width="421.2" height="113.218"/>
		</defs>
		<clipPath id="SVGID_24_">
			<use xlink:href="#SVGID_23_"  overflow="visible"/>
		</clipPath>
		<g clip-path="url(#SVGID_24_)">
			<text transform="matrix(0.9984 0 0 1 68.9839 119.9941)"><tspan x="0" y="0" font-family="'Calibri'" font-size="9.9757">H</tspan><tspan x="6.245" y="0" font-family="'Calibri'" font-size="9.9757">e</tspan><tspan x="11.179" y="0" font-family="'Calibri'" font-size="9.9757"> </tspan><tspan x="13.454" y="0" font-family="'Calibri'" font-size="9.9757">m</tspan><tspan x="21.393" y="0" font-family="'Calibri'" font-size="9.9757">o</tspan><tspan x="26.673" y="0" font-family="'Calibri'" font-size="9.9757">v</tspan><tspan x="31.129" y="0" font-family="'Calibri'" font-size="9.9757">e</tspan><tspan x="36.063" y="0" font-family="'Calibri'" font-size="9.9757"> </tspan><tspan x="38.577" y="0" font-family="'Calibri'" font-size="9.9757">to</tspan><tspan x="47.219" y="0" font-family="'Calibri'" font-size="9.9757"> </tspan><tspan x="49.385" y="0" font-family="'Calibri'" font-size="9.9757">t</tspan><tspan x="52.746" y="0" font-family="'Calibri'" font-size="9.9757">h</tspan><tspan x="58.027" y="0" font-family="'Calibri'" font-size="9.9757">e</tspan><tspan x="62.961" y="0" font-family="'Calibri'" font-size="9.9757"> </tspan><tspan x="65.356" y="0" font-family="'Calibri'" font-size="9.9757">rig</tspan><tspan x="75.818" y="0" font-family="'Calibri'" font-size="9.9757">h</tspan><tspan x="81.1" y="0" font-family="'Calibri'" font-size="9.9757">t</tspan><tspan x="84.461" y="0" font-family="'Calibri'" font-size="9.9757">.</tspan><tspan x="86.979" y="0" font-family="'Calibri'" font-size="9.9757"> </tspan><tspan x="89.255" y="0" font-family="'Calibri'" font-size="9.9757">H</tspan><tspan x="95.5" y="0" font-family="'Calibri'" font-size="9.9757">e</tspan><tspan x="100.433" y="0" font-family="'Calibri'" font-size="9.9757"> </tspan><tspan x="102.708" y="0" font-family="'Calibri'" font-size="9.9757">fee</tspan><tspan x="115.59" y="0" font-family="'Calibri'" font-size="9.9757">l</tspan><tspan x="117.879" y="0" font-family="'Calibri'" font-size="9.9757">s</tspan><tspan x="121.731" y="0" font-family="'Calibri'" font-size="9.9757"> </tspan><tspan x="124.126" y="0" font-family="'Calibri'" font-size="9.9757">t</tspan><tspan x="127.487" y="0" font-family="'Calibri'" font-size="9.9757">h</tspan><tspan x="132.768" y="0" font-family="'Calibri'" font-size="9.9757">e</tspan><tspan x="137.702" y="0" font-family="'Calibri'" font-size="9.9757"> </tspan><tspan x="140.097" y="0" font-family="'Calibri'" font-size="9.9757">v</tspan><tspan x="144.552" y="0" font-family="'Calibri'" font-size="9.9757">i</tspan><tspan x="146.842" y="0" font-family="'Calibri'" font-size="9.9757">b</tspan><tspan x="152.123" y="0" font-family="'Calibri'" font-size="9.9757">r</tspan><tspan x="155.601" y="0" font-family="'Calibri'" font-size="9.9757">a</tspan><tspan x="160.399" y="0" font-family="'Calibri'" font-size="9.9757">ti</tspan><tspan x="165.957" y="0" font-family="'Calibri'" font-size="9.9757">o</tspan><tspan x="171.238" y="0" font-family="'Calibri'" font-size="9.9757">n</tspan><tspan x="176.518" y="0" font-family="'Calibri'" font-size="9.9757"> </tspan><tspan x="178.684" y="0" font-family="'Calibri'" font-size="9.9757">f</tspan><tspan x="181.698" y="0" font-family="'Calibri'" font-size="9.9757">r</tspan><tspan x="185.176" y="0" font-family="'Calibri'" font-size="9.9757">o</tspan><tspan x="190.457" y="0" font-family="'Calibri'" font-size="9.9757">m</tspan><tspan x="198.395" y="0" font-family="'Calibri'" font-size="9.9757"> t</tspan><tspan x="204.032" y="0" font-family="'Calibri'" font-size="9.9757">h</tspan><tspan x="209.313" y="0" font-family="'Calibri'" font-size="9.9757">e</tspan><tspan x="214.247" y="0" font-family="'Calibri'" font-size="9.9757"> </tspan><tspan x="216.522" y="0" font-family="'Calibri'" font-size="9.9757">rig</tspan><tspan x="226.985" y="0" font-family="'Calibri'" font-size="9.9757">h</tspan><tspan x="232.266" y="0" font-family="'Calibri'" font-size="9.9757">t</tspan></text>
		</g>
	</g>
	<g>
		<defs>
			<rect id="SVGID_25_" x="0.486" y="75.555" width="63.12" height="113.098"/>
		</defs>
		<clipPath id="SVGID_26_">
			<use xlink:href="#SVGID_25_"  overflow="visible"/>
		</clipPath>
		<g clip-path="url(#SVGID_26_)">
			<text transform="matrix(0.9984 0 0 1 5.9058 137.6035)" font-family="'Calibri-Bold'" font-size="9.9757">5</text>
		</g>
	</g>
	<g>
		<defs>
			<rect id="SVGID_27_" x="63.606" y="75.555" width="421.2" height="113.098"/>
		</defs>
		<clipPath id="SVGID_28_">
			<use xlink:href="#SVGID_27_"  overflow="visible"/>
		</clipPath>
		<g clip-path="url(#SVGID_28_)">
			<text transform="matrix(0.9984 0 0 1 68.9839 137.6035)"><tspan x="0" y="0" font-family="'Calibri'" font-size="9.9757">H</tspan><tspan x="6.245" y="0" font-family="'Calibri'" font-size="9.9757">e</tspan><tspan x="11.179" y="0" font-family="'Calibri'" font-size="9.9757"> </tspan><tspan x="13.454" y="0" font-family="'Calibri'" font-size="9.9757">m</tspan><tspan x="21.393" y="0" font-family="'Calibri'" font-size="9.9757">o</tspan><tspan x="26.673" y="0" font-family="'Calibri'" font-size="9.9757">v</tspan><tspan x="31.129" y="0" font-family="'Calibri'" font-size="9.9757">e</tspan><tspan x="36.063" y="0" font-family="'Calibri'" font-size="9.9757"> </tspan><tspan x="38.577" y="0" font-family="'Calibri'" font-size="9.9757">to</tspan><tspan x="47.219" y="0" font-family="'Calibri'" font-size="9.9757"> </tspan><tspan x="49.385" y="0" font-family="'Calibri'" font-size="9.9757">t</tspan><tspan x="52.746" y="0" font-family="'Calibri'" font-size="9.9757">h</tspan><tspan x="58.027" y="0" font-family="'Calibri'" font-size="9.9757">e</tspan><tspan x="62.961" y="0" font-family="'Calibri'" font-size="9.9757"> </tspan><tspan x="65.356" y="0" font-family="'Calibri'" font-size="9.9757">l</tspan><tspan x="67.645" y="0" font-family="'Calibri'" font-size="9.9757">e</tspan><tspan x="72.578" y="0" font-family="'Calibri'" font-size="9.9757">ft </tspan><tspan x="81.016" y="0" font-family="'Calibri'" font-size="9.9757">unt</tspan><tspan x="91.578" y="0" font-family="'Calibri'" font-size="9.9757">il</tspan><tspan x="99.425" y="0" font-family="'Calibri'" font-size="9.9757"> </tspan><tspan x="101.59" y="0" font-family="'Calibri'" font-size="9.9757">h</tspan><tspan x="106.872" y="0" font-family="'Calibri'" font-size="9.9757">e</tspan><tspan x="111.805" y="0" font-family="'Calibri'" font-size="9.9757"> </tspan><tspan x="114.08" y="0" font-family="'Calibri'" font-size="9.9757">d</tspan><tspan x="119.362" y="0" font-family="'Calibri'" font-size="9.9757">o</tspan><tspan x="124.642" y="0" font-family="'Calibri'" font-size="9.9757">e</tspan><tspan x="129.575" y="0" font-family="'Calibri'" font-size="9.9757">s</tspan><tspan x="133.427" y="0" font-family="'Calibri'" font-size="9.9757">n</tspan><tspan x="138.708" y="0" font-family="'Calibri'" font-size="9.9757">’</tspan><tspan x="141.227" y="0" font-family="'Calibri'" font-size="9.9757">t </tspan><tspan x="146.864" y="0" font-family="'Calibri'" font-size="9.9757">fee</tspan><tspan x="159.745" y="0" font-family="'Calibri'" font-size="9.9757">l</tspan><tspan x="162.035" y="0" font-family="'Calibri'" font-size="9.9757"> </tspan><tspan x="164.429" y="0" font-family="'Calibri'" font-size="9.9757">t</tspan><tspan x="167.791" y="0" font-family="'Calibri'" font-size="9.9757">h</tspan><tspan x="173.072" y="0" font-family="'Calibri'" font-size="9.9757">e</tspan><tspan x="178.005" y="0" font-family="'Calibri'" font-size="9.9757"> </tspan><tspan x="180.281" y="0" font-family="'Calibri'" font-size="9.9757">v</tspan><tspan x="184.736" y="0" font-family="'Calibri'" font-size="9.9757">i</tspan><tspan x="187.026" y="0" font-family="'Calibri'" font-size="9.9757">b</tspan><tspan x="192.307" y="0" font-family="'Calibri'" font-size="9.9757">ra</tspan><tspan x="195.785" y="0" font-family="'Calibri'" font-size="9.9757">t</tspan><tspan x="200.583" y="0" font-family="'Calibri'" font-size="9.9757">i</tspan><tspan x="206.141" y="0" font-family="'Calibri'" font-size="9.9757">o</tspan><tspan x="211.421" y="0" font-family="'Calibri'" font-size="9.9757">n</tspan><tspan x="216.703" y="0" font-family="'Calibri'" font-size="9.9757"> </tspan><tspan x="218.868" y="0" font-family="'Calibri'" font-size="9.9757">a</tspan><tspan x="223.666" y="0" font-family="'Calibri'" font-size="9.9757">n</tspan><tspan x="228.947" y="0" font-family="'Calibri'" font-size="9.9757">y</tspan><tspan x="233.512" y="0" font-family="'Calibri'" font-size="9.9757">m</tspan><tspan x="241.451" y="0" font-family="'Calibri'" font-size="9.9757">o</tspan><tspan x="246.732" y="0" font-family="'Calibri'" font-size="9.9757">re</tspan></text>
		</g>
	</g>
	<g>
		<defs>
			<rect id="SVGID_29_" x="0.486" y="93.104" width="63.12" height="113.217"/>
		</defs>
		<clipPath id="SVGID_30_">
			<use xlink:href="#SVGID_29_"  overflow="visible"/>
		</clipPath>
		<g clip-path="url(#SVGID_30_)">
			<text transform="matrix(0.9984 0 0 1 5.9058 155.2129)" font-family="'Calibri-Bold'" font-size="9.9757">6</text>
		</g>
	</g>
	<g>
		<defs>
			<rect id="SVGID_31_" x="63.606" y="93.104" width="421.2" height="113.217"/>
		</defs>
		<clipPath id="SVGID_32_">
			<use xlink:href="#SVGID_31_"  overflow="visible"/>
		</clipPath>
		<g clip-path="url(#SVGID_32_)">
			<text transform="matrix(0.9984 0 0 1 68.9839 155.2129)"><tspan x="0" y="0" font-family="'Calibri'" font-size="9.9757">H</tspan><tspan x="6.245" y="0" font-family="'Calibri'" font-size="9.9757">e</tspan><tspan x="11.179" y="0" font-family="'Calibri'" font-size="9.9757"> </tspan><tspan x="13.454" y="0" font-family="'Calibri'" font-size="9.9757">s</tspan><tspan x="17.306" y="0" font-family="'Calibri'" font-size="9.9757">u</tspan><tspan x="22.587" y="0" font-family="'Calibri'" font-size="9.9757">cc</tspan><tspan x="31.003" y="0" font-family="'Calibri'" font-size="9.9757">e</tspan><tspan x="35.937" y="0" font-family="'Calibri'" font-size="9.9757">ss</tspan><tspan x="43.64" y="0" font-family="'Calibri'" font-size="9.9757">f</tspan><tspan x="46.655" y="0" font-family="'Calibri'" font-size="9.9757">u</tspan><tspan x="51.936" y="0" font-family="'Calibri'" font-size="9.9757">ll</tspan><tspan x="56.514" y="0" font-family="'Calibri'" font-size="9.9757">y</tspan><tspan x="61.079" y="0" font-family="'Calibri'" font-size="9.9757"> </tspan><tspan x="63.474" y="0" font-family="'Calibri'" font-size="9.9757">a</tspan><tspan x="68.273" y="0" font-family="'Calibri'" font-size="9.9757">v</tspan><tspan x="72.729" y="0" font-family="'Calibri'" font-size="9.9757">o</tspan><tspan x="78.009" y="0" font-family="'Calibri'" font-size="9.9757">i</tspan><tspan x="80.299" y="0" font-family="'Calibri'" font-size="9.9757">d</tspan><tspan x="85.579" y="0" font-family="'Calibri'" font-size="9.9757"> </tspan><tspan x="87.745" y="0" font-family="'Calibri'" font-size="9.9757">h</tspan><tspan x="93.026" y="0" font-family="'Calibri'" font-size="9.9757">itti</tspan><tspan x="103.854" y="0" font-family="'Calibri'" font-size="9.9757">n</tspan><tspan x="109.135" y="0" font-family="'Calibri'" font-size="9.9757">g</tspan><tspan x="113.831" y="0" font-family="'Calibri'" font-size="9.9757"> </tspan><tspan x="116.106" y="0" font-family="'Calibri'" font-size="9.9757">h</tspan><tspan x="121.387" y="0" font-family="'Calibri'" font-size="9.9757">i</tspan><tspan x="123.676" y="0" font-family="'Calibri'" font-size="9.9757">m</tspan><tspan x="131.615" y="0" font-family="'Calibri'" font-size="9.9757">s</tspan><tspan x="135.467" y="0" font-family="'Calibri'" font-size="9.9757">e</tspan><tspan x="140.4" y="0" font-family="'Calibri'" font-size="9.9757">l</tspan><tspan x="142.69" y="0" font-family="'Calibri'" font-size="9.9757">f</tspan><tspan x="145.704" y="0" font-family="'Calibri'" font-size="9.9757"> at t</tspan><tspan x="161.776" y="0" font-family="'Calibri'" font-size="9.9757">h</tspan><tspan x="167.057" y="0" font-family="'Calibri'" font-size="9.9757">e</tspan><tspan x="171.99" y="0" font-family="'Calibri'" font-size="9.9757"> </tspan><tspan x="174.266" y="0" font-family="'Calibri'" font-size="9.9757">w</tspan><tspan x="181.356" y="0" font-family="'Calibri'" font-size="9.9757">a</tspan><tspan x="186.155" y="0" font-family="'Calibri'" font-size="9.9757">ll</tspan></text>
		</g>
	</g>
</g>
</svg>
